M48
; DRILL file {KiCad 8.0.4} date 2025-02-04T16:43:17-0500
; FORMAT={-:-/ absolute / metric / decimal}
; #@! TF.CreationDate,2025-02-04T16:43:17-05:00
; #@! TF.GenerationSoftware,Kicad,Pcbnew,8.0.4
; #@! TF.FileFunction,Plated,1,2,PTH
FMAT,2
METRIC
; #@! TA.AperFunction,Plated,PTH,ViaDrill
T1C0.500
; #@! TA.AperFunction,Plated,PTH,ComponentDrill
T2C0.800
; #@! TA.AperFunction,Plated,PTH,ComponentDrill
T3C1.000
; #@! TA.AperFunction,Plated,PTH,ComponentDrill
T4C1.200
; #@! TA.AperFunction,Plated,PTH,ComponentDrill
T5C1.520
; #@! TA.AperFunction,Plated,PTH,ComponentDrill
T6C3.048
; #@! TA.AperFunction,Plated,PTH,ComponentDrill
T7C3.200
%
G90
G05
T1
X57.4Y54.5
X66.0Y54.5
T2
X60.5Y72.5
X60.5Y70.0
X60.5Y65.0
X60.5Y62.5
X67.5Y72.5
X67.5Y70.0
X67.549Y65.232
X67.549Y62.732
T3
X10.96Y4.5
X13.5Y4.5
X16.04Y4.5
X21.96Y4.5
X24.5Y4.5
X27.04Y4.5
X32.96Y4.5
X35.5Y4.5
X38.04Y4.5
X43.5Y4.5
X46.04Y4.5
X48.58Y4.5
X48.601Y71.573
X48.601Y69.033
X48.601Y66.493
X48.601Y63.953
X48.601Y61.413
X48.601Y58.873
X53.96Y4.5
X56.5Y4.5
X59.04Y4.5
X63.96Y4.5
X66.5Y4.5
X69.04Y4.5
X76.5Y54.475
X76.5Y51.935
X76.5Y49.395
X76.5Y46.855
X76.5Y44.315
X76.5Y41.775
X76.5Y39.235
X76.5Y36.695
X76.5Y34.155
X76.5Y31.615
X76.5Y29.075
X76.5Y26.535
T4
X8.022Y56.153
X8.022Y16.656
X25.168Y56.153
X25.168Y16.656
T5
X5.1Y69.54
X5.1Y64.46
T6
X8.721Y21.419
X24.469Y51.391
T7
X4.5Y76.5
X4.5Y4.5
X76.5Y76.5
X76.5Y4.5
M30
