G04 #@! TF.GenerationSoftware,KiCad,Pcbnew,8.0.4*
G04 #@! TF.CreationDate,2025-02-04T16:43:17-05:00*
G04 #@! TF.ProjectId,potencia_cubesat,706f7465-6e63-4696-915f-637562657361,rev?*
G04 #@! TF.SameCoordinates,Original*
G04 #@! TF.FileFunction,Copper,L1,Top*
G04 #@! TF.FilePolarity,Positive*
%FSLAX46Y46*%
G04 Gerber Fmt 4.6, Leading zero omitted, Abs format (unit mm)*
G04 Created by KiCad (PCBNEW 8.0.4) date 2025-02-04 16:43:17*
%MOMM*%
%LPD*%
G01*
G04 APERTURE LIST*
G04 #@! TA.AperFunction,ComponentPad*
%ADD10C,3.200000*%
G04 #@! TD*
G04 #@! TA.AperFunction,ComponentPad*
%ADD11R,1.700000X1.700000*%
G04 #@! TD*
G04 #@! TA.AperFunction,ComponentPad*
%ADD12O,1.700000X1.700000*%
G04 #@! TD*
G04 #@! TA.AperFunction,ComponentPad*
%ADD13C,4.048000*%
G04 #@! TD*
G04 #@! TA.AperFunction,ComponentPad*
%ADD14R,3.000000X3.000000*%
G04 #@! TD*
G04 #@! TA.AperFunction,ComponentPad*
%ADD15R,1.600000X1.600000*%
G04 #@! TD*
G04 #@! TA.AperFunction,ComponentPad*
%ADD16C,1.600000*%
G04 #@! TD*
G04 #@! TA.AperFunction,ComponentPad*
%ADD17C,3.000000*%
G04 #@! TD*
G04 #@! TA.AperFunction,ViaPad*
%ADD18C,0.800000*%
G04 #@! TD*
G04 #@! TA.AperFunction,Conductor*
%ADD19C,0.508000*%
G04 #@! TD*
G04 APERTURE END LIST*
D10*
G04 #@! TO.P,H3,*
G04 #@! TO.N,*
X4500000Y4500000D03*
G04 #@! TD*
D11*
G04 #@! TO.P,J1,1,Pin_1*
G04 #@! TO.N,5V*
X76500000Y54475000D03*
D12*
G04 #@! TO.P,J1,2,Pin_2*
G04 #@! TO.N,3.3V*
X76500000Y51935000D03*
G04 #@! TO.P,J1,3,Pin_3*
G04 #@! TO.N,SDA*
X76500000Y49395000D03*
G04 #@! TO.P,J1,4,Pin_4*
G04 #@! TO.N,SCL*
X76500000Y46855000D03*
G04 #@! TO.P,J1,5,Pin_5*
G04 #@! TO.N,GND*
X76500000Y44315000D03*
G04 #@! TO.P,J1,6,Pin_6*
X76500000Y41775000D03*
G04 #@! TO.P,J1,7,Pin_7*
G04 #@! TO.N,Motor 1*
X76500000Y39235000D03*
G04 #@! TO.P,J1,8,Pin_8*
G04 #@! TO.N,Motor 2*
X76500000Y36695000D03*
G04 #@! TO.P,J1,9,Pin_9*
G04 #@! TO.N,Motor 3*
X76500000Y34155000D03*
G04 #@! TO.P,J1,10,Pin_10*
G04 #@! TO.N,Motor 4*
X76500000Y31615000D03*
G04 #@! TO.P,J1,11,Pin_11*
G04 #@! TO.N,Motor 5*
X76500000Y29075000D03*
G04 #@! TO.P,J1,12,Pin_12*
G04 #@! TO.N,Motor 6*
X76500000Y26535000D03*
G04 #@! TD*
D13*
G04 #@! TO.P,PS1,*
G04 #@! TO.N,*
X24469000Y51391000D03*
X8721000Y21419000D03*
D14*
G04 #@! TO.P,PS1,1,IN+*
G04 #@! TO.N,Vin+*
X25167500Y56153500D03*
G04 #@! TO.P,PS1,2,IN-*
G04 #@! TO.N,GND*
X8022500Y56153500D03*
G04 #@! TO.P,PS1,3,OUT+*
G04 #@! TO.N,5V*
X25167500Y16656500D03*
G04 #@! TO.P,PS1,4,OUT-*
G04 #@! TO.N,GND*
X8022500Y16656500D03*
G04 #@! TD*
D15*
G04 #@! TO.P,C3,1*
G04 #@! TO.N,VIN-*
X60500000Y62500000D03*
D16*
G04 #@! TO.P,C3,2*
G04 #@! TO.N,GND*
X60500000Y65000000D03*
G04 #@! TD*
D11*
G04 #@! TO.P,J7,1,Pin_1*
G04 #@! TO.N,Motor 4*
X48580000Y4500000D03*
D12*
G04 #@! TO.P,J7,2,Pin_2*
G04 #@! TO.N,5V*
X46040000Y4500000D03*
G04 #@! TO.P,J7,3,Pin_3*
G04 #@! TO.N,GND*
X43500000Y4500000D03*
G04 #@! TD*
D16*
G04 #@! TO.P,C2,1*
G04 #@! TO.N,VIN-*
X67500000Y70000000D03*
G04 #@! TO.P,C2,2*
G04 #@! TO.N,GND*
X67500000Y72500000D03*
G04 #@! TD*
D11*
G04 #@! TO.P,J6,1,Pin_1*
G04 #@! TO.N,Motor 3*
X38040000Y4500000D03*
D12*
G04 #@! TO.P,J6,2,Pin_2*
G04 #@! TO.N,5V*
X35500000Y4500000D03*
G04 #@! TO.P,J6,3,Pin_3*
G04 #@! TO.N,GND*
X32960000Y4500000D03*
G04 #@! TD*
D14*
G04 #@! TO.P,J3,1,Pin_1*
G04 #@! TO.N,Vin+*
X5100000Y69540000D03*
D17*
G04 #@! TO.P,J3,2,Pin_2*
G04 #@! TO.N,GND*
X5100000Y64460000D03*
G04 #@! TD*
D10*
G04 #@! TO.P,H4,*
G04 #@! TO.N,*
X76500000Y4500000D03*
G04 #@! TD*
D16*
G04 #@! TO.P,C5,1*
G04 #@! TO.N,3.3V*
X67548600Y62732400D03*
G04 #@! TO.P,C5,2*
G04 #@! TO.N,GND*
X67548600Y65232400D03*
G04 #@! TD*
D15*
G04 #@! TO.P,C4,1*
G04 #@! TO.N,3.3V*
X60500000Y72500000D03*
D16*
G04 #@! TO.P,C4,2*
G04 #@! TO.N,GND*
X60500000Y70000000D03*
G04 #@! TD*
D11*
G04 #@! TO.P,J4,1,Pin_1*
G04 #@! TO.N,5V*
X48600946Y58872667D03*
D12*
G04 #@! TO.P,J4,2,Pin_2*
G04 #@! TO.N,GND*
X48600946Y61412667D03*
G04 #@! TO.P,J4,3,Pin_3*
G04 #@! TO.N,SCL*
X48600946Y63952667D03*
G04 #@! TO.P,J4,4,Pin_4*
G04 #@! TO.N,SDA*
X48600946Y66492667D03*
G04 #@! TO.P,J4,5,Pin_5*
G04 #@! TO.N,VIN-*
X48600946Y69032667D03*
G04 #@! TO.P,J4,6,Pin_6*
G04 #@! TO.N,Vin+*
X48600946Y71572667D03*
G04 #@! TD*
D10*
G04 #@! TO.P,H1,*
G04 #@! TO.N,*
X4500000Y76500000D03*
G04 #@! TD*
D11*
G04 #@! TO.P,J2,1,Pin_1*
G04 #@! TO.N,Motor 1*
X16040000Y4500000D03*
D12*
G04 #@! TO.P,J2,2,Pin_2*
G04 #@! TO.N,5V*
X13500000Y4500000D03*
G04 #@! TO.P,J2,3,Pin_3*
G04 #@! TO.N,GND*
X10960000Y4500000D03*
G04 #@! TD*
D10*
G04 #@! TO.P,H2,*
G04 #@! TO.N,*
X76500000Y76500000D03*
G04 #@! TD*
D11*
G04 #@! TO.P,J5,1,Pin_1*
G04 #@! TO.N,Motor 2*
X27040000Y4500000D03*
D12*
G04 #@! TO.P,J5,2,Pin_2*
G04 #@! TO.N,5V*
X24500000Y4500000D03*
G04 #@! TO.P,J5,3,Pin_3*
G04 #@! TO.N,GND*
X21960000Y4500000D03*
G04 #@! TD*
D11*
G04 #@! TO.P,J9,1,Pin_1*
G04 #@! TO.N,Motor 6*
X69040000Y4500000D03*
D12*
G04 #@! TO.P,J9,2,Pin_2*
G04 #@! TO.N,5V*
X66500000Y4500000D03*
G04 #@! TO.P,J9,3,Pin_3*
G04 #@! TO.N,GND*
X63960000Y4500000D03*
G04 #@! TD*
D11*
G04 #@! TO.P,J8,1,Pin_1*
G04 #@! TO.N,Motor 5*
X59040000Y4500000D03*
D12*
G04 #@! TO.P,J8,2,Pin_2*
G04 #@! TO.N,5V*
X56500000Y4500000D03*
G04 #@! TO.P,J8,3,Pin_3*
G04 #@! TO.N,GND*
X53960000Y4500000D03*
G04 #@! TD*
D18*
G04 #@! TO.N,5V*
X57400000Y54500000D03*
X66000000Y54500000D03*
G04 #@! TD*
D19*
G04 #@! TO.N,5V*
X66000000Y54500000D02*
X57400000Y54500000D01*
G04 #@! TD*
M02*
