%TF.GenerationSoftware,KiCad,Pcbnew,8.0.4*%
%TF.CreationDate,2025-02-04T16:43:17-05:00*%
%TF.ProjectId,potencia_cubesat,706f7465-6e63-4696-915f-637562657361,rev?*%
%TF.SameCoordinates,Original*%
%TF.FileFunction,Drillmap*%
%TF.FilePolarity,Positive*%
%FSLAX45Y45*%
G04 Gerber Fmt 4.5, Leading zero omitted, Abs format (unit mm)*
G04 Created by KiCad (PCBNEW 8.0.4) date 2025-02-04 16:43:17*
%MOMM*%
%LPD*%
G01*
G04 APERTURE LIST*
%ADD10C,0.050000*%
%ADD11C,0.200000*%
G04 APERTURE END LIST*
D10*
X50000Y8050000D02*
X8050000Y8050000D01*
X8050000Y50000D01*
X50000Y50000D01*
X50000Y8050000D01*
X4900000Y4050000D02*
G75*
G02*
X3200000Y4050000I-850000J0D01*
G01*
X3200000Y4050000D02*
G75*
G02*
X4900000Y4050000I850000J0D01*
G01*
D11*
X308277Y-263984D02*
X308277Y-63984D01*
X308277Y-63984D02*
X355896Y-63984D01*
X355896Y-63984D02*
X384467Y-73508D01*
X384467Y-73508D02*
X403515Y-92555D01*
X403515Y-92555D02*
X413039Y-111603D01*
X413039Y-111603D02*
X422562Y-149698D01*
X422562Y-149698D02*
X422562Y-178269D01*
X422562Y-178269D02*
X413039Y-216365D01*
X413039Y-216365D02*
X403515Y-235412D01*
X403515Y-235412D02*
X384467Y-254460D01*
X384467Y-254460D02*
X355896Y-263984D01*
X355896Y-263984D02*
X308277Y-263984D01*
X508277Y-263984D02*
X508277Y-130650D01*
X508277Y-168746D02*
X517801Y-149698D01*
X517801Y-149698D02*
X527324Y-140174D01*
X527324Y-140174D02*
X546372Y-130650D01*
X546372Y-130650D02*
X565420Y-130650D01*
X632086Y-263984D02*
X632086Y-130650D01*
X632086Y-63984D02*
X622563Y-73508D01*
X622563Y-73508D02*
X632086Y-83031D01*
X632086Y-83031D02*
X641610Y-73508D01*
X641610Y-73508D02*
X632086Y-63984D01*
X632086Y-63984D02*
X632086Y-83031D01*
X755896Y-263984D02*
X736848Y-254460D01*
X736848Y-254460D02*
X727324Y-235412D01*
X727324Y-235412D02*
X727324Y-63984D01*
X860658Y-263984D02*
X841610Y-254460D01*
X841610Y-254460D02*
X832086Y-235412D01*
X832086Y-235412D02*
X832086Y-63984D01*
X1089229Y-263984D02*
X1089229Y-63984D01*
X1089229Y-63984D02*
X1155896Y-206841D01*
X1155896Y-206841D02*
X1222563Y-63984D01*
X1222563Y-63984D02*
X1222563Y-263984D01*
X1403515Y-263984D02*
X1403515Y-159222D01*
X1403515Y-159222D02*
X1393991Y-140174D01*
X1393991Y-140174D02*
X1374944Y-130650D01*
X1374944Y-130650D02*
X1336848Y-130650D01*
X1336848Y-130650D02*
X1317801Y-140174D01*
X1403515Y-254460D02*
X1384467Y-263984D01*
X1384467Y-263984D02*
X1336848Y-263984D01*
X1336848Y-263984D02*
X1317801Y-254460D01*
X1317801Y-254460D02*
X1308277Y-235412D01*
X1308277Y-235412D02*
X1308277Y-216365D01*
X1308277Y-216365D02*
X1317801Y-197317D01*
X1317801Y-197317D02*
X1336848Y-187793D01*
X1336848Y-187793D02*
X1384467Y-187793D01*
X1384467Y-187793D02*
X1403515Y-178269D01*
X1498753Y-130650D02*
X1498753Y-330650D01*
X1498753Y-140174D02*
X1517801Y-130650D01*
X1517801Y-130650D02*
X1555896Y-130650D01*
X1555896Y-130650D02*
X1574943Y-140174D01*
X1574943Y-140174D02*
X1584467Y-149698D01*
X1584467Y-149698D02*
X1593991Y-168746D01*
X1593991Y-168746D02*
X1593991Y-225888D01*
X1593991Y-225888D02*
X1584467Y-244936D01*
X1584467Y-244936D02*
X1574943Y-254460D01*
X1574943Y-254460D02*
X1555896Y-263984D01*
X1555896Y-263984D02*
X1517801Y-263984D01*
X1517801Y-263984D02*
X1498753Y-254460D01*
X1679705Y-244936D02*
X1689229Y-254460D01*
X1689229Y-254460D02*
X1679705Y-263984D01*
X1679705Y-263984D02*
X1670182Y-254460D01*
X1670182Y-254460D02*
X1679705Y-244936D01*
X1679705Y-244936D02*
X1679705Y-263984D01*
X1679705Y-140174D02*
X1689229Y-149698D01*
X1689229Y-149698D02*
X1679705Y-159222D01*
X1679705Y-159222D02*
X1670182Y-149698D01*
X1670182Y-149698D02*
X1679705Y-140174D01*
X1679705Y-140174D02*
X1679705Y-159222D01*
M02*
