G04 #@! TF.GenerationSoftware,KiCad,Pcbnew,8.0.4*
G04 #@! TF.CreationDate,2025-01-30T11:26:39-05:00*
G04 #@! TF.ProjectId,Cubesat_pcb,43756265-7361-4745-9f70-63622e6b6963,rev?*
G04 #@! TF.SameCoordinates,Original*
G04 #@! TF.FileFunction,Other,User*
%FSLAX46Y46*%
G04 Gerber Fmt 4.6, Leading zero omitted, Abs format (unit mm)*
G04 Created by KiCad (PCBNEW 8.0.4) date 2025-01-30 11:26:39*
%MOMM*%
%LPD*%
G01*
G04 APERTURE LIST*
%ADD10C,0.050000*%
G04 APERTURE END LIST*
D10*
G04 #@! TO.C,J7*
X35424132Y21111654D02*
X38974132Y21111654D01*
X35424132Y9911654D02*
X35424132Y21111654D01*
X38974132Y21111654D02*
X38974132Y9911654D01*
X38974132Y9911654D02*
X35424132Y9911654D01*
G04 #@! TO.C,H3*
X79499132Y4511654D02*
G75*
G02*
X73499132Y4511654I-3000000J0D01*
G01*
X73499132Y4511654D02*
G75*
G02*
X79499132Y4511654I3000000J0D01*
G01*
G04 #@! TO.C,R1*
X21209132Y54961654D02*
X21209132Y52861654D01*
X21209132Y52861654D02*
X25749132Y52861654D01*
X25749132Y54961654D02*
X21209132Y54961654D01*
X25749132Y52861654D02*
X25749132Y54961654D01*
G04 #@! TO.C,H1*
X7499132Y76511654D02*
G75*
G02*
X1499132Y76511654I-3000000J0D01*
G01*
X1499132Y76511654D02*
G75*
G02*
X7499132Y76511654I3000000J0D01*
G01*
G04 #@! TO.C,J8*
X48149132Y79661654D02*
X48149132Y71061654D01*
X48149132Y71061654D02*
X59049132Y71061654D01*
X59049132Y79661654D02*
X48149132Y79661654D01*
X59049132Y71061654D02*
X59049132Y79661654D01*
G04 #@! TO.C,J1*
X74699132Y56286654D02*
X74699132Y24736654D01*
X74699132Y24736654D02*
X78299132Y24736654D01*
X78299132Y56286654D02*
X74699132Y56286654D01*
X78299132Y24736654D02*
X78299132Y56286654D01*
G04 #@! TO.C,J6*
X59549132Y79661654D02*
X59549132Y71061654D01*
X59549132Y71061654D02*
X70449132Y71061654D01*
X70449132Y79661654D02*
X59549132Y79661654D01*
X70449132Y71061654D02*
X70449132Y79661654D01*
G04 #@! TO.C,J4*
X25349132Y79661654D02*
X25349132Y71061654D01*
X25349132Y71061654D02*
X36249132Y71061654D01*
X36249132Y79661654D02*
X25349132Y79661654D01*
X36249132Y71061654D02*
X36249132Y79661654D01*
G04 #@! TO.C,R2*
X21209132Y51861654D02*
X21209132Y49761654D01*
X21209132Y49761654D02*
X25749132Y49761654D01*
X25749132Y51861654D02*
X21209132Y51861654D01*
X25749132Y49761654D02*
X25749132Y51861654D01*
G04 #@! TO.C,H4*
X7499132Y4511654D02*
G75*
G02*
X1499132Y4511654I-3000000J0D01*
G01*
X1499132Y4511654D02*
G75*
G02*
X7499132Y4511654I3000000J0D01*
G01*
G04 #@! TO.C,H2*
X79499132Y76511654D02*
G75*
G02*
X73499132Y76511654I-3000000J0D01*
G01*
X73499132Y76511654D02*
G75*
G02*
X79499132Y76511654I3000000J0D01*
G01*
G04 #@! TO.C,J5*
X36749132Y79661654D02*
X36749132Y71061654D01*
X36749132Y71061654D02*
X47649132Y71061654D01*
X47649132Y79661654D02*
X36749132Y79661654D01*
X47649132Y71061654D02*
X47649132Y79661654D01*
G04 #@! TO.C,U2*
X1019132Y64731654D02*
X1019132Y13281654D01*
X1019132Y13281654D02*
X30029132Y13281654D01*
X30029132Y64731654D02*
X1019132Y64731654D01*
X30029132Y13281654D02*
X30029132Y64731654D01*
G04 #@! TD*
M02*
