G04 #@! TF.GenerationSoftware,KiCad,Pcbnew,8.0.4*
G04 #@! TF.CreationDate,2025-01-30T11:26:39-05:00*
G04 #@! TF.ProjectId,Cubesat_pcb,43756265-7361-4745-9f70-63622e6b6963,rev?*
G04 #@! TF.SameCoordinates,Original*
G04 #@! TF.FileFunction,Copper,L1,Top*
G04 #@! TF.FilePolarity,Positive*
%FSLAX46Y46*%
G04 Gerber Fmt 4.6, Leading zero omitted, Abs format (unit mm)*
G04 Created by KiCad (PCBNEW 8.0.4) date 2025-01-30 11:26:39*
%MOMM*%
%LPD*%
G01*
G04 APERTURE LIST*
G04 Aperture macros list*
%AMRoundRect*
0 Rectangle with rounded corners*
0 $1 Rounding radius*
0 $2 $3 $4 $5 $6 $7 $8 $9 X,Y pos of 4 corners*
0 Add a 4 corners polygon primitive as box body*
4,1,4,$2,$3,$4,$5,$6,$7,$8,$9,$2,$3,0*
0 Add four circle primitives for the rounded corners*
1,1,$1+$1,$2,$3*
1,1,$1+$1,$4,$5*
1,1,$1+$1,$6,$7*
1,1,$1+$1,$8,$9*
0 Add four rect primitives between the rounded corners*
20,1,$1+$1,$2,$3,$4,$5,0*
20,1,$1+$1,$4,$5,$6,$7,0*
20,1,$1+$1,$6,$7,$8,$9,0*
20,1,$1+$1,$8,$9,$2,$3,0*%
G04 Aperture macros list end*
G04 #@! TA.AperFunction,ComponentPad*
%ADD10R,1.700000X1.700000*%
G04 #@! TD*
G04 #@! TA.AperFunction,ComponentPad*
%ADD11O,1.700000X1.700000*%
G04 #@! TD*
G04 #@! TA.AperFunction,ComponentPad*
%ADD12C,1.400000*%
G04 #@! TD*
G04 #@! TA.AperFunction,ComponentPad*
%ADD13O,1.400000X1.400000*%
G04 #@! TD*
G04 #@! TA.AperFunction,ComponentPad*
%ADD14RoundRect,0.250000X0.350000X0.625000X-0.350000X0.625000X-0.350000X-0.625000X0.350000X-0.625000X0*%
G04 #@! TD*
G04 #@! TA.AperFunction,ComponentPad*
%ADD15O,1.200000X1.750000*%
G04 #@! TD*
G04 #@! TA.AperFunction,ComponentPad*
%ADD16R,2.000000X2.000000*%
G04 #@! TD*
G04 #@! TA.AperFunction,ComponentPad*
%ADD17C,2.000000*%
G04 #@! TD*
G04 #@! TA.AperFunction,ViaPad*
%ADD18C,0.800000*%
G04 #@! TD*
G04 #@! TA.AperFunction,Conductor*
%ADD19C,0.406000*%
G04 #@! TD*
G04 #@! TA.AperFunction,Conductor*
%ADD20C,0.508000*%
G04 #@! TD*
G04 APERTURE END LIST*
D10*
G04 #@! TO.P,J7,1,Pin_1*
G04 #@! TO.N,3.3V*
X37224132Y19311654D03*
D11*
G04 #@! TO.P,J7,2,Pin_2*
G04 #@! TO.N,GND*
X37224132Y16771654D03*
G04 #@! TO.P,J7,3,Pin_3*
G04 #@! TO.N,RX_GPS*
X37224132Y14231654D03*
G04 #@! TO.P,J7,4,Pin_4*
G04 #@! TO.N,TX_GPS*
X37224132Y11691654D03*
G04 #@! TD*
D12*
G04 #@! TO.P,R1,1*
G04 #@! TO.N,3.3V*
X22259132Y53911654D03*
D13*
G04 #@! TO.P,R1,2*
G04 #@! TO.N,SCL*
X24799132Y53911654D03*
G04 #@! TD*
D14*
G04 #@! TO.P,J8,1,Pin_1*
G04 #@! TO.N,3.3V*
X56599132Y72911654D03*
D15*
G04 #@! TO.P,J8,2,Pin_2*
G04 #@! TO.N,GND*
X54599132Y72911654D03*
G04 #@! TO.P,J8,3,Pin_3*
G04 #@! TO.N,SDA*
X52599132Y72911654D03*
G04 #@! TO.P,J8,4,Pin_4*
G04 #@! TO.N,SCL*
X50599132Y72911654D03*
G04 #@! TD*
D10*
G04 #@! TO.P,J1,1,Pin_1*
G04 #@! TO.N,5V*
X76499132Y54486654D03*
D11*
G04 #@! TO.P,J1,2,Pin_2*
G04 #@! TO.N,3.3V*
X76499132Y51946654D03*
G04 #@! TO.P,J1,3,Pin_3*
G04 #@! TO.N,SDA*
X76499132Y49406654D03*
G04 #@! TO.P,J1,4,Pin_4*
G04 #@! TO.N,SCL*
X76499132Y46866654D03*
G04 #@! TO.P,J1,5,Pin_5*
G04 #@! TO.N,GND*
X76499132Y44326654D03*
G04 #@! TO.P,J1,6,Pin_6*
X76499132Y41786654D03*
G04 #@! TO.P,J1,7,Pin_7*
G04 #@! TO.N,Motor 1*
X76499132Y39246654D03*
G04 #@! TO.P,J1,8,Pin_8*
G04 #@! TO.N,Motor 2*
X76499132Y36706654D03*
G04 #@! TO.P,J1,9,Pin_9*
G04 #@! TO.N,Motor 3*
X76499132Y34166654D03*
G04 #@! TO.P,J1,10,Pin_10*
G04 #@! TO.N,Motor 4*
X76499132Y31626654D03*
G04 #@! TO.P,J1,11,Pin_11*
G04 #@! TO.N,Motor 5*
X76499132Y29086654D03*
G04 #@! TO.P,J1,12,Pin_12*
G04 #@! TO.N,Motor 6*
X76499132Y26546654D03*
G04 #@! TD*
D14*
G04 #@! TO.P,J6,1,Pin_1*
G04 #@! TO.N,3.3V*
X67999132Y72911654D03*
D15*
G04 #@! TO.P,J6,2,Pin_2*
G04 #@! TO.N,GND*
X65999132Y72911654D03*
G04 #@! TO.P,J6,3,Pin_3*
G04 #@! TO.N,UV_OUT*
X63999132Y72911654D03*
G04 #@! TO.P,J6,4,Pin_4*
G04 #@! TO.N,3.3V*
X61999132Y72911654D03*
G04 #@! TD*
D14*
G04 #@! TO.P,J4,1,Pin_1*
G04 #@! TO.N,TX_CO*
X33799132Y72911654D03*
D15*
G04 #@! TO.P,J4,2,Pin_2*
G04 #@! TO.N,RX_CO*
X31799132Y72911654D03*
G04 #@! TO.P,J4,3,Pin_3*
G04 #@! TO.N,5V*
X29799132Y72911654D03*
G04 #@! TO.P,J4,4,Pin_4*
G04 #@! TO.N,GND*
X27799132Y72911654D03*
G04 #@! TD*
D12*
G04 #@! TO.P,R2,1*
G04 #@! TO.N,3.3V*
X22259132Y50811654D03*
D13*
G04 #@! TO.P,R2,2*
G04 #@! TO.N,SDA*
X24799132Y50811654D03*
G04 #@! TD*
D14*
G04 #@! TO.P,J5,1,Pin_1*
G04 #@! TO.N,SDA*
X45199132Y72911654D03*
D15*
G04 #@! TO.P,J5,2,Pin_2*
G04 #@! TO.N,SCL*
X43199132Y72911654D03*
G04 #@! TO.P,J5,3,Pin_3*
G04 #@! TO.N,GND*
X41199132Y72911654D03*
G04 #@! TO.P,J5,4,Pin_4*
G04 #@! TO.N,3.3V*
X39199132Y72911654D03*
G04 #@! TD*
D16*
G04 #@! TO.P,U2,1,3V3*
G04 #@! TO.N,3.3V*
X28199132Y23491654D03*
D17*
G04 #@! TO.P,U2,2,GND*
G04 #@! TO.N,GND*
X28199132Y26031654D03*
G04 #@! TO.P,U2,3,D15*
G04 #@! TO.N,SS*
X28199132Y28571654D03*
G04 #@! TO.P,U2,4,D2*
G04 #@! TO.N,Motor 5*
X28199132Y31111654D03*
G04 #@! TO.P,U2,5,D4*
G04 #@! TO.N,Motor 4*
X28199132Y33651654D03*
G04 #@! TO.P,U2,6,RX2*
G04 #@! TO.N,TX_GPS*
X28199132Y36191654D03*
G04 #@! TO.P,U2,7,TX2*
G04 #@! TO.N,RX_GPS*
X28199132Y38731654D03*
G04 #@! TO.P,U2,8,D5*
G04 #@! TO.N,Motor 3*
X28199132Y41271654D03*
G04 #@! TO.P,U2,9,D18*
G04 #@! TO.N,Motor 2*
X28199132Y43811654D03*
G04 #@! TO.P,U2,10,D19*
G04 #@! TO.N,Motor 1*
X28199132Y46351654D03*
G04 #@! TO.P,U2,11,D21*
G04 #@! TO.N,SDA*
X28199132Y48891654D03*
G04 #@! TO.P,U2,12,RX0*
G04 #@! TO.N,TX_CO*
X28199132Y51431654D03*
G04 #@! TO.P,U2,13,TX0*
G04 #@! TO.N,RX_CO*
X28199132Y53971654D03*
G04 #@! TO.P,U2,14,D22*
G04 #@! TO.N,SCL*
X28199132Y56511654D03*
G04 #@! TO.P,U2,15,D23*
G04 #@! TO.N,unconnected-(U2-D23-Pad15)*
X28199132Y59051654D03*
G04 #@! TO.P,U2,16,EN*
G04 #@! TO.N,unconnected-(U2-EN-Pad16)*
X2799132Y59051654D03*
G04 #@! TO.P,U2,17,VP*
G04 #@! TO.N,unconnected-(U2-VP-Pad17)*
X2799132Y56511654D03*
G04 #@! TO.P,U2,18,VN*
G04 #@! TO.N,unconnected-(U2-VN-Pad18)*
X2799132Y53971654D03*
G04 #@! TO.P,U2,19,D34*
G04 #@! TO.N,unconnected-(U2-D34-Pad19)*
X2799132Y51431654D03*
G04 #@! TO.P,U2,20,D35*
G04 #@! TO.N,unconnected-(U2-D35-Pad20)*
X2799132Y48891654D03*
G04 #@! TO.P,U2,21,D32*
G04 #@! TO.N,UV_OUT*
X2799132Y46351654D03*
G04 #@! TO.P,U2,22,D33*
G04 #@! TO.N,unconnected-(U2-D33-Pad22)*
X2799132Y43811654D03*
G04 #@! TO.P,U2,23,D25*
G04 #@! TO.N,Motor 6*
X2799132Y41271654D03*
G04 #@! TO.P,U2,24,D26*
G04 #@! TO.N,DIO0*
X2799132Y38731654D03*
G04 #@! TO.P,U2,25,D27*
G04 #@! TO.N,RESET*
X2799132Y36191654D03*
G04 #@! TO.P,U2,26,D14*
G04 #@! TO.N,SCK*
X2799132Y33651654D03*
G04 #@! TO.P,U2,27,D12*
G04 #@! TO.N,MISO*
X2799132Y31111654D03*
G04 #@! TO.P,U2,28,D13*
G04 #@! TO.N,MOSI*
X2799132Y28571654D03*
G04 #@! TO.P,U2,29,GND*
G04 #@! TO.N,GND*
X2799132Y26031654D03*
G04 #@! TO.P,U2,30,VIN*
G04 #@! TO.N,unconnected-(U2-VIN-Pad30)*
X2799132Y23491654D03*
G04 #@! TD*
D18*
G04 #@! TO.N,SCL*
X42299132Y57911654D03*
X34799132Y66311654D03*
X30599132Y66311654D03*
X42299132Y63111654D03*
G04 #@! TO.N,GND*
X5199132Y26611654D03*
X5199132Y22611654D03*
X5199132Y19611654D03*
X5199132Y38211654D03*
X54599132Y66711654D03*
X41199132Y67511654D03*
X46799132Y67511654D03*
X59999132Y66711654D03*
G04 #@! TO.N,Motor 5*
X32299132Y28811654D03*
X35699132Y28811654D03*
G04 #@! TO.N,Motor 4*
X35699132Y31011654D03*
X32299132Y31011654D03*
G04 #@! TO.N,5V*
X58099132Y68711654D03*
X29799132Y68711654D03*
G04 #@! TO.N,3.3V*
X31299132Y23511654D03*
X20799132Y21711654D03*
X20799132Y40511654D03*
X37199132Y23511654D03*
G04 #@! TO.N,Motor 6*
X18299132Y41211654D03*
X18299132Y21111654D03*
G04 #@! TD*
D19*
G04 #@! TO.N,SCL*
X30599132Y66311654D02*
X34799132Y66311654D01*
D20*
X42299132Y57911654D02*
X42299132Y63111654D01*
G04 #@! TO.N,GND*
X5199132Y22611654D02*
X5199132Y19611654D01*
X41199132Y67511654D02*
X46799132Y67511654D01*
X54599132Y66711654D02*
X59999132Y66711654D01*
X5199132Y38211654D02*
X5199132Y26611654D01*
G04 #@! TO.N,Motor 5*
X32299132Y28811654D02*
X35699132Y28811654D01*
G04 #@! TO.N,Motor 4*
X32299132Y31011654D02*
X35699132Y31011654D01*
G04 #@! TO.N,5V*
X29799132Y68711654D02*
X58099132Y68711654D01*
G04 #@! TO.N,3.3V*
X19999132Y39711654D02*
X19999132Y22511654D01*
X19999132Y22511654D02*
X20799132Y21711654D01*
X37199132Y23511654D02*
X31299132Y23511654D01*
X20799132Y40511654D02*
X19999132Y39711654D01*
G04 #@! TO.N,Motor 6*
X18299132Y41211654D02*
X18299132Y21111654D01*
G04 #@! TD*
M02*
