G04 #@! TF.GenerationSoftware,KiCad,Pcbnew,8.0.4*
G04 #@! TF.CreationDate,2025-01-30T11:26:39-05:00*
G04 #@! TF.ProjectId,Cubesat_pcb,43756265-7361-4745-9f70-63622e6b6963,rev?*
G04 #@! TF.SameCoordinates,Original*
G04 #@! TF.FileFunction,Legend,Top*
G04 #@! TF.FilePolarity,Positive*
%FSLAX46Y46*%
G04 Gerber Fmt 4.6, Leading zero omitted, Abs format (unit mm)*
G04 Created by KiCad (PCBNEW 8.0.4) date 2025-01-30 11:26:39*
%MOMM*%
%LPD*%
G01*
G04 APERTURE LIST*
G04 Aperture macros list*
%AMRoundRect*
0 Rectangle with rounded corners*
0 $1 Rounding radius*
0 $2 $3 $4 $5 $6 $7 $8 $9 X,Y pos of 4 corners*
0 Add a 4 corners polygon primitive as box body*
4,1,4,$2,$3,$4,$5,$6,$7,$8,$9,$2,$3,0*
0 Add four circle primitives for the rounded corners*
1,1,$1+$1,$2,$3*
1,1,$1+$1,$4,$5*
1,1,$1+$1,$6,$7*
1,1,$1+$1,$8,$9*
0 Add four rect primitives between the rounded corners*
20,1,$1+$1,$2,$3,$4,$5,0*
20,1,$1+$1,$4,$5,$6,$7,0*
20,1,$1+$1,$6,$7,$8,$9,0*
20,1,$1+$1,$8,$9,$2,$3,0*%
G04 Aperture macros list end*
%ADD10C,0.100000*%
%ADD11C,0.150000*%
%ADD12C,0.120000*%
%ADD13C,0.000000*%
%ADD14C,0.127000*%
%ADD15C,0.200000*%
%ADD16R,1.700000X1.700000*%
%ADD17O,1.700000X1.700000*%
%ADD18C,3.200000*%
%ADD19C,1.400000*%
%ADD20O,1.400000X1.400000*%
%ADD21RoundRect,0.250000X0.350000X0.625000X-0.350000X0.625000X-0.350000X-0.625000X0.350000X-0.625000X0*%
%ADD22O,1.200000X1.750000*%
%ADD23C,3.000000*%
%ADD24RoundRect,0.102000X1.000000X1.000000X-1.000000X1.000000X-1.000000X-1.000000X1.000000X-1.000000X0*%
%ADD25C,2.204000*%
G04 APERTURE END LIST*
D10*
X33199234Y28011535D02*
X68199234Y28011535D01*
X68199234Y3011535D01*
X33199234Y3011535D01*
X33199234Y28011535D01*
D11*
X39178951Y14938320D02*
X39893236Y14938320D01*
X39893236Y14938320D02*
X40036093Y14890701D01*
X40036093Y14890701D02*
X40131332Y14795463D01*
X40131332Y14795463D02*
X40178951Y14652606D01*
X40178951Y14652606D02*
X40178951Y14557368D01*
X39178951Y15319273D02*
X39178951Y15985939D01*
X39178951Y15985939D02*
X40178951Y15557368D01*
X35178951Y12843083D02*
X34178951Y12843083D01*
X34178951Y12843083D02*
X35178951Y13414511D01*
X35178951Y13414511D02*
X34178951Y13414511D01*
X34655141Y13890702D02*
X34655141Y14224035D01*
X35178951Y14366892D02*
X35178951Y13890702D01*
X35178951Y13890702D02*
X34178951Y13890702D01*
X34178951Y13890702D02*
X34178951Y14366892D01*
X34178951Y14985940D02*
X34178951Y15176416D01*
X34178951Y15176416D02*
X34226570Y15271654D01*
X34226570Y15271654D02*
X34321808Y15366892D01*
X34321808Y15366892D02*
X34512284Y15414511D01*
X34512284Y15414511D02*
X34845617Y15414511D01*
X34845617Y15414511D02*
X35036093Y15366892D01*
X35036093Y15366892D02*
X35131332Y15271654D01*
X35131332Y15271654D02*
X35178951Y15176416D01*
X35178951Y15176416D02*
X35178951Y14985940D01*
X35178951Y14985940D02*
X35131332Y14890702D01*
X35131332Y14890702D02*
X35036093Y14795464D01*
X35036093Y14795464D02*
X34845617Y14747845D01*
X34845617Y14747845D02*
X34512284Y14747845D01*
X34512284Y14747845D02*
X34321808Y14795464D01*
X34321808Y14795464D02*
X34226570Y14890702D01*
X34226570Y14890702D02*
X34178951Y14985940D01*
X34797998Y15843083D02*
X34797998Y16604988D01*
X34607522Y17224035D02*
X34559903Y17128797D01*
X34559903Y17128797D02*
X34512284Y17081178D01*
X34512284Y17081178D02*
X34417046Y17033559D01*
X34417046Y17033559D02*
X34369427Y17033559D01*
X34369427Y17033559D02*
X34274189Y17081178D01*
X34274189Y17081178D02*
X34226570Y17128797D01*
X34226570Y17128797D02*
X34178951Y17224035D01*
X34178951Y17224035D02*
X34178951Y17414511D01*
X34178951Y17414511D02*
X34226570Y17509749D01*
X34226570Y17509749D02*
X34274189Y17557368D01*
X34274189Y17557368D02*
X34369427Y17604987D01*
X34369427Y17604987D02*
X34417046Y17604987D01*
X34417046Y17604987D02*
X34512284Y17557368D01*
X34512284Y17557368D02*
X34559903Y17509749D01*
X34559903Y17509749D02*
X34607522Y17414511D01*
X34607522Y17414511D02*
X34607522Y17224035D01*
X34607522Y17224035D02*
X34655141Y17128797D01*
X34655141Y17128797D02*
X34702760Y17081178D01*
X34702760Y17081178D02*
X34797998Y17033559D01*
X34797998Y17033559D02*
X34988474Y17033559D01*
X34988474Y17033559D02*
X35083712Y17081178D01*
X35083712Y17081178D02*
X35131332Y17128797D01*
X35131332Y17128797D02*
X35178951Y17224035D01*
X35178951Y17224035D02*
X35178951Y17414511D01*
X35178951Y17414511D02*
X35131332Y17509749D01*
X35131332Y17509749D02*
X35083712Y17557368D01*
X35083712Y17557368D02*
X34988474Y17604987D01*
X34988474Y17604987D02*
X34797998Y17604987D01*
X34797998Y17604987D02*
X34702760Y17557368D01*
X34702760Y17557368D02*
X34655141Y17509749D01*
X34655141Y17509749D02*
X34607522Y17414511D01*
X35178951Y18033559D02*
X34178951Y18033559D01*
X34178951Y18033559D02*
X34893236Y18366892D01*
X34893236Y18366892D02*
X34178951Y18700225D01*
X34178951Y18700225D02*
X35178951Y18700225D01*
X23312465Y54884504D02*
X22979132Y55360695D01*
X22741037Y54884504D02*
X22741037Y55884504D01*
X22741037Y55884504D02*
X23121989Y55884504D01*
X23121989Y55884504D02*
X23217227Y55836885D01*
X23217227Y55836885D02*
X23264846Y55789266D01*
X23264846Y55789266D02*
X23312465Y55694028D01*
X23312465Y55694028D02*
X23312465Y55551171D01*
X23312465Y55551171D02*
X23264846Y55455933D01*
X23264846Y55455933D02*
X23217227Y55408314D01*
X23217227Y55408314D02*
X23121989Y55360695D01*
X23121989Y55360695D02*
X22741037Y55360695D01*
X24264846Y54884504D02*
X23693418Y54884504D01*
X23979132Y54884504D02*
X23979132Y55884504D01*
X23979132Y55884504D02*
X23883894Y55741647D01*
X23883894Y55741647D02*
X23788656Y55646409D01*
X23788656Y55646409D02*
X23693418Y55598790D01*
X50146751Y69906834D02*
X50146751Y70906834D01*
X50146751Y70906834D02*
X50480084Y70192549D01*
X50480084Y70192549D02*
X50813417Y70906834D01*
X50813417Y70906834D02*
X50813417Y69906834D01*
X51289608Y69906834D02*
X51289608Y70906834D01*
X51289608Y70906834D02*
X51670560Y70906834D01*
X51670560Y70906834D02*
X51765798Y70859215D01*
X51765798Y70859215D02*
X51813417Y70811596D01*
X51813417Y70811596D02*
X51861036Y70716358D01*
X51861036Y70716358D02*
X51861036Y70573501D01*
X51861036Y70573501D02*
X51813417Y70478263D01*
X51813417Y70478263D02*
X51765798Y70430644D01*
X51765798Y70430644D02*
X51670560Y70383025D01*
X51670560Y70383025D02*
X51289608Y70383025D01*
X52289608Y70906834D02*
X52289608Y70097311D01*
X52289608Y70097311D02*
X52337227Y70002073D01*
X52337227Y70002073D02*
X52384846Y69954454D01*
X52384846Y69954454D02*
X52480084Y69906834D01*
X52480084Y69906834D02*
X52670560Y69906834D01*
X52670560Y69906834D02*
X52765798Y69954454D01*
X52765798Y69954454D02*
X52813417Y70002073D01*
X52813417Y70002073D02*
X52861036Y70097311D01*
X52861036Y70097311D02*
X52861036Y70906834D01*
X54051512Y70954454D02*
X53194370Y69668739D01*
X54718179Y70430644D02*
X54861036Y70383025D01*
X54861036Y70383025D02*
X54908655Y70335406D01*
X54908655Y70335406D02*
X54956274Y70240168D01*
X54956274Y70240168D02*
X54956274Y70097311D01*
X54956274Y70097311D02*
X54908655Y70002073D01*
X54908655Y70002073D02*
X54861036Y69954454D01*
X54861036Y69954454D02*
X54765798Y69906834D01*
X54765798Y69906834D02*
X54384846Y69906834D01*
X54384846Y69906834D02*
X54384846Y70906834D01*
X54384846Y70906834D02*
X54718179Y70906834D01*
X54718179Y70906834D02*
X54813417Y70859215D01*
X54813417Y70859215D02*
X54861036Y70811596D01*
X54861036Y70811596D02*
X54908655Y70716358D01*
X54908655Y70716358D02*
X54908655Y70621120D01*
X54908655Y70621120D02*
X54861036Y70525882D01*
X54861036Y70525882D02*
X54813417Y70478263D01*
X54813417Y70478263D02*
X54718179Y70430644D01*
X54718179Y70430644D02*
X54384846Y70430644D01*
X55384846Y69906834D02*
X55384846Y70906834D01*
X55384846Y70906834D02*
X55718179Y70192549D01*
X55718179Y70192549D02*
X56051512Y70906834D01*
X56051512Y70906834D02*
X56051512Y69906834D01*
X56527703Y69906834D02*
X56527703Y70906834D01*
X56527703Y70906834D02*
X56908655Y70906834D01*
X56908655Y70906834D02*
X57003893Y70859215D01*
X57003893Y70859215D02*
X57051512Y70811596D01*
X57051512Y70811596D02*
X57099131Y70716358D01*
X57099131Y70716358D02*
X57099131Y70573501D01*
X57099131Y70573501D02*
X57051512Y70478263D01*
X57051512Y70478263D02*
X57003893Y70430644D01*
X57003893Y70430644D02*
X56908655Y70383025D01*
X56908655Y70383025D02*
X56527703Y70383025D01*
X76165798Y57361834D02*
X76165798Y56647549D01*
X76165798Y56647549D02*
X76118179Y56504692D01*
X76118179Y56504692D02*
X76022941Y56409454D01*
X76022941Y56409454D02*
X75880084Y56361834D01*
X75880084Y56361834D02*
X75784846Y56361834D01*
X77165798Y56361834D02*
X76594370Y56361834D01*
X76880084Y56361834D02*
X76880084Y57361834D01*
X76880084Y57361834D02*
X76784846Y57218977D01*
X76784846Y57218977D02*
X76689608Y57123739D01*
X76689608Y57123739D02*
X76594370Y57076120D01*
X62356275Y69906834D02*
X62356275Y70906834D01*
X62356275Y70906834D02*
X62689608Y70192549D01*
X62689608Y70192549D02*
X63022941Y70906834D01*
X63022941Y70906834D02*
X63022941Y69906834D01*
X63975322Y69906834D02*
X63499132Y69906834D01*
X63499132Y69906834D02*
X63499132Y70906834D01*
X64451513Y70478263D02*
X64356275Y70525882D01*
X64356275Y70525882D02*
X64308656Y70573501D01*
X64308656Y70573501D02*
X64261037Y70668739D01*
X64261037Y70668739D02*
X64261037Y70716358D01*
X64261037Y70716358D02*
X64308656Y70811596D01*
X64308656Y70811596D02*
X64356275Y70859215D01*
X64356275Y70859215D02*
X64451513Y70906834D01*
X64451513Y70906834D02*
X64641989Y70906834D01*
X64641989Y70906834D02*
X64737227Y70859215D01*
X64737227Y70859215D02*
X64784846Y70811596D01*
X64784846Y70811596D02*
X64832465Y70716358D01*
X64832465Y70716358D02*
X64832465Y70668739D01*
X64832465Y70668739D02*
X64784846Y70573501D01*
X64784846Y70573501D02*
X64737227Y70525882D01*
X64737227Y70525882D02*
X64641989Y70478263D01*
X64641989Y70478263D02*
X64451513Y70478263D01*
X64451513Y70478263D02*
X64356275Y70430644D01*
X64356275Y70430644D02*
X64308656Y70383025D01*
X64308656Y70383025D02*
X64261037Y70287787D01*
X64261037Y70287787D02*
X64261037Y70097311D01*
X64261037Y70097311D02*
X64308656Y70002073D01*
X64308656Y70002073D02*
X64356275Y69954454D01*
X64356275Y69954454D02*
X64451513Y69906834D01*
X64451513Y69906834D02*
X64641989Y69906834D01*
X64641989Y69906834D02*
X64737227Y69954454D01*
X64737227Y69954454D02*
X64784846Y70002073D01*
X64784846Y70002073D02*
X64832465Y70097311D01*
X64832465Y70097311D02*
X64832465Y70287787D01*
X64832465Y70287787D02*
X64784846Y70383025D01*
X64784846Y70383025D02*
X64737227Y70430644D01*
X64737227Y70430644D02*
X64641989Y70478263D01*
X65737227Y70906834D02*
X65261037Y70906834D01*
X65261037Y70906834D02*
X65213418Y70430644D01*
X65213418Y70430644D02*
X65261037Y70478263D01*
X65261037Y70478263D02*
X65356275Y70525882D01*
X65356275Y70525882D02*
X65594370Y70525882D01*
X65594370Y70525882D02*
X65689608Y70478263D01*
X65689608Y70478263D02*
X65737227Y70430644D01*
X65737227Y70430644D02*
X65784846Y70335406D01*
X65784846Y70335406D02*
X65784846Y70097311D01*
X65784846Y70097311D02*
X65737227Y70002073D01*
X65737227Y70002073D02*
X65689608Y69954454D01*
X65689608Y69954454D02*
X65594370Y69906834D01*
X65594370Y69906834D02*
X65356275Y69906834D01*
X65356275Y69906834D02*
X65261037Y69954454D01*
X65261037Y69954454D02*
X65213418Y70002073D01*
X66737227Y69906834D02*
X66165799Y69906834D01*
X66451513Y69906834D02*
X66451513Y70906834D01*
X66451513Y70906834D02*
X66356275Y70763977D01*
X66356275Y70763977D02*
X66261037Y70668739D01*
X66261037Y70668739D02*
X66165799Y70621120D01*
X67689608Y69906834D02*
X67118180Y69906834D01*
X67403894Y69906834D02*
X67403894Y70906834D01*
X67403894Y70906834D02*
X67308656Y70763977D01*
X67308656Y70763977D02*
X67213418Y70668739D01*
X67213418Y70668739D02*
X67118180Y70621120D01*
X27418180Y70956834D02*
X28084846Y70956834D01*
X28084846Y70956834D02*
X27418180Y69956834D01*
X27418180Y69956834D02*
X28084846Y69956834D01*
X28465799Y70480644D02*
X28799132Y70480644D01*
X28941989Y69956834D02*
X28465799Y69956834D01*
X28465799Y69956834D02*
X28465799Y70956834D01*
X28465799Y70956834D02*
X28941989Y70956834D01*
X29561037Y70956834D02*
X29656275Y70956834D01*
X29656275Y70956834D02*
X29751513Y70909215D01*
X29751513Y70909215D02*
X29799132Y70861596D01*
X29799132Y70861596D02*
X29846751Y70766358D01*
X29846751Y70766358D02*
X29894370Y70575882D01*
X29894370Y70575882D02*
X29894370Y70337787D01*
X29894370Y70337787D02*
X29846751Y70147311D01*
X29846751Y70147311D02*
X29799132Y70052073D01*
X29799132Y70052073D02*
X29751513Y70004454D01*
X29751513Y70004454D02*
X29656275Y69956834D01*
X29656275Y69956834D02*
X29561037Y69956834D01*
X29561037Y69956834D02*
X29465799Y70004454D01*
X29465799Y70004454D02*
X29418180Y70052073D01*
X29418180Y70052073D02*
X29370561Y70147311D01*
X29370561Y70147311D02*
X29322942Y70337787D01*
X29322942Y70337787D02*
X29322942Y70575882D01*
X29322942Y70575882D02*
X29370561Y70766358D01*
X29370561Y70766358D02*
X29418180Y70861596D01*
X29418180Y70861596D02*
X29465799Y70909215D01*
X29465799Y70909215D02*
X29561037Y70956834D01*
X30227704Y70956834D02*
X30894370Y70956834D01*
X30894370Y70956834D02*
X30465799Y69956834D01*
X31275323Y70337787D02*
X32037228Y70337787D01*
X33084846Y70052073D02*
X33037227Y70004454D01*
X33037227Y70004454D02*
X32894370Y69956834D01*
X32894370Y69956834D02*
X32799132Y69956834D01*
X32799132Y69956834D02*
X32656275Y70004454D01*
X32656275Y70004454D02*
X32561037Y70099692D01*
X32561037Y70099692D02*
X32513418Y70194930D01*
X32513418Y70194930D02*
X32465799Y70385406D01*
X32465799Y70385406D02*
X32465799Y70528263D01*
X32465799Y70528263D02*
X32513418Y70718739D01*
X32513418Y70718739D02*
X32561037Y70813977D01*
X32561037Y70813977D02*
X32656275Y70909215D01*
X32656275Y70909215D02*
X32799132Y70956834D01*
X32799132Y70956834D02*
X32894370Y70956834D01*
X32894370Y70956834D02*
X33037227Y70909215D01*
X33037227Y70909215D02*
X33084846Y70861596D01*
X33703894Y70956834D02*
X33894370Y70956834D01*
X33894370Y70956834D02*
X33989608Y70909215D01*
X33989608Y70909215D02*
X34084846Y70813977D01*
X34084846Y70813977D02*
X34132465Y70623501D01*
X34132465Y70623501D02*
X34132465Y70290168D01*
X34132465Y70290168D02*
X34084846Y70099692D01*
X34084846Y70099692D02*
X33989608Y70004454D01*
X33989608Y70004454D02*
X33894370Y69956834D01*
X33894370Y69956834D02*
X33703894Y69956834D01*
X33703894Y69956834D02*
X33608656Y70004454D01*
X33608656Y70004454D02*
X33513418Y70099692D01*
X33513418Y70099692D02*
X33465799Y70290168D01*
X33465799Y70290168D02*
X33465799Y70623501D01*
X33465799Y70623501D02*
X33513418Y70813977D01*
X33513418Y70813977D02*
X33608656Y70909215D01*
X33608656Y70909215D02*
X33703894Y70956834D01*
X23462965Y51643134D02*
X23129632Y52119325D01*
X22891537Y51643134D02*
X22891537Y52643134D01*
X22891537Y52643134D02*
X23272489Y52643134D01*
X23272489Y52643134D02*
X23367727Y52595515D01*
X23367727Y52595515D02*
X23415346Y52547896D01*
X23415346Y52547896D02*
X23462965Y52452658D01*
X23462965Y52452658D02*
X23462965Y52309801D01*
X23462965Y52309801D02*
X23415346Y52214563D01*
X23415346Y52214563D02*
X23367727Y52166944D01*
X23367727Y52166944D02*
X23272489Y52119325D01*
X23272489Y52119325D02*
X22891537Y52119325D01*
X23843918Y52547896D02*
X23891537Y52595515D01*
X23891537Y52595515D02*
X23986775Y52643134D01*
X23986775Y52643134D02*
X24224870Y52643134D01*
X24224870Y52643134D02*
X24320108Y52595515D01*
X24320108Y52595515D02*
X24367727Y52547896D01*
X24367727Y52547896D02*
X24415346Y52452658D01*
X24415346Y52452658D02*
X24415346Y52357420D01*
X24415346Y52357420D02*
X24367727Y52214563D01*
X24367727Y52214563D02*
X23796299Y51643134D01*
X23796299Y51643134D02*
X24415346Y51643134D01*
X40056275Y69954454D02*
X40199132Y69906834D01*
X40199132Y69906834D02*
X40437227Y69906834D01*
X40437227Y69906834D02*
X40532465Y69954454D01*
X40532465Y69954454D02*
X40580084Y70002073D01*
X40580084Y70002073D02*
X40627703Y70097311D01*
X40627703Y70097311D02*
X40627703Y70192549D01*
X40627703Y70192549D02*
X40580084Y70287787D01*
X40580084Y70287787D02*
X40532465Y70335406D01*
X40532465Y70335406D02*
X40437227Y70383025D01*
X40437227Y70383025D02*
X40246751Y70430644D01*
X40246751Y70430644D02*
X40151513Y70478263D01*
X40151513Y70478263D02*
X40103894Y70525882D01*
X40103894Y70525882D02*
X40056275Y70621120D01*
X40056275Y70621120D02*
X40056275Y70716358D01*
X40056275Y70716358D02*
X40103894Y70811596D01*
X40103894Y70811596D02*
X40151513Y70859215D01*
X40151513Y70859215D02*
X40246751Y70906834D01*
X40246751Y70906834D02*
X40484846Y70906834D01*
X40484846Y70906834D02*
X40627703Y70859215D01*
X41056275Y69906834D02*
X41056275Y70906834D01*
X41056275Y70430644D02*
X41627703Y70430644D01*
X41627703Y69906834D02*
X41627703Y70906834D01*
X41961037Y70906834D02*
X42532465Y70906834D01*
X42246751Y69906834D02*
X42246751Y70906834D01*
X43294370Y70573501D02*
X43294370Y69906834D01*
X43056275Y70954454D02*
X42818180Y70240168D01*
X42818180Y70240168D02*
X43437227Y70240168D01*
X44008656Y70906834D02*
X44103894Y70906834D01*
X44103894Y70906834D02*
X44199132Y70859215D01*
X44199132Y70859215D02*
X44246751Y70811596D01*
X44246751Y70811596D02*
X44294370Y70716358D01*
X44294370Y70716358D02*
X44341989Y70525882D01*
X44341989Y70525882D02*
X44341989Y70287787D01*
X44341989Y70287787D02*
X44294370Y70097311D01*
X44294370Y70097311D02*
X44246751Y70002073D01*
X44246751Y70002073D02*
X44199132Y69954454D01*
X44199132Y69954454D02*
X44103894Y69906834D01*
X44103894Y69906834D02*
X44008656Y69906834D01*
X44008656Y69906834D02*
X43913418Y69954454D01*
X43913418Y69954454D02*
X43865799Y70002073D01*
X43865799Y70002073D02*
X43818180Y70097311D01*
X43818180Y70097311D02*
X43770561Y70287787D01*
X43770561Y70287787D02*
X43770561Y70525882D01*
X43770561Y70525882D02*
X43818180Y70716358D01*
X43818180Y70716358D02*
X43865799Y70811596D01*
X43865799Y70811596D02*
X43913418Y70859215D01*
X43913418Y70859215D02*
X44008656Y70906834D01*
X26092227Y12191834D02*
X26092227Y11382311D01*
X26092227Y11382311D02*
X26139846Y11287073D01*
X26139846Y11287073D02*
X26187465Y11239454D01*
X26187465Y11239454D02*
X26282703Y11191834D01*
X26282703Y11191834D02*
X26473179Y11191834D01*
X26473179Y11191834D02*
X26568417Y11239454D01*
X26568417Y11239454D02*
X26616036Y11287073D01*
X26616036Y11287073D02*
X26663655Y11382311D01*
X26663655Y11382311D02*
X26663655Y12191834D01*
X27092227Y12096596D02*
X27139846Y12144215D01*
X27139846Y12144215D02*
X27235084Y12191834D01*
X27235084Y12191834D02*
X27473179Y12191834D01*
X27473179Y12191834D02*
X27568417Y12144215D01*
X27568417Y12144215D02*
X27616036Y12096596D01*
X27616036Y12096596D02*
X27663655Y12001358D01*
X27663655Y12001358D02*
X27663655Y11906120D01*
X27663655Y11906120D02*
X27616036Y11763263D01*
X27616036Y11763263D02*
X27044608Y11191834D01*
X27044608Y11191834D02*
X27663655Y11191834D01*
D12*
G04 #@! TO.C,J7*
X35894132Y18041654D02*
X35894132Y10361654D01*
X35894132Y18041654D02*
X38554132Y18041654D01*
X35894132Y10361654D02*
X38554132Y10361654D01*
X37224132Y20641654D02*
X38554132Y20641654D01*
X38554132Y20641654D02*
X38554132Y19311654D01*
X38554132Y18041654D02*
X38554132Y10361654D01*
G04 #@! TO.C,R1*
X23179132Y53911654D02*
X23799132Y53911654D01*
X23179132Y53911654D02*
G75*
G02*
X21339132Y53911654I-920000J0D01*
G01*
X21339132Y53911654D02*
G75*
G02*
X23179132Y53911654I920000J0D01*
G01*
G04 #@! TO.C,J8*
X48539132Y79271654D02*
X48539132Y71451654D01*
X48539132Y73051654D02*
X49459132Y73051654D01*
X48539132Y71451654D02*
X49459132Y71451654D01*
X49299132Y77011654D02*
X50299132Y77011654D01*
X49299132Y75411654D02*
X49299132Y77011654D01*
X49459132Y73051654D02*
X49739132Y73051654D01*
X49459132Y71451654D02*
X49459132Y73051654D01*
X50299132Y77011654D02*
X50299132Y75411654D01*
X50299132Y75411654D02*
X49299132Y75411654D01*
X51099132Y74911654D02*
X51099132Y79271654D01*
X56099132Y79271654D02*
X56099132Y74911654D01*
X56099132Y74911654D02*
X51099132Y74911654D01*
X56899132Y77011654D02*
X56899132Y79271654D01*
X56899132Y77011654D02*
X56899132Y75411654D01*
X56899132Y75411654D02*
X57899132Y75411654D01*
X57399132Y77011654D02*
X57399132Y79271654D01*
X57459132Y73051654D02*
X57459132Y71836654D01*
X57459132Y73051654D02*
X57739132Y73051654D01*
X57739132Y73051654D02*
X57739132Y71451654D01*
X57739132Y71451654D02*
X58659132Y71451654D01*
X57899132Y77011654D02*
X56899132Y77011654D01*
X57899132Y75411654D02*
X57899132Y77011654D01*
X58659132Y79271654D02*
X48539132Y79271654D01*
X58659132Y73051654D02*
X57739132Y73051654D01*
X58659132Y71451654D02*
X58659132Y79271654D01*
G04 #@! TO.C,J1*
X75169132Y55816654D02*
X76499132Y55816654D01*
X75169132Y54486654D02*
X75169132Y55816654D01*
X75169132Y53216654D02*
X75169132Y25216654D01*
X75169132Y53216654D02*
X77829132Y53216654D01*
X75169132Y25216654D02*
X77829132Y25216654D01*
X77829132Y53216654D02*
X77829132Y25216654D01*
G04 #@! TO.C,J6*
X59939132Y79271654D02*
X59939132Y71451654D01*
X59939132Y73051654D02*
X60859132Y73051654D01*
X59939132Y71451654D02*
X60859132Y71451654D01*
X60699132Y77011654D02*
X61699132Y77011654D01*
X60699132Y75411654D02*
X60699132Y77011654D01*
X60859132Y73051654D02*
X61139132Y73051654D01*
X60859132Y71451654D02*
X60859132Y73051654D01*
X61699132Y77011654D02*
X61699132Y75411654D01*
X61699132Y75411654D02*
X60699132Y75411654D01*
X62499132Y74911654D02*
X62499132Y79271654D01*
X67499132Y79271654D02*
X67499132Y74911654D01*
X67499132Y74911654D02*
X62499132Y74911654D01*
X68299132Y77011654D02*
X68299132Y79271654D01*
X68299132Y77011654D02*
X68299132Y75411654D01*
X68299132Y75411654D02*
X69299132Y75411654D01*
X68799132Y77011654D02*
X68799132Y79271654D01*
X68859132Y73051654D02*
X68859132Y71836654D01*
X68859132Y73051654D02*
X69139132Y73051654D01*
X69139132Y73051654D02*
X69139132Y71451654D01*
X69139132Y71451654D02*
X70059132Y71451654D01*
X69299132Y77011654D02*
X68299132Y77011654D01*
X69299132Y75411654D02*
X69299132Y77011654D01*
X70059132Y79271654D02*
X59939132Y79271654D01*
X70059132Y73051654D02*
X69139132Y73051654D01*
X70059132Y71451654D02*
X70059132Y79271654D01*
G04 #@! TO.C,J4*
X25739132Y79271654D02*
X25739132Y71451654D01*
X25739132Y73051654D02*
X26659132Y73051654D01*
X25739132Y71451654D02*
X26659132Y71451654D01*
X26499132Y77011654D02*
X27499132Y77011654D01*
X26499132Y75411654D02*
X26499132Y77011654D01*
X26659132Y73051654D02*
X26939132Y73051654D01*
X26659132Y71451654D02*
X26659132Y73051654D01*
X27499132Y77011654D02*
X27499132Y75411654D01*
X27499132Y75411654D02*
X26499132Y75411654D01*
X28299132Y74911654D02*
X28299132Y79271654D01*
X33299132Y79271654D02*
X33299132Y74911654D01*
X33299132Y74911654D02*
X28299132Y74911654D01*
X34099132Y77011654D02*
X34099132Y79271654D01*
X34099132Y77011654D02*
X34099132Y75411654D01*
X34099132Y75411654D02*
X35099132Y75411654D01*
X34599132Y77011654D02*
X34599132Y79271654D01*
X34659132Y73051654D02*
X34659132Y71836654D01*
X34659132Y73051654D02*
X34939132Y73051654D01*
X34939132Y73051654D02*
X34939132Y71451654D01*
X34939132Y71451654D02*
X35859132Y71451654D01*
X35099132Y77011654D02*
X34099132Y77011654D01*
X35099132Y75411654D02*
X35099132Y77011654D01*
X35859132Y79271654D02*
X25739132Y79271654D01*
X35859132Y73051654D02*
X34939132Y73051654D01*
X35859132Y71451654D02*
X35859132Y79271654D01*
G04 #@! TO.C,R2*
X23179132Y50811654D02*
X23799132Y50811654D01*
X23179132Y50811654D02*
G75*
G02*
X21339132Y50811654I-920000J0D01*
G01*
X21339132Y50811654D02*
G75*
G02*
X23179132Y50811654I920000J0D01*
G01*
D13*
G04 #@! TO.C,G\u002A\u002A\u002A*
G36*
X56651875Y30832962D02*
G01*
X56651875Y30466787D01*
X56982325Y30466787D01*
X57312775Y30466787D01*
X57312775Y30413201D01*
X57312775Y30359614D01*
X56928739Y30359614D01*
X56544702Y30359614D01*
X56544702Y30779375D01*
X56544702Y31199136D01*
X56598289Y31199136D01*
X56651875Y31199136D01*
X56651875Y30832962D01*
G37*
G36*
X63545979Y36317074D02*
G01*
X63563277Y36289859D01*
X63574393Y36243177D01*
X63577057Y36193069D01*
X63569001Y36155576D01*
X63568861Y36155323D01*
X63555212Y36137229D01*
X63545715Y36149778D01*
X63540600Y36167247D01*
X63531762Y36216094D01*
X63529343Y36264594D01*
X63532961Y36302120D01*
X63542234Y36318046D01*
X63545979Y36317074D01*
G37*
G36*
X61951651Y36291712D02*
G01*
X61968159Y36275597D01*
X61999269Y36238706D01*
X62033124Y36190291D01*
X62064187Y36139601D01*
X62086923Y36095885D01*
X62095793Y36068393D01*
X62094628Y36064346D01*
X62081934Y36074761D01*
X62053142Y36107785D01*
X62013430Y36157331D01*
X61993377Y36183395D01*
X61946783Y36247764D01*
X61918708Y36292990D01*
X61909759Y36316863D01*
X61920539Y36317173D01*
X61951651Y36291712D01*
G37*
G36*
X59859228Y36140748D02*
G01*
X59889695Y36115443D01*
X59925289Y36077867D01*
X59958303Y36036497D01*
X59981029Y35999810D01*
X59985994Y35986468D01*
X60001144Y35943673D01*
X60027236Y35888394D01*
X60039621Y35865627D01*
X60065078Y35816274D01*
X60069925Y35794785D01*
X60055390Y35800753D01*
X60022700Y35833768D01*
X59979206Y35885726D01*
X59937327Y35943150D01*
X59898251Y36005372D01*
X59866176Y36064475D01*
X59845300Y36112540D01*
X59839820Y36141649D01*
X59841596Y36145303D01*
X59859228Y36140748D01*
G37*
G36*
X60894069Y34654978D02*
G01*
X60884995Y34618703D01*
X60868841Y34587991D01*
X60835216Y34531094D01*
X60805309Y34473619D01*
X60804726Y34472378D01*
X60782711Y34434011D01*
X60763753Y34414829D01*
X60761394Y34414326D01*
X60731705Y34408443D01*
X60716979Y34403484D01*
X60693161Y34403757D01*
X60688725Y34412975D01*
X60703078Y34436290D01*
X60716395Y34443928D01*
X60738399Y34464583D01*
X60768336Y34507909D01*
X60796375Y34558170D01*
X60825878Y34613252D01*
X60851212Y34654663D01*
X60865712Y34672317D01*
X60887537Y34675655D01*
X60894069Y34654978D01*
G37*
G36*
X62117698Y31145549D02*
G01*
X62117698Y31091963D01*
X61805161Y31091963D01*
X61492625Y31091963D01*
X61421125Y31027367D01*
X61349625Y30962771D01*
X61349625Y30779375D01*
X61349625Y30595979D01*
X61421125Y30531383D01*
X61492625Y30466787D01*
X61805161Y30466787D01*
X62117698Y30466787D01*
X62117698Y30413201D01*
X62117698Y30359614D01*
X61782707Y30359614D01*
X61447716Y30359614D01*
X61336153Y30450980D01*
X61224590Y30542346D01*
X61224590Y30779375D01*
X61224590Y31016404D01*
X61336153Y31107770D01*
X61447716Y31199136D01*
X61782707Y31199136D01*
X62117698Y31199136D01*
X62117698Y31145549D01*
G37*
G36*
X62582114Y36584371D02*
G01*
X62580826Y36497681D01*
X62575692Y36435534D01*
X62564809Y36386801D01*
X62546274Y36340352D01*
X62537201Y36321725D01*
X62507179Y36268136D01*
X62468846Y36208092D01*
X62427827Y36149383D01*
X62389749Y36099798D01*
X62360235Y36067128D01*
X62347038Y36058406D01*
X62333359Y36072622D01*
X62310227Y36110167D01*
X62289803Y36148824D01*
X62263754Y36206294D01*
X62253441Y36250660D01*
X62256184Y36299431D01*
X62261776Y36331803D01*
X62297105Y36436421D01*
X62361183Y36542957D01*
X62448542Y36643069D01*
X62490727Y36681083D01*
X62582114Y36757596D01*
X62582114Y36584371D01*
G37*
G36*
X57973675Y31145549D02*
G01*
X57973675Y31091963D01*
X57866502Y31091963D01*
X57759329Y31091963D01*
X57759329Y30779375D01*
X57759329Y30466787D01*
X57866502Y30466787D01*
X57973675Y30466787D01*
X57973675Y30413201D01*
X57973675Y30359614D01*
X57696812Y30359614D01*
X57419948Y30359614D01*
X57419948Y30413201D01*
X57419948Y30466787D01*
X57527121Y30466787D01*
X57634294Y30466787D01*
X57634294Y30778484D01*
X57634294Y31090180D01*
X57531587Y31095537D01*
X57473515Y31099756D01*
X57442089Y31107688D01*
X57428240Y31123893D01*
X57423227Y31150015D01*
X57417575Y31199136D01*
X57695625Y31199136D01*
X57973675Y31199136D01*
X57973675Y31145549D01*
G37*
G36*
X60605276Y36412286D02*
G01*
X60614395Y36333658D01*
X60608502Y36241668D01*
X60589604Y36154362D01*
X60571576Y36109212D01*
X60544207Y36068045D01*
X60501991Y36017239D01*
X60452104Y35963997D01*
X60401719Y35915524D01*
X60358010Y35879021D01*
X60328152Y35861692D01*
X60324520Y35861161D01*
X60296012Y35873378D01*
X60268964Y35896886D01*
X60247484Y35925363D01*
X60251095Y35946931D01*
X60266195Y35965275D01*
X60286926Y36005679D01*
X60295915Y36057826D01*
X60295925Y36059052D01*
X60310160Y36128834D01*
X60349249Y36210243D01*
X60408269Y36295164D01*
X60482297Y36375486D01*
X60495045Y36387224D01*
X60589560Y36472202D01*
X60605276Y36412286D01*
G37*
G36*
X61710149Y35275818D02*
G01*
X61750102Y35238907D01*
X61798988Y35185367D01*
X61851335Y35121725D01*
X61901671Y35054508D01*
X61944524Y34990243D01*
X61964336Y34955880D01*
X62006134Y34870648D01*
X62025922Y34812682D01*
X62023376Y34780860D01*
X61998173Y34774060D01*
X61949991Y34791158D01*
X61921214Y34806081D01*
X61869006Y34833920D01*
X61822735Y34857127D01*
X61817555Y34859560D01*
X61786252Y34887210D01*
X61751406Y34938190D01*
X61730921Y34977951D01*
X61708640Y35037203D01*
X61690480Y35104811D01*
X61677698Y35172313D01*
X61671553Y35231247D01*
X61673302Y35273151D01*
X61684204Y35289562D01*
X61684601Y35289572D01*
X61710149Y35275818D01*
G37*
G36*
X59881648Y31150015D02*
G01*
X59875958Y31122177D01*
X59861031Y31106805D01*
X59827798Y31099340D01*
X59773289Y31095537D01*
X59670581Y31090180D01*
X59670581Y30779375D01*
X59670581Y30468570D01*
X59773289Y30463213D01*
X59831360Y30458995D01*
X59862786Y30451062D01*
X59876636Y30434857D01*
X59881648Y30408735D01*
X59887300Y30359614D01*
X59609250Y30359614D01*
X59331200Y30359614D01*
X59331200Y30413201D01*
X59331200Y30466787D01*
X59438373Y30466787D01*
X59545546Y30466787D01*
X59545546Y30779375D01*
X59545546Y31091963D01*
X59438373Y31091963D01*
X59331200Y31091963D01*
X59331200Y31145549D01*
X59331200Y31199136D01*
X59609250Y31199136D01*
X59887300Y31199136D01*
X59881648Y31150015D01*
G37*
G36*
X60031148Y35047063D02*
G01*
X60070012Y35020176D01*
X60114874Y34986019D01*
X60219143Y34887855D01*
X60306655Y34774378D01*
X60370001Y34655841D01*
X60386749Y34609833D01*
X60407023Y34529892D01*
X60418102Y34454444D01*
X60419650Y34391405D01*
X60411329Y34348693D01*
X60398464Y34334777D01*
X60345535Y34323917D01*
X60281150Y34317789D01*
X60225027Y34317975D01*
X60211282Y34319767D01*
X60173240Y34339988D01*
X60125240Y34383569D01*
X60074469Y34442534D01*
X60028118Y34508901D01*
X60006253Y34547328D01*
X59983328Y34608388D01*
X59969426Y34688803D01*
X59963763Y34770553D01*
X59963672Y34857488D01*
X59969750Y34936828D01*
X59980804Y35001362D01*
X59995642Y35043880D01*
X60011186Y35057364D01*
X60031148Y35047063D01*
G37*
G36*
X61798196Y42815149D02*
G01*
X61819373Y42779990D01*
X61850193Y42716605D01*
X61858245Y42699154D01*
X61906938Y42585341D01*
X61956630Y42455928D01*
X62002912Y42323424D01*
X62041373Y42200337D01*
X62063736Y42116255D01*
X62075584Y42060223D01*
X62076482Y42025862D01*
X62064710Y42000332D01*
X62045188Y41977824D01*
X62014606Y41948335D01*
X61994922Y41934847D01*
X61994015Y41934755D01*
X61974559Y41943759D01*
X61934405Y41966690D01*
X61891574Y41992807D01*
X61827975Y42031719D01*
X61750241Y42078114D01*
X61676099Y42121427D01*
X61552783Y42192452D01*
X61654297Y42489505D01*
X61688423Y42588286D01*
X61719677Y42676759D01*
X61745824Y42748744D01*
X61764625Y42798062D01*
X61772939Y42817162D01*
X61783704Y42826176D01*
X61798196Y42815149D01*
G37*
G36*
X59752479Y32752258D02*
G01*
X59878732Y32751047D01*
X59992981Y32748834D01*
X60090441Y32745802D01*
X60166325Y32742135D01*
X60215850Y32738015D01*
X60234144Y32733818D01*
X60230064Y32711719D01*
X60209887Y32671249D01*
X60179706Y32622038D01*
X60145612Y32573715D01*
X60113695Y32535909D01*
X60102304Y32525402D01*
X60075915Y32517830D01*
X60021001Y32511660D01*
X59943105Y32506877D01*
X59847774Y32503464D01*
X59740550Y32501406D01*
X59626980Y32500686D01*
X59512606Y32501288D01*
X59402975Y32503198D01*
X59303630Y32506398D01*
X59220116Y32510874D01*
X59157979Y32516608D01*
X59122761Y32523585D01*
X59116854Y32528230D01*
X59127538Y32553727D01*
X59155662Y32597233D01*
X59195333Y32649705D01*
X59198808Y32653993D01*
X59280762Y32754600D01*
X59752479Y32752258D01*
G37*
G36*
X59735531Y32235022D02*
G01*
X59849046Y32234491D01*
X59934656Y32233290D01*
X59996270Y32231160D01*
X60037798Y32227842D01*
X60063149Y32223078D01*
X60076232Y32216609D01*
X60080958Y32208176D01*
X60081411Y32202632D01*
X60070326Y32171395D01*
X60041897Y32126389D01*
X60017859Y32095877D01*
X59954306Y32021630D01*
X59647219Y32016747D01*
X59340131Y32011865D01*
X59334849Y31891295D01*
X59329568Y31770725D01*
X59784815Y31770725D01*
X59908703Y31770185D01*
X60020457Y31768663D01*
X60115215Y31766310D01*
X60188118Y31763277D01*
X60234305Y31759713D01*
X60248936Y31756367D01*
X60243044Y31736353D01*
X60219199Y31697172D01*
X60182431Y31647011D01*
X60179283Y31643023D01*
X60100758Y31544037D01*
X59909684Y31532346D01*
X59820935Y31527985D01*
X59718461Y31524679D01*
X59608186Y31522426D01*
X59496038Y31521226D01*
X59387944Y31521075D01*
X59289828Y31521974D01*
X59207619Y31523920D01*
X59147241Y31526911D01*
X59114622Y31530946D01*
X59110900Y31532563D01*
X59107209Y31553337D01*
X59103983Y31604143D01*
X59101413Y31679289D01*
X59099687Y31773085D01*
X59098997Y31879838D01*
X59098992Y31889806D01*
X59098992Y32235142D01*
X59590201Y32235142D01*
X59735531Y32235022D01*
G37*
G36*
X60392512Y43712277D02*
G01*
X60427326Y43696935D01*
X60471257Y43680827D01*
X60494381Y43685632D01*
X60528218Y43690492D01*
X60582734Y43684158D01*
X60608984Y43678283D01*
X60650923Y43665417D01*
X60685947Y43647264D01*
X60721235Y43617912D01*
X60763967Y43571453D01*
X60817658Y43506505D01*
X60872658Y43435591D01*
X60922839Y43365605D01*
X60961207Y43306562D01*
X60976043Y43279743D01*
X61011138Y43223970D01*
X61047096Y43196298D01*
X61052060Y43194988D01*
X61088577Y43188343D01*
X61147708Y43177934D01*
X61216844Y43165982D01*
X61218852Y43165638D01*
X61284867Y43153086D01*
X61338004Y43140708D01*
X61367444Y43131046D01*
X61368373Y43130515D01*
X61376371Y43113589D01*
X61372245Y43076417D01*
X61355154Y43013860D01*
X61343270Y42976846D01*
X61321208Y42905126D01*
X61294331Y42810324D01*
X61265857Y42704168D01*
X61239008Y42598386D01*
X61236046Y42586267D01*
X61175219Y42336196D01*
X61025748Y42334226D01*
X60934430Y42335007D01*
X60836820Y42338933D01*
X60753564Y42345163D01*
X60751242Y42345404D01*
X60667870Y42352359D01*
X60570117Y42357890D01*
X60480368Y42360771D01*
X60334529Y42362990D01*
X60319858Y42501421D01*
X60316069Y42555251D01*
X60312625Y42638801D01*
X60309660Y42746067D01*
X60307307Y42871048D01*
X60305697Y43007739D01*
X60304966Y43150137D01*
X60304937Y43175718D01*
X60304688Y43711583D01*
X60345911Y43717426D01*
X60392512Y43712277D01*
G37*
G36*
X60854763Y30798479D02*
G01*
X60916027Y30689197D01*
X60971023Y30589788D01*
X61017413Y30504584D01*
X61052861Y30437919D01*
X61075027Y30394123D01*
X61081692Y30377912D01*
X61066070Y30365487D01*
X61027987Y30359673D01*
X61023298Y30359614D01*
X60990379Y30362643D01*
X60965211Y30376426D01*
X60940081Y30408008D01*
X60907279Y30464434D01*
X60905984Y30466787D01*
X60847066Y30573960D01*
X60540153Y30573683D01*
X60233239Y30573407D01*
X60178338Y30470976D01*
X60145285Y30413714D01*
X60118412Y30381561D01*
X60089762Y30366816D01*
X60066700Y30362948D01*
X60024022Y30364494D01*
X60009987Y30381626D01*
X60009962Y30382794D01*
X60018435Y30404796D01*
X60042266Y30453307D01*
X60079073Y30523826D01*
X60126474Y30611855D01*
X60173219Y30696783D01*
X60313619Y30696783D01*
X60330374Y30690961D01*
X60376218Y30686122D01*
X60444519Y30682711D01*
X60528646Y30681176D01*
X60545827Y30681133D01*
X60632209Y30681799D01*
X60704020Y30683621D01*
X60754629Y30686336D01*
X60777402Y30689680D01*
X60778035Y30690362D01*
X60769472Y30713392D01*
X60746591Y30757910D01*
X60713604Y30816906D01*
X60674724Y30883371D01*
X60634163Y30950296D01*
X60596135Y31010673D01*
X60564852Y31057491D01*
X60544526Y31083743D01*
X60539685Y31086939D01*
X60525217Y31070203D01*
X60498169Y31029466D01*
X60462865Y30972194D01*
X60423634Y30905855D01*
X60384802Y30837916D01*
X60350696Y30775844D01*
X60325642Y30727107D01*
X60313968Y30699173D01*
X60313619Y30696783D01*
X60173219Y30696783D01*
X60182087Y30712894D01*
X60230411Y30799221D01*
X60450860Y31190205D01*
X60539347Y31195477D01*
X60627834Y31200750D01*
X60854763Y30798479D01*
G37*
G36*
X62800557Y32752338D02*
G01*
X62839160Y32710462D01*
X62886454Y32642737D01*
X62945145Y32547031D01*
X63001775Y32449488D01*
X63056318Y32354306D01*
X63122774Y32238367D01*
X63195281Y32111898D01*
X63267974Y31985130D01*
X63327972Y31880520D01*
X63392396Y31767101D01*
X63439805Y31680735D01*
X63471825Y31618003D01*
X63490080Y31575482D01*
X63496195Y31549751D01*
X63491795Y31537387D01*
X63491156Y31536947D01*
X63457949Y31527427D01*
X63404766Y31522372D01*
X63345854Y31521949D01*
X63295460Y31526326D01*
X63269417Y31534325D01*
X63248231Y31558525D01*
X63213368Y31608446D01*
X63168339Y31678495D01*
X63116655Y31763077D01*
X63061828Y31856596D01*
X63014556Y31940416D01*
X62941149Y32072503D01*
X62882888Y32175733D01*
X62838164Y32252802D01*
X62805368Y32306403D01*
X62782890Y32339232D01*
X62769120Y32353983D01*
X62766780Y32355185D01*
X62750989Y32342508D01*
X62721062Y32301383D01*
X62679063Y32235199D01*
X62627058Y32147345D01*
X62567112Y32041213D01*
X62501289Y31920193D01*
X62497780Y31913623D01*
X62430591Y31789121D01*
X62377030Y31693397D01*
X62334994Y31623153D01*
X62302377Y31575093D01*
X62277077Y31545921D01*
X62256990Y31532338D01*
X62253785Y31531300D01*
X62208160Y31524669D01*
X62148617Y31522582D01*
X62091388Y31524970D01*
X62052703Y31531766D01*
X62051718Y31532150D01*
X62038930Y31553309D01*
X62041564Y31570930D01*
X62055252Y31599681D01*
X62084191Y31654826D01*
X62125811Y31731795D01*
X62177541Y31826018D01*
X62236813Y31932928D01*
X62301054Y32047955D01*
X62367696Y32166530D01*
X62434169Y32284084D01*
X62497902Y32396048D01*
X62556325Y32497854D01*
X62606868Y32584932D01*
X62646961Y32652713D01*
X62674035Y32696628D01*
X62678931Y32704023D01*
X62709831Y32744209D01*
X62738598Y32767078D01*
X62767938Y32770499D01*
X62800557Y32752338D01*
G37*
G36*
X59015681Y31134229D02*
G01*
X59062701Y31095438D01*
X59087609Y31064783D01*
X59097378Y31029659D01*
X59098992Y30983697D01*
X59095175Y30925620D01*
X59080232Y30888679D01*
X59054030Y30862705D01*
X59009069Y30827338D01*
X59080823Y30765919D01*
X59122334Y30727703D01*
X59143691Y30695231D01*
X59151546Y30653603D01*
X59152578Y30605169D01*
X59151175Y30549955D01*
X59142706Y30513147D01*
X59120786Y30482131D01*
X59079027Y30444297D01*
X59065254Y30432726D01*
X58977930Y30359614D01*
X58591907Y30359614D01*
X58205883Y30359614D01*
X58205883Y30743651D01*
X58330913Y30743651D01*
X58330916Y30605219D01*
X58330919Y30466787D01*
X58630110Y30467352D01*
X58740220Y30467759D01*
X58820509Y30468998D01*
X58876879Y30471809D01*
X58915234Y30476936D01*
X58941476Y30485120D01*
X58961508Y30497105D01*
X58978422Y30511150D01*
X59018326Y30565264D01*
X59026066Y30624007D01*
X59001256Y30679475D01*
X58987353Y30694346D01*
X58970088Y30708024D01*
X58948394Y30718091D01*
X58916625Y30725251D01*
X58869137Y30730204D01*
X58800282Y30733653D01*
X58704415Y30736300D01*
X58639038Y30737650D01*
X58330913Y30743651D01*
X58205883Y30743651D01*
X58205883Y30779375D01*
X58205883Y30859755D01*
X58330919Y30859755D01*
X58608411Y30859755D01*
X58719931Y30860428D01*
X58801514Y30862791D01*
X58858928Y30867363D01*
X58897943Y30874660D01*
X58924326Y30885200D01*
X58929930Y30888602D01*
X58965965Y30930277D01*
X58971490Y30982681D01*
X58946240Y31037531D01*
X58935119Y31050622D01*
X58918925Y31066184D01*
X58900323Y31077255D01*
X58873383Y31084599D01*
X58832173Y31088979D01*
X58770761Y31091156D01*
X58683215Y31091894D01*
X58613600Y31091963D01*
X58330919Y31091963D01*
X58330919Y30975859D01*
X58330919Y30859755D01*
X58205883Y30859755D01*
X58205883Y30975859D01*
X58205883Y31199136D01*
X58569127Y31199136D01*
X58932370Y31199136D01*
X59015681Y31134229D01*
G37*
G36*
X56872527Y32747605D02*
G01*
X56910721Y32735850D01*
X56916235Y32731710D01*
X56923644Y32712413D01*
X56929348Y32669389D01*
X56933470Y32600034D01*
X56936134Y32501740D01*
X56937462Y32371901D01*
X56937670Y32278264D01*
X56937670Y31846253D01*
X56887759Y31750713D01*
X56835263Y31671211D01*
X56767421Y31612042D01*
X56750796Y31601310D01*
X56663743Y31547448D01*
X56331825Y31542095D01*
X56214380Y31540418D01*
X56126640Y31540070D01*
X56062590Y31541571D01*
X56016221Y31545445D01*
X55981519Y31552213D01*
X55952474Y31562398D01*
X55923072Y31576522D01*
X55920562Y31577819D01*
X55856589Y31616258D01*
X55805039Y31661158D01*
X55764675Y31716538D01*
X55734264Y31786416D01*
X55712568Y31874811D01*
X55698352Y31985742D01*
X55690382Y32123228D01*
X55687421Y32291287D01*
X55687318Y32336508D01*
X55687449Y32462256D01*
X55688140Y32556997D01*
X55689836Y32625448D01*
X55692983Y32672325D01*
X55698026Y32702345D01*
X55705410Y32720226D01*
X55715582Y32730684D01*
X55725085Y32736376D01*
X55772256Y32748922D01*
X55829063Y32747417D01*
X55882662Y32734273D01*
X55920208Y32711902D01*
X55928921Y32698097D01*
X55931972Y32670391D01*
X55934216Y32612705D01*
X55935573Y32530777D01*
X55935965Y32430345D01*
X55935314Y32317145D01*
X55934767Y32271292D01*
X55929419Y31879752D01*
X55972242Y31834170D01*
X55989119Y31817256D01*
X56006871Y31805148D01*
X56031372Y31797044D01*
X56068500Y31792138D01*
X56124131Y31789629D01*
X56204140Y31788714D01*
X56305680Y31788587D01*
X56414050Y31788805D01*
X56492733Y31789966D01*
X56547768Y31792835D01*
X56585193Y31798174D01*
X56611045Y31806747D01*
X56631363Y31819318D01*
X56646413Y31831667D01*
X56696530Y31874747D01*
X56702221Y32300252D01*
X56704858Y32449924D01*
X56708384Y32566045D01*
X56712933Y32650779D01*
X56718635Y32706292D01*
X56725624Y32734748D01*
X56729014Y32739177D01*
X56765923Y32749897D01*
X56819011Y32752496D01*
X56872527Y32747605D01*
G37*
G36*
X64660295Y32752590D02*
G01*
X64780492Y32751639D01*
X64889237Y32749999D01*
X64981441Y32747665D01*
X65052015Y32744630D01*
X65095869Y32740888D01*
X65108220Y32737532D01*
X65103924Y32715979D01*
X65083621Y32673691D01*
X65051551Y32619362D01*
X65047517Y32613070D01*
X64977165Y32504221D01*
X64766524Y32499182D01*
X64555883Y32494143D01*
X64546218Y32011865D01*
X64543536Y31884522D01*
X64540866Y31769460D01*
X64538334Y31671336D01*
X64536069Y31594809D01*
X64534200Y31544537D01*
X64532854Y31525177D01*
X64532821Y31525121D01*
X64514489Y31522738D01*
X64470756Y31521118D01*
X64423854Y31520655D01*
X64364614Y31521839D01*
X64331581Y31527959D01*
X64315253Y31542869D01*
X64306690Y31568178D01*
X64303389Y31599162D01*
X64300630Y31660178D01*
X64298530Y31745532D01*
X64297208Y31849536D01*
X64296780Y31966497D01*
X64296983Y32037060D01*
X64297563Y32157052D01*
X64297989Y32265649D01*
X64298247Y32357574D01*
X64298326Y32427548D01*
X64298212Y32470296D01*
X64298043Y32480746D01*
X64288440Y32489619D01*
X64258161Y32495992D01*
X64203408Y32500162D01*
X64120384Y32502423D01*
X64011087Y32503074D01*
X63914592Y32503879D01*
X63832013Y32506102D01*
X63769328Y32509460D01*
X63732515Y32513666D01*
X63725293Y32516709D01*
X63736604Y32546743D01*
X63765458Y32592412D01*
X63804238Y32643993D01*
X63845324Y32691761D01*
X63865918Y32711466D01*
X64070628Y32711466D01*
X64073080Y32700847D01*
X64082536Y32699558D01*
X64097239Y32706093D01*
X64096009Y32708458D01*
X64915442Y32708458D01*
X64935728Y32705764D01*
X64975644Y32704911D01*
X65019742Y32706018D01*
X65036270Y32708902D01*
X65024765Y32712352D01*
X64967069Y32715342D01*
X64926523Y32712352D01*
X64915442Y32708458D01*
X64096009Y32708458D01*
X64094444Y32711466D01*
X64073246Y32713604D01*
X64070628Y32711466D01*
X63865918Y32711466D01*
X63881099Y32725992D01*
X63897184Y32736119D01*
X63925777Y32740464D01*
X63983634Y32744167D01*
X64065664Y32747223D01*
X64166779Y32749627D01*
X64281889Y32751371D01*
X64405904Y32752450D01*
X64533736Y32752858D01*
X64660295Y32752590D01*
G37*
G36*
X55107412Y32748206D02*
G01*
X55179900Y32746415D01*
X55225263Y32743836D01*
X55236298Y32742198D01*
X55265503Y32728362D01*
X55273466Y32704985D01*
X55259432Y32666526D01*
X55222644Y32607447D01*
X55216728Y32598801D01*
X55156967Y32512005D01*
X54792464Y32501357D01*
X54654429Y32496703D01*
X54547101Y32490978D01*
X54465463Y32482950D01*
X54404497Y32471387D01*
X54359186Y32455057D01*
X54324514Y32432729D01*
X54295463Y32403171D01*
X54273150Y32373843D01*
X54251335Y32336819D01*
X54237557Y32293481D01*
X54229496Y32233519D01*
X54225405Y32161811D01*
X54223704Y32079921D01*
X54227490Y32022034D01*
X54238375Y31976638D01*
X54257384Y31933367D01*
X54280557Y31890799D01*
X54304526Y31857511D01*
X54333804Y31832360D01*
X54372901Y31814204D01*
X54426329Y31801900D01*
X54498599Y31794305D01*
X54594224Y31790279D01*
X54717713Y31788677D01*
X54829934Y31788381D01*
X54949796Y31787666D01*
X55058352Y31785845D01*
X55150291Y31783103D01*
X55220301Y31779623D01*
X55263071Y31775590D01*
X55273428Y31772995D01*
X55282208Y31757799D01*
X55274207Y31728969D01*
X55247246Y31680362D01*
X55232035Y31656142D01*
X55196055Y31603594D01*
X55164921Y31564604D01*
X55145785Y31547879D01*
X55115715Y31543942D01*
X55056958Y31540378D01*
X54976548Y31537290D01*
X54881524Y31534779D01*
X54778919Y31532948D01*
X54675769Y31531898D01*
X54579112Y31531732D01*
X54495981Y31532552D01*
X54433414Y31534460D01*
X54401242Y31537076D01*
X54306954Y31561184D01*
X54226421Y31605836D01*
X54148677Y31677418D01*
X54135951Y31691585D01*
X54065367Y31788035D01*
X54018604Y31893259D01*
X53993038Y32015210D01*
X53985982Y32145831D01*
X53993199Y32296645D01*
X54016706Y32419054D01*
X54058673Y32517471D01*
X54121270Y32596306D01*
X54206670Y32659971D01*
X54250621Y32683623D01*
X54293776Y32704868D01*
X54501706Y32704868D01*
X54526277Y32702378D01*
X54551635Y32705185D01*
X54548605Y32711388D01*
X54512035Y32713747D01*
X54503950Y32711388D01*
X54501706Y32704868D01*
X54293776Y32704868D01*
X54371141Y32742955D01*
X54783625Y32748118D01*
X54903632Y32749131D01*
X55013442Y32749136D01*
X55107412Y32748206D01*
G37*
G36*
X61353139Y32749056D02*
G01*
X61358981Y32748994D01*
X61799803Y32744213D01*
X61716732Y32637040D01*
X61671233Y32583331D01*
X61628440Y32541278D01*
X61596861Y32519142D01*
X61594350Y32518251D01*
X61564795Y32514567D01*
X61505731Y32511179D01*
X61423373Y32508299D01*
X61323936Y32506140D01*
X61213635Y32504915D01*
X61202721Y32504855D01*
X60850401Y32503074D01*
X60822229Y32448595D01*
X60803675Y32387709D01*
X60818113Y32335129D01*
X60861880Y32289194D01*
X60883244Y32274910D01*
X60909189Y32264919D01*
X60946134Y32258456D01*
X61000496Y32254756D01*
X61078691Y32253056D01*
X61168946Y32252611D01*
X61278292Y32251664D01*
X61358926Y32248734D01*
X61417837Y32243128D01*
X61462015Y32234149D01*
X61498448Y32221101D01*
X61502192Y32219429D01*
X61592809Y32159892D01*
X61658386Y32077785D01*
X61695842Y31978714D01*
X61702096Y31868287D01*
X61700976Y31857587D01*
X61676031Y31742414D01*
X61630226Y31655057D01*
X61560948Y31592971D01*
X61465581Y31553612D01*
X61371572Y31537070D01*
X61300695Y31531428D01*
X61212307Y31527104D01*
X61112710Y31524101D01*
X61008203Y31522422D01*
X60905087Y31522071D01*
X60809661Y31523051D01*
X60728226Y31525365D01*
X60667081Y31529018D01*
X60632527Y31534012D01*
X60627348Y31536670D01*
X60632451Y31557690D01*
X60654966Y31598694D01*
X60690304Y31651524D01*
X60697706Y31661706D01*
X60777962Y31770725D01*
X61088177Y31770725D01*
X61201517Y31771017D01*
X61284886Y31772289D01*
X61344036Y31775137D01*
X61384718Y31780157D01*
X61412686Y31787946D01*
X61433689Y31799099D01*
X61445458Y31807746D01*
X61483127Y31857012D01*
X61493040Y31915966D01*
X61474585Y31972502D01*
X61454951Y31995699D01*
X61436837Y32008826D01*
X61412105Y32018290D01*
X61374852Y32024797D01*
X61319170Y32029050D01*
X61239154Y32031753D01*
X61137897Y32033489D01*
X61020004Y32035375D01*
X60931898Y32038073D01*
X60867646Y32042587D01*
X60821312Y32049920D01*
X60786959Y32061078D01*
X60758654Y32077063D01*
X60730460Y32098880D01*
X60725184Y32103298D01*
X60665668Y32166906D01*
X60624466Y32245981D01*
X60600269Y32329567D01*
X60594822Y32430609D01*
X60620311Y32528750D01*
X60672232Y32616598D01*
X60746081Y32686759D01*
X60837353Y32731841D01*
X60847085Y32734636D01*
X60890582Y32740925D01*
X60966354Y32745608D01*
X61070983Y32748588D01*
X61201050Y32749769D01*
X61353139Y32749056D01*
G37*
G36*
X58065178Y32751816D02*
G01*
X58188720Y32747383D01*
X58286350Y32739173D01*
X58362930Y32726514D01*
X58423326Y32708733D01*
X58472402Y32685157D01*
X58491495Y32672892D01*
X58559031Y32614427D01*
X58601070Y32546441D01*
X58621636Y32460340D01*
X58625408Y32386970D01*
X58622981Y32311731D01*
X58613615Y32259852D01*
X58594693Y32219229D01*
X58586557Y32207139D01*
X58556585Y32148386D01*
X58556752Y32100757D01*
X58571428Y32079365D01*
X58578267Y32078356D01*
X58573867Y32087779D01*
X58567623Y32107630D01*
X58570545Y32110106D01*
X58585226Y32095170D01*
X58606927Y32057581D01*
X58630220Y32008172D01*
X58649672Y31957775D01*
X58654161Y31943336D01*
X58659891Y31872810D01*
X58645202Y31790127D01*
X58613609Y31709651D01*
X58586403Y31666284D01*
X58556593Y31630883D01*
X58523954Y31602007D01*
X58484751Y31579066D01*
X58435248Y31561467D01*
X58371708Y31548619D01*
X58290395Y31539930D01*
X58187573Y31534808D01*
X58059507Y31532661D01*
X57902460Y31532899D01*
X57753754Y31534403D01*
X57364142Y31539220D01*
X57422124Y31641576D01*
X57454749Y31696218D01*
X57482843Y31738107D01*
X57499148Y31757055D01*
X57521868Y31760874D01*
X57574920Y31764280D01*
X57652912Y31767101D01*
X57750453Y31769163D01*
X57862150Y31770293D01*
X57916510Y31770452D01*
X58053210Y31770995D01*
X58158788Y31772600D01*
X58237840Y31775545D01*
X58294961Y31780111D01*
X58334745Y31786575D01*
X58361786Y31795218D01*
X58367271Y31797843D01*
X58415372Y31840494D01*
X58434666Y31898446D01*
X58422879Y31959595D01*
X58403133Y32002933D01*
X57928587Y32002933D01*
X57454040Y32002933D01*
X57459322Y32123503D01*
X57464604Y32244073D01*
X57908301Y32253004D01*
X58045426Y32255844D01*
X58151292Y32258471D01*
X58230360Y32261364D01*
X58287089Y32264999D01*
X58325937Y32269853D01*
X58351364Y32276402D01*
X58367831Y32285125D01*
X58379795Y32296496D01*
X58386114Y32304104D01*
X58416108Y32358737D01*
X58411729Y32410727D01*
X58386110Y32451974D01*
X58375150Y32464608D01*
X58362299Y32474511D01*
X58343278Y32482112D01*
X58313808Y32487840D01*
X58269607Y32492123D01*
X58206398Y32495388D01*
X58119899Y32498065D01*
X58005832Y32500581D01*
X57875381Y32503074D01*
X57398770Y32512005D01*
X57491877Y32632575D01*
X57552132Y32710602D01*
X57683139Y32710602D01*
X57688363Y32708721D01*
X57723939Y32707330D01*
X57787180Y32706583D01*
X57821847Y32706498D01*
X57897010Y32706892D01*
X57946593Y32708013D01*
X57967619Y32709707D01*
X57957109Y32711821D01*
X57943159Y32712764D01*
X57861861Y32715203D01*
X57769526Y32714811D01*
X57710951Y32712821D01*
X57683139Y32710602D01*
X57552132Y32710602D01*
X57584984Y32753144D01*
X57910858Y32753144D01*
X58065178Y32751816D01*
G37*
G36*
X55958195Y36128994D02*
G01*
X56019341Y36124121D01*
X56080286Y36112866D01*
X56137776Y36098582D01*
X56189250Y36086485D01*
X56189905Y36086338D01*
X56226257Y36068776D01*
X56245182Y36030055D01*
X56248307Y36015608D01*
X56272116Y35958004D01*
X56321509Y35908101D01*
X56398121Y35865342D01*
X56503586Y35829172D01*
X56639540Y35799034D01*
X56807619Y35774373D01*
X57009457Y35754633D01*
X57018049Y35753954D01*
X57124266Y35745314D01*
X57251534Y35734477D01*
X57385348Y35722703D01*
X57511203Y35711253D01*
X57536052Y35708934D01*
X57727599Y35691563D01*
X57887432Y35678771D01*
X58019297Y35670797D01*
X58126943Y35667882D01*
X58214114Y35670265D01*
X58284558Y35678186D01*
X58342020Y35691886D01*
X58390247Y35711603D01*
X58432987Y35737579D01*
X58472659Y35768908D01*
X58548652Y35834368D01*
X58818100Y35820740D01*
X58911985Y35815739D01*
X58992191Y35810988D01*
X59052443Y35806896D01*
X59086469Y35803872D01*
X59091699Y35802877D01*
X59091245Y35784782D01*
X59087175Y35739130D01*
X59080401Y35673804D01*
X59071836Y35596684D01*
X59062391Y35515650D01*
X59052981Y35438584D01*
X59044516Y35373365D01*
X59037909Y35327874D01*
X59034854Y35311900D01*
X59013845Y35296862D01*
X58968259Y35290364D01*
X58908265Y35292640D01*
X58844031Y35303928D01*
X58831926Y35307185D01*
X58751211Y35313672D01*
X58662755Y35294197D01*
X58577223Y35253416D01*
X58505284Y35195984D01*
X58468979Y35148795D01*
X58445756Y35116821D01*
X58417097Y35101218D01*
X58369912Y35096166D01*
X58349891Y35095834D01*
X58257028Y35083012D01*
X58181372Y35049633D01*
X58125181Y35000990D01*
X58090714Y34942375D01*
X58080231Y34879079D01*
X58095989Y34816395D01*
X58140248Y34759615D01*
X58191628Y34725049D01*
X58249122Y34704064D01*
X58336116Y34683834D01*
X58446383Y34665354D01*
X58573701Y34649618D01*
X58711844Y34637622D01*
X58756607Y34634776D01*
X58959018Y34623060D01*
X58949851Y34567814D01*
X58931281Y34455501D01*
X58917317Y34373611D01*
X58906315Y34317395D01*
X58896631Y34282103D01*
X58886620Y34262987D01*
X58874638Y34255295D01*
X58859041Y34254278D01*
X58841595Y34255118D01*
X58801334Y34259888D01*
X58736535Y34271529D01*
X58657286Y34288109D01*
X58598851Y34301564D01*
X58519280Y34320901D01*
X58451061Y34338013D01*
X58402696Y34350737D01*
X58384505Y34356120D01*
X58323759Y34378064D01*
X58247057Y34405830D01*
X58164156Y34435882D01*
X58084810Y34464679D01*
X58018775Y34488684D01*
X57975806Y34504357D01*
X57973675Y34505139D01*
X57789689Y34580619D01*
X57589507Y34677007D01*
X57381885Y34789642D01*
X57175578Y34913863D01*
X57045531Y34999158D01*
X56967002Y35052828D01*
X56899295Y35099698D01*
X56847782Y35136001D01*
X56817836Y35157971D01*
X56812635Y35162399D01*
X56794930Y35178569D01*
X56757632Y35209745D01*
X56714393Y35244704D01*
X56597848Y35344400D01*
X56469167Y35465949D01*
X56335889Y35601382D01*
X56205553Y35742733D01*
X56085696Y35882036D01*
X55983858Y36011323D01*
X55966287Y36035317D01*
X55898621Y36129094D01*
X55958195Y36128994D01*
G37*
G36*
X57744950Y44244517D02*
G01*
X57783846Y44218326D01*
X57791507Y44211967D01*
X57827284Y44176889D01*
X57847183Y44147719D01*
X57848640Y44141466D01*
X57859527Y44114224D01*
X57886410Y44075523D01*
X57893403Y44067139D01*
X57925883Y44024219D01*
X57947127Y43986677D01*
X57948686Y43982428D01*
X57953080Y43926810D01*
X57939843Y43864104D01*
X57913525Y43812733D01*
X57904316Y43802785D01*
X57878377Y43785466D01*
X57826139Y43755305D01*
X57753270Y43715409D01*
X57665442Y43668882D01*
X57569750Y43619556D01*
X57293613Y43473902D01*
X57044806Y43331064D01*
X56815773Y43186165D01*
X56598957Y43034328D01*
X56386802Y42870675D01*
X56302372Y42801494D01*
X56123042Y42649935D01*
X55971847Y42517078D01*
X55847358Y42401568D01*
X55748149Y42302050D01*
X55672790Y42217169D01*
X55635343Y42168391D01*
X55594787Y42111967D01*
X55537628Y42033374D01*
X55468611Y41939089D01*
X55392481Y41835586D01*
X55313982Y41729342D01*
X55285175Y41690482D01*
X55188501Y41558174D01*
X55112182Y41448881D01*
X55053481Y41358362D01*
X55009661Y41282376D01*
X54977984Y41216681D01*
X54975400Y41210564D01*
X54946292Y41141646D01*
X54920757Y41082762D01*
X54903097Y41043782D01*
X54899730Y41036966D01*
X54885604Y40993381D01*
X54883521Y40973556D01*
X54875297Y40936673D01*
X54867412Y40924192D01*
X54855221Y40900505D01*
X54835374Y40850416D01*
X54810503Y40781730D01*
X54783243Y40702256D01*
X54756227Y40619801D01*
X54732091Y40542171D01*
X54713467Y40477175D01*
X54704998Y40442807D01*
X54673343Y40294904D01*
X54648149Y40174540D01*
X54628112Y40074382D01*
X54611928Y39987100D01*
X54598290Y39905362D01*
X54585895Y39821836D01*
X54573438Y39729191D01*
X54562044Y39639537D01*
X54551076Y39565575D01*
X54538810Y39504034D01*
X54527272Y39464416D01*
X54523009Y39456450D01*
X54488465Y39440105D01*
X54427810Y39437187D01*
X54347979Y39447543D01*
X54288232Y39461556D01*
X54232491Y39479507D01*
X54189038Y39498317D01*
X54176593Y39506182D01*
X54158891Y39541534D01*
X54150949Y39607151D01*
X54152141Y39699116D01*
X54161845Y39813513D01*
X54179434Y39946425D01*
X54204286Y40093934D01*
X54235774Y40252124D01*
X54273275Y40417078D01*
X54316164Y40584879D01*
X54363817Y40751611D01*
X54387157Y40826843D01*
X54452694Y41016822D01*
X54531027Y41217882D01*
X54618267Y41421470D01*
X54710527Y41619033D01*
X54803919Y41802018D01*
X54894555Y41961870D01*
X54926139Y42012699D01*
X54958810Y42065247D01*
X54982028Y42105407D01*
X54990694Y42124270D01*
X55002145Y42148515D01*
X55034234Y42195114D01*
X55083559Y42259993D01*
X55146722Y42339077D01*
X55220323Y42428292D01*
X55300963Y42523562D01*
X55385241Y42620814D01*
X55469758Y42715973D01*
X55551115Y42804964D01*
X55614614Y42872061D01*
X55766565Y43024897D01*
X55915168Y43164200D01*
X56067463Y43295797D01*
X56230488Y43425515D01*
X56411284Y43559182D01*
X56616890Y43702624D01*
X56623313Y43707001D01*
X56822932Y43840716D01*
X56997898Y43952856D01*
X57150898Y44044841D01*
X57284621Y44118090D01*
X57401755Y44174020D01*
X57504987Y44214052D01*
X57597006Y44239603D01*
X57649681Y44248806D01*
X57706002Y44253178D01*
X57744950Y44244517D01*
G37*
G36*
X62805816Y40932411D02*
G01*
X62792256Y40894349D01*
X62769098Y40836451D01*
X62742224Y40773257D01*
X62718722Y40718405D01*
X62685138Y40638397D01*
X62644780Y40541197D01*
X62600957Y40434768D01*
X62564094Y40344565D01*
X62519337Y40236582D01*
X62475607Y40135812D01*
X62429919Y40036113D01*
X62379287Y39931342D01*
X62320725Y39815355D01*
X62251247Y39682010D01*
X62167868Y39525165D01*
X62145846Y39484069D01*
X62091471Y39382715D01*
X61930428Y39372298D01*
X61866451Y39369174D01*
X61778574Y39366349D01*
X61671503Y39363849D01*
X61549943Y39361701D01*
X61418597Y39359932D01*
X61282172Y39358570D01*
X61145372Y39357641D01*
X61012903Y39357172D01*
X60889469Y39357190D01*
X60779774Y39357721D01*
X60688525Y39358794D01*
X60620426Y39360434D01*
X60580182Y39362669D01*
X60571142Y39364517D01*
X60575430Y39384770D01*
X60593005Y39431221D01*
X60621277Y39498067D01*
X60656250Y39576370D01*
X60931455Y39576370D01*
X60935964Y39560691D01*
X60961295Y39553426D01*
X61004366Y39550083D01*
X61026176Y39552619D01*
X61050453Y39554542D01*
X61105152Y39556246D01*
X61184967Y39557650D01*
X61284596Y39558676D01*
X61398734Y39559243D01*
X61474459Y39559330D01*
X61897880Y39559205D01*
X61919147Y39605881D01*
X61931638Y39642296D01*
X61931254Y39661717D01*
X61907777Y39667889D01*
X61854696Y39673049D01*
X61778120Y39677079D01*
X61684160Y39679860D01*
X61578925Y39681275D01*
X61468523Y39681204D01*
X61359065Y39679530D01*
X61256659Y39676134D01*
X61236214Y39675171D01*
X60973489Y39662037D01*
X60947383Y39611553D01*
X60931455Y39576370D01*
X60656250Y39576370D01*
X60657651Y39579506D01*
X60699538Y39669735D01*
X60744345Y39762950D01*
X60752289Y39778860D01*
X61041547Y39778860D01*
X61045925Y39773002D01*
X61068124Y39769977D01*
X61121122Y39767346D01*
X61199994Y39765214D01*
X61299816Y39763683D01*
X61415662Y39762856D01*
X61531829Y39762806D01*
X61999233Y39764045D01*
X62042345Y39859056D01*
X62064445Y39910824D01*
X62077575Y39947704D01*
X62079250Y39959999D01*
X62058745Y39963503D01*
X62008532Y39966972D01*
X61934625Y39970291D01*
X61843039Y39973342D01*
X61739791Y39976011D01*
X61630894Y39978180D01*
X61522366Y39979734D01*
X61420220Y39980556D01*
X61330472Y39980532D01*
X61259137Y39979543D01*
X61212231Y39977475D01*
X61205726Y39976857D01*
X61102540Y39965183D01*
X61064983Y39874809D01*
X61043758Y39813622D01*
X61041547Y39778860D01*
X60752289Y39778860D01*
X60789479Y39853348D01*
X60789483Y39853355D01*
X60814480Y39902645D01*
X60852638Y39978297D01*
X60901147Y40074717D01*
X60925261Y40122730D01*
X61189617Y40122730D01*
X61190172Y40101053D01*
X61198239Y40094495D01*
X61223795Y40091548D01*
X61278322Y40089218D01*
X61356027Y40087489D01*
X61451121Y40086346D01*
X61557811Y40085773D01*
X61670308Y40085754D01*
X61782820Y40086276D01*
X61889557Y40087321D01*
X61984727Y40088876D01*
X62062539Y40090925D01*
X62117204Y40093451D01*
X62142929Y40096441D01*
X62144012Y40096998D01*
X62157359Y40116585D01*
X62183842Y40159837D01*
X62218979Y40219340D01*
X62241201Y40257758D01*
X62326950Y40407083D01*
X62262514Y40413248D01*
X62224936Y40414091D01*
X62158386Y40412850D01*
X62069534Y40409868D01*
X61965050Y40405482D01*
X61851605Y40400032D01*
X61735868Y40393859D01*
X61624509Y40387302D01*
X61524199Y40380700D01*
X61441608Y40374393D01*
X61383405Y40368721D01*
X61380052Y40368311D01*
X61294375Y40357604D01*
X61233783Y40230515D01*
X61203652Y40163962D01*
X61189617Y40122730D01*
X60925261Y40122730D01*
X60957194Y40186312D01*
X61017969Y40307490D01*
X61080661Y40432657D01*
X61082199Y40435731D01*
X61120656Y40512568D01*
X61385349Y40512568D01*
X61400357Y40508508D01*
X61434470Y40512886D01*
X61469981Y40517934D01*
X61532993Y40524506D01*
X61615353Y40531836D01*
X61708911Y40539161D01*
X61733661Y40540941D01*
X61840565Y40547712D01*
X61949857Y40553308D01*
X62049129Y40557171D01*
X62125973Y40558745D01*
X62129732Y40558754D01*
X62212779Y40561470D01*
X62294961Y40568477D01*
X62359621Y40578314D01*
X62364075Y40579303D01*
X62419691Y40595339D01*
X62453819Y40617937D01*
X62480427Y40658007D01*
X62490473Y40678023D01*
X62512550Y40724554D01*
X62526282Y40755591D01*
X62528528Y40762182D01*
X62526935Y40764099D01*
X62519342Y40765104D01*
X62501526Y40764960D01*
X62469265Y40763426D01*
X62418335Y40760266D01*
X62344515Y40755238D01*
X62243581Y40748106D01*
X62111311Y40738630D01*
X62108767Y40738447D01*
X61996786Y40730554D01*
X61877549Y40722397D01*
X61765424Y40714946D01*
X61675972Y40709245D01*
X61493247Y40698007D01*
X61439298Y40610328D01*
X61410101Y40561261D01*
X61390510Y40525246D01*
X61385349Y40512568D01*
X61120656Y40512568D01*
X61311096Y40893071D01*
X61433068Y40905802D01*
X61487940Y40910366D01*
X61571084Y40915798D01*
X61675070Y40921682D01*
X61792467Y40927606D01*
X61915846Y40933155D01*
X61948007Y40934486D01*
X62082143Y40940072D01*
X62222009Y40946141D01*
X62357425Y40952235D01*
X62478216Y40957894D01*
X62574203Y40962661D01*
X62579760Y40962951D01*
X62818545Y40975461D01*
X62805816Y40932411D01*
G37*
G36*
X60011301Y41993357D02*
G01*
X60020800Y41980424D01*
X60027946Y41970379D01*
X60045374Y41953395D01*
X60075313Y41927737D01*
X60119991Y41891667D01*
X60181633Y41843447D01*
X60262467Y41781342D01*
X60364721Y41703613D01*
X60490621Y41608524D01*
X60642395Y41494338D01*
X60686865Y41460935D01*
X60825883Y41354556D01*
X60959667Y41247644D01*
X61099554Y41131336D01*
X61152896Y41086471D01*
X61194836Y41051509D01*
X61218689Y41032011D01*
X61221598Y41029826D01*
X61216074Y41013813D01*
X61196445Y40973395D01*
X61166094Y40915318D01*
X61140703Y40868537D01*
X61095352Y40784019D01*
X61042453Y40682214D01*
X60989736Y40578127D01*
X60958205Y40514256D01*
X60862332Y40317174D01*
X60780918Y40149394D01*
X60712661Y40008158D01*
X60656260Y39890707D01*
X60610414Y39794282D01*
X60573822Y39716126D01*
X60545182Y39653480D01*
X60523193Y39603587D01*
X60506554Y39563686D01*
X60493964Y39531021D01*
X60492633Y39527371D01*
X60469181Y39466992D01*
X60450087Y39433278D01*
X60429351Y39418704D01*
X60403594Y39415732D01*
X60362723Y39427092D01*
X60299390Y39459601D01*
X60218037Y39510901D01*
X60196339Y39525737D01*
X60128834Y39574051D01*
X60041867Y39638544D01*
X59943753Y39712928D01*
X59842805Y39790915D01*
X59769271Y39848752D01*
X59663562Y39930849D01*
X59546247Y40018984D01*
X59428206Y40105165D01*
X59320323Y40181401D01*
X59265039Y40219017D01*
X59029187Y40376270D01*
X59042886Y40403380D01*
X59352272Y40403380D01*
X59358795Y40373117D01*
X59396017Y40342954D01*
X59407114Y40336304D01*
X59440538Y40314747D01*
X59496689Y40276262D01*
X59569520Y40225089D01*
X59652982Y40165470D01*
X59721482Y40115896D01*
X59855990Y40018142D01*
X59964668Y39939721D01*
X60050464Y39878803D01*
X60116329Y39833557D01*
X60165212Y39802154D01*
X60200062Y39782762D01*
X60223829Y39773552D01*
X60239463Y39772692D01*
X60249913Y39778352D01*
X60255296Y39784622D01*
X60273913Y39819602D01*
X60277895Y39837420D01*
X60264116Y39856577D01*
X60227129Y39889935D01*
X60173454Y39931890D01*
X60139463Y39956401D01*
X60071137Y40005709D01*
X59985635Y40069461D01*
X59893567Y40139648D01*
X59805543Y40208261D01*
X59800280Y40212424D01*
X59718173Y40275456D01*
X59636065Y40335066D01*
X59562617Y40385180D01*
X59506488Y40419723D01*
X59498844Y40423844D01*
X59443787Y40451718D01*
X59411153Y40464021D01*
X59391911Y40462115D01*
X59377031Y40447365D01*
X59373611Y40442758D01*
X59352272Y40403380D01*
X59042886Y40403380D01*
X59144066Y40603620D01*
X59477428Y40603620D01*
X59494587Y40592554D01*
X59533653Y40568941D01*
X59578631Y40542331D01*
X59626836Y40511320D01*
X59695329Y40463627D01*
X59776418Y40404779D01*
X59862408Y40340305D01*
X59900150Y40311319D01*
X60040846Y40203873D01*
X60155705Y40119393D01*
X60244495Y40058040D01*
X60306982Y40019974D01*
X60342934Y40005355D01*
X60345461Y40005184D01*
X60365075Y40020162D01*
X60391605Y40058904D01*
X60412508Y40098960D01*
X60436534Y40155419D01*
X60452467Y40202150D01*
X60456342Y40222396D01*
X60442230Y40240583D01*
X60402769Y40274134D01*
X60342435Y40320077D01*
X60265706Y40375444D01*
X60177058Y40437265D01*
X60080971Y40502568D01*
X59981920Y40568385D01*
X59884383Y40631745D01*
X59792839Y40689679D01*
X59711763Y40739217D01*
X59645633Y40777388D01*
X59598927Y40801223D01*
X59576123Y40807751D01*
X59575002Y40807007D01*
X59560240Y40782252D01*
X59538256Y40739879D01*
X59514093Y40690402D01*
X59492797Y40644334D01*
X59479410Y40612189D01*
X59477428Y40603620D01*
X59144066Y40603620D01*
X59221998Y40757851D01*
X59311710Y40933503D01*
X59364019Y41033875D01*
X59668642Y41033875D01*
X59709801Y41002058D01*
X59736972Y40982005D01*
X59788026Y40945182D01*
X59857641Y40895397D01*
X59940495Y40836453D01*
X60031266Y40772157D01*
X60035674Y40769042D01*
X60132284Y40699536D01*
X60226113Y40629805D01*
X60310336Y40565084D01*
X60378131Y40510606D01*
X60419710Y40474426D01*
X60468290Y40429832D01*
X60506592Y40396711D01*
X60527548Y40381127D01*
X60528989Y40380649D01*
X60540600Y40395487D01*
X60562607Y40435217D01*
X60590821Y40492123D01*
X60599125Y40509790D01*
X60627469Y40571891D01*
X60648996Y40621156D01*
X60659962Y40648956D01*
X60660619Y40651573D01*
X60647786Y40666358D01*
X60611593Y40698772D01*
X60556967Y40744622D01*
X60488834Y40799716D01*
X60456516Y40825278D01*
X60360809Y40900619D01*
X60250551Y40987620D01*
X60139142Y41075695D01*
X60039985Y41154261D01*
X60036756Y41156824D01*
X59961984Y41215637D01*
X59897129Y41265645D01*
X59847271Y41303009D01*
X59817489Y41323892D01*
X59811573Y41326965D01*
X59799955Y41311812D01*
X59777955Y41271224D01*
X59749421Y41212533D01*
X59734689Y41180429D01*
X59668642Y41033875D01*
X59364019Y41033875D01*
X59402007Y41106768D01*
X59490937Y41274138D01*
X59576547Y41432107D01*
X59602019Y41478101D01*
X59880921Y41478101D01*
X59886169Y41461435D01*
X59902820Y41439794D01*
X59934204Y41410096D01*
X59983652Y41369255D01*
X60054496Y41314186D01*
X60150067Y41241807D01*
X60175883Y41222397D01*
X60276445Y41146548D01*
X60376107Y41070839D01*
X60468165Y41000401D01*
X60545913Y40940369D01*
X60602645Y40895877D01*
X60608345Y40891327D01*
X60670597Y40842038D01*
X60712792Y40815428D01*
X60742974Y40813327D01*
X60769190Y40837561D01*
X60799484Y40889957D01*
X60825517Y40940653D01*
X60847650Y40990750D01*
X60857504Y41027853D01*
X60855351Y41040470D01*
X60834833Y41056587D01*
X60793567Y41087951D01*
X60739502Y41128533D01*
X60724449Y41139761D01*
X60657032Y41191376D01*
X60576154Y41255345D01*
X60495496Y41320791D01*
X60465447Y41345708D01*
X60388037Y41409205D01*
X60295991Y41482885D01*
X60203328Y41555594D01*
X60152948Y41594355D01*
X59983345Y41723546D01*
X59941187Y41627973D01*
X59915167Y41568157D01*
X59893187Y41516203D01*
X59883743Y41492877D01*
X59880921Y41478101D01*
X59602019Y41478101D01*
X59656884Y41577167D01*
X59729997Y41705813D01*
X59793933Y41814536D01*
X59846740Y41899830D01*
X59886464Y41958189D01*
X59899345Y41974488D01*
X59935057Y41998242D01*
X59977255Y42004770D01*
X60011301Y41993357D01*
G37*
G36*
X65326290Y38654909D02*
G01*
X65320237Y38558158D01*
X65312742Y38465513D01*
X65304761Y38387532D01*
X65297308Y38335071D01*
X65285492Y38272404D01*
X65270231Y38191380D01*
X65254679Y38108749D01*
X65253572Y38102863D01*
X65212267Y37895813D01*
X65169754Y37710671D01*
X65122522Y37533693D01*
X65067058Y37351138D01*
X65041133Y37271515D01*
X64935693Y36988424D01*
X64804379Y36694457D01*
X64651674Y36397576D01*
X64482060Y36105740D01*
X64300017Y35826910D01*
X64110029Y35569047D01*
X64020864Y35459263D01*
X63962157Y35392823D01*
X63883372Y35308657D01*
X63790048Y35212238D01*
X63687725Y35109037D01*
X63581944Y35004527D01*
X63478243Y34904180D01*
X63382163Y34813469D01*
X63299244Y34737865D01*
X63235025Y34682842D01*
X63234083Y34682080D01*
X63169770Y34629802D01*
X63112579Y34582641D01*
X63070450Y34547180D01*
X63055462Y34534034D01*
X63022004Y34507656D01*
X62964306Y34466552D01*
X62888517Y34414784D01*
X62800785Y34356409D01*
X62707257Y34295487D01*
X62614082Y34236076D01*
X62527407Y34182236D01*
X62473279Y34149672D01*
X62401797Y34109561D01*
X62306864Y34059305D01*
X62196372Y34002790D01*
X62078212Y33943906D01*
X61960276Y33886538D01*
X61850455Y33834575D01*
X61756642Y33791905D01*
X61689006Y33763309D01*
X61630442Y33740246D01*
X61578416Y33719751D01*
X61563971Y33714058D01*
X61498951Y33690901D01*
X61400739Y33659532D01*
X61270797Y33620415D01*
X61260314Y33617329D01*
X61197119Y33598444D01*
X61141437Y33581288D01*
X61117417Y33573569D01*
X61066060Y33558969D01*
X60985406Y33539235D01*
X60881286Y33515710D01*
X60759534Y33489740D01*
X60706587Y33478843D01*
X60621860Y33461580D01*
X60532984Y33443467D01*
X60465447Y33429701D01*
X60421191Y33424103D01*
X60348747Y33418961D01*
X60253177Y33414338D01*
X60139547Y33410295D01*
X60012920Y33406895D01*
X59878360Y33404198D01*
X59740930Y33402268D01*
X59605694Y33401166D01*
X59477717Y33400955D01*
X59362061Y33401696D01*
X59263792Y33403451D01*
X59187971Y33406283D01*
X59139665Y33410252D01*
X59125785Y33413298D01*
X59083027Y33424904D01*
X59029169Y33430671D01*
X59027543Y33430711D01*
X58974379Y33435805D01*
X58887937Y33449409D01*
X58769578Y33471277D01*
X58620660Y33501166D01*
X58527402Y33520684D01*
X58473021Y33533588D01*
X58397794Y33553210D01*
X58315099Y33576024D01*
X58286263Y33584285D01*
X58208577Y33606741D01*
X58138001Y33627055D01*
X58085760Y33641999D01*
X58071917Y33645917D01*
X58033576Y33657223D01*
X57989741Y33671420D01*
X57934408Y33690625D01*
X57861572Y33716956D01*
X57765229Y33752531D01*
X57687881Y33781343D01*
X57623786Y33806995D01*
X57541857Y33842245D01*
X57450721Y33883106D01*
X57359003Y33925588D01*
X57275329Y33965704D01*
X57208326Y33999466D01*
X57169878Y34020831D01*
X57137502Y34039677D01*
X57090177Y34066059D01*
X57076486Y34073532D01*
X57033394Y34098671D01*
X56970318Y34137614D01*
X56896965Y34184298D01*
X56846195Y34217355D01*
X56778738Y34260938D01*
X56722120Y34296055D01*
X56683014Y34318657D01*
X56668677Y34325015D01*
X56649335Y34338168D01*
X56648898Y34339129D01*
X56632054Y34356140D01*
X56594389Y34385944D01*
X56554055Y34415043D01*
X56503539Y34450177D01*
X56463847Y34477806D01*
X56446882Y34489636D01*
X56391836Y34531390D01*
X56317913Y34592024D01*
X56231907Y34665574D01*
X56140611Y34746075D01*
X56050819Y34827563D01*
X55969325Y34904074D01*
X55921089Y34951242D01*
X55778517Y35096488D01*
X55657562Y35225815D01*
X55552273Y35346024D01*
X55456698Y35463914D01*
X55364886Y35586288D01*
X55362655Y35589370D01*
X55224212Y35780782D01*
X55299471Y35814736D01*
X55357440Y35841645D01*
X55429089Y35875923D01*
X55481236Y35901435D01*
X55587742Y35954181D01*
X55633064Y35902376D01*
X55675370Y35851649D01*
X55718641Y35796398D01*
X55723042Y35790520D01*
X55755528Y35747867D01*
X55781098Y35716050D01*
X55785560Y35710946D01*
X55805583Y35687262D01*
X55839710Y35645284D01*
X55874165Y35602136D01*
X55907876Y35563149D01*
X55962038Y35504599D01*
X56031434Y35431767D01*
X56110848Y35349936D01*
X56195059Y35264386D01*
X56278851Y35180400D01*
X56357007Y35103259D01*
X56424307Y35038246D01*
X56475534Y34990641D01*
X56494672Y34974036D01*
X56525399Y34950351D01*
X56578979Y34910770D01*
X56649036Y34859936D01*
X56729194Y34802494D01*
X56770836Y34772910D01*
X56851325Y34715710D01*
X56922705Y34664632D01*
X56979318Y34623751D01*
X57015508Y34597141D01*
X57024663Y34590060D01*
X57050197Y34572830D01*
X57098836Y34543182D01*
X57162435Y34506008D01*
X57203285Y34482747D01*
X57272100Y34443753D01*
X57331088Y34409972D01*
X57371994Y34386151D01*
X57384224Y34378741D01*
X57425298Y34356096D01*
X57490497Y34324118D01*
X57570859Y34286942D01*
X57657418Y34248704D01*
X57741213Y34213537D01*
X57750398Y34209823D01*
X57820121Y34181547D01*
X57884156Y34155201D01*
X57928970Y34136354D01*
X57929919Y34135944D01*
X58051004Y34089169D01*
X58201524Y34040174D01*
X58375393Y33990566D01*
X58566529Y33941951D01*
X58768846Y33895935D01*
X58976260Y33854126D01*
X59045405Y33841416D01*
X59102733Y33834870D01*
X59189082Y33829776D01*
X59297777Y33826124D01*
X59422145Y33823902D01*
X59555512Y33823100D01*
X59691205Y33823707D01*
X59822549Y33825713D01*
X59942871Y33829108D01*
X60045497Y33833880D01*
X60123753Y33840018D01*
X60148873Y33843169D01*
X60232153Y33855129D01*
X60328042Y33868131D01*
X60402930Y33877743D01*
X60545519Y33899350D01*
X60704187Y33930177D01*
X60871490Y33968215D01*
X61039980Y34011454D01*
X61202212Y34057886D01*
X61350740Y34105499D01*
X61478117Y34152285D01*
X61569884Y34192701D01*
X61609872Y34210386D01*
X61635500Y34217841D01*
X61635631Y34217842D01*
X61658044Y34225496D01*
X61705930Y34246413D01*
X61772988Y34277524D01*
X61852916Y34315762D01*
X61939415Y34358059D01*
X62026183Y34401347D01*
X62106919Y34442558D01*
X62175324Y34478624D01*
X62207009Y34496057D01*
X62313211Y34558839D01*
X62436220Y34636299D01*
X62566750Y34722186D01*
X62695513Y34810251D01*
X62813223Y34894245D01*
X62910592Y34967918D01*
X62923610Y34978287D01*
X63210295Y35229190D01*
X63484435Y35509562D01*
X63742219Y35814234D01*
X63979835Y36138034D01*
X64193471Y36475791D01*
X64379316Y36822336D01*
X64524861Y37150467D01*
X64597902Y37346392D01*
X64666135Y37553064D01*
X64726563Y37760158D01*
X64776189Y37957346D01*
X64812015Y38134304D01*
X64814235Y38147519D01*
X64837836Y38291933D01*
X64855892Y38406189D01*
X64869077Y38495309D01*
X64878062Y38564316D01*
X64883521Y38618229D01*
X64886125Y38662072D01*
X64886607Y38687857D01*
X64889442Y38745762D01*
X64896382Y38790479D01*
X64901650Y38804911D01*
X64926780Y38820283D01*
X64983543Y38835901D01*
X65073169Y38852015D01*
X65196893Y38868877D01*
X65241876Y38874239D01*
X65338417Y38885436D01*
X65326290Y38654909D01*
G37*
G36*
X64312652Y37577507D02*
G01*
X64314611Y37575929D01*
X64314851Y37554585D01*
X64304974Y37509675D01*
X64287734Y37450962D01*
X64265879Y37388206D01*
X64251687Y37352652D01*
X64231943Y37302320D01*
X64209049Y37238899D01*
X64200699Y37214433D01*
X64180830Y37158050D01*
X64162862Y37112064D01*
X64156669Y37098329D01*
X64142955Y37070867D01*
X64116919Y37018686D01*
X64082179Y36949038D01*
X64042351Y36869176D01*
X64038495Y36861443D01*
X63994494Y36775961D01*
X63945909Y36686128D01*
X63896010Y36597471D01*
X63848064Y36515519D01*
X63805341Y36445800D01*
X63771108Y36393842D01*
X63748634Y36365174D01*
X63742809Y36361302D01*
X63727985Y36375018D01*
X63705219Y36408357D01*
X63703321Y36411537D01*
X63666301Y36462060D01*
X63615578Y36516027D01*
X63559389Y36566306D01*
X63505971Y36605761D01*
X63463562Y36627258D01*
X63451963Y36629234D01*
X63408291Y36621606D01*
X63378392Y36595643D01*
X63360187Y36546733D01*
X63351598Y36470262D01*
X63350187Y36403327D01*
X63357333Y36271926D01*
X63377557Y36152597D01*
X63409041Y36054014D01*
X63433164Y36007513D01*
X63443546Y35987824D01*
X63444635Y35968310D01*
X63433215Y35942817D01*
X63406069Y35905190D01*
X63359980Y35849276D01*
X63335136Y35819960D01*
X63241283Y35715284D01*
X63129463Y35599730D01*
X63008355Y35481610D01*
X62886633Y35369240D01*
X62772976Y35270933D01*
X62707149Y35218219D01*
X62661667Y35182725D01*
X62628684Y35155899D01*
X62617838Y35146106D01*
X62599357Y35131504D01*
X62559084Y35102778D01*
X62505086Y35065416D01*
X62445433Y35024902D01*
X62388193Y34986724D01*
X62341436Y34956366D01*
X62315521Y34940562D01*
X62273234Y34913235D01*
X62254305Y34898796D01*
X62233350Y34887254D01*
X62220742Y34902435D01*
X62213926Y34926287D01*
X62179450Y35015771D01*
X62120182Y35115732D01*
X62042274Y35218791D01*
X61951876Y35317572D01*
X61855139Y35404696D01*
X61758427Y35472659D01*
X61681264Y35514564D01*
X61624774Y35534604D01*
X61582035Y35533603D01*
X61546125Y35512383D01*
X61533072Y35499452D01*
X61487386Y35425227D01*
X61463249Y35330030D01*
X61459519Y35220484D01*
X61475053Y35103208D01*
X61508709Y34984824D01*
X61559344Y34871952D01*
X61625814Y34771212D01*
X61666678Y34725398D01*
X61707049Y34682666D01*
X61734559Y34649159D01*
X61742534Y34634548D01*
X61727120Y34621412D01*
X61686307Y34599886D01*
X61628150Y34574110D01*
X61613034Y34567962D01*
X61542620Y34539650D01*
X61478199Y34513496D01*
X61432774Y34494782D01*
X61430004Y34493619D01*
X61348961Y34461341D01*
X61261347Y34429490D01*
X61173938Y34400158D01*
X61093506Y34375438D01*
X61026827Y34357422D01*
X60980673Y34348204D01*
X60962312Y34349130D01*
X60968062Y34365775D01*
X60991118Y34398584D01*
X61000796Y34410455D01*
X61061528Y34507869D01*
X61089628Y34613690D01*
X61084354Y34722107D01*
X61052234Y34813634D01*
X61013881Y34878758D01*
X60975772Y34915663D01*
X60929725Y34930847D01*
X60902746Y34932329D01*
X60861589Y34928207D01*
X60826241Y34911620D01*
X60786005Y34876234D01*
X60758152Y34846721D01*
X60710069Y34792365D01*
X60666467Y34740004D01*
X60642901Y34709307D01*
X60606008Y34657499D01*
X60549992Y34777204D01*
X60504554Y34858270D01*
X60445428Y34942642D01*
X60399332Y34997166D01*
X60347087Y35047525D01*
X60279120Y35106088D01*
X60203139Y35166961D01*
X60126854Y35224255D01*
X60057970Y35272077D01*
X60004199Y35304537D01*
X59986341Y35312809D01*
X59947944Y35317101D01*
X59912168Y35296681D01*
X59875464Y35248180D01*
X59834392Y35168462D01*
X59772525Y34998567D01*
X59745648Y34833920D01*
X59753672Y34675338D01*
X59796506Y34523641D01*
X59874062Y34379648D01*
X59928864Y34307153D01*
X60025963Y34191049D01*
X59950979Y34178976D01*
X59901744Y34174322D01*
X59826450Y34171018D01*
X59734742Y34169117D01*
X59636261Y34168672D01*
X59540650Y34169735D01*
X59457552Y34172359D01*
X59402649Y34175981D01*
X59350346Y34180961D01*
X59280217Y34187580D01*
X59226422Y34192628D01*
X59112713Y34203267D01*
X59124033Y34268606D01*
X59136134Y34345257D01*
X59150607Y34447485D01*
X59166168Y34565330D01*
X59181534Y34688831D01*
X59195423Y34808028D01*
X59204914Y34896604D01*
X59211438Y34960065D01*
X59217688Y35018288D01*
X59224327Y35076518D01*
X59232021Y35140001D01*
X59241432Y35213984D01*
X59253224Y35303711D01*
X59268061Y35414429D01*
X59286607Y35551384D01*
X59303233Y35673609D01*
X59319965Y35800632D01*
X59338707Y35949722D01*
X59357817Y36107407D01*
X59372864Y36236286D01*
X59616974Y36236286D01*
X59620449Y36180212D01*
X59621271Y36171186D01*
X59640607Y36072908D01*
X59677829Y35970102D01*
X59726812Y35877270D01*
X59768952Y35821429D01*
X59798624Y35782778D01*
X59813178Y35750768D01*
X59813478Y35747425D01*
X59826212Y35719878D01*
X59857717Y35684582D01*
X59866611Y35676731D01*
X59942946Y35629759D01*
X60037747Y35596638D01*
X60139830Y35579082D01*
X60238011Y35578804D01*
X60321108Y35597520D01*
X60336834Y35604652D01*
X60377242Y35627217D01*
X60401525Y35644229D01*
X60402930Y35645785D01*
X60422668Y35661793D01*
X60461112Y35687371D01*
X60475606Y35696334D01*
X60536906Y35741955D01*
X60606012Y35806302D01*
X60674226Y35879863D01*
X60732849Y35953128D01*
X60773181Y36016584D01*
X60778300Y36027289D01*
X60811057Y36125556D01*
X60825476Y36234912D01*
X60821976Y36362492D01*
X60813025Y36431215D01*
X61669003Y36431215D01*
X61672923Y36335523D01*
X61674617Y36325874D01*
X61699908Y36247937D01*
X61749771Y36158897D01*
X61826021Y36055987D01*
X61929890Y35937076D01*
X62005749Y35861824D01*
X62065691Y35817655D01*
X62110584Y35804118D01*
X62141296Y35820761D01*
X62144491Y35825437D01*
X62167268Y35835574D01*
X62213536Y35842047D01*
X62248371Y35843299D01*
X62353806Y35850968D01*
X62437309Y35876589D01*
X62509803Y35924083D01*
X62533716Y35945749D01*
X62599395Y36017704D01*
X62664824Y36104018D01*
X62722021Y36193010D01*
X62763008Y36273002D01*
X62770596Y36292488D01*
X62787464Y36366517D01*
X62795335Y36460548D01*
X62794998Y36566400D01*
X62787241Y36675892D01*
X62772851Y36780843D01*
X62752617Y36873073D01*
X62727326Y36944400D01*
X62704320Y36980558D01*
X62661485Y37014211D01*
X62614882Y37023942D01*
X62559894Y37008584D01*
X62491910Y36966975D01*
X62418489Y36908420D01*
X62315422Y36815126D01*
X62236324Y36730007D01*
X62173705Y36644311D01*
X62133717Y36575648D01*
X62109022Y36529043D01*
X62092659Y36497711D01*
X62089035Y36490422D01*
X62073344Y36494700D01*
X62034480Y36510719D01*
X61990793Y36530437D01*
X61888757Y36566230D01*
X61803208Y36572683D01*
X61736498Y36551316D01*
X61690979Y36503653D01*
X61669003Y36431215D01*
X60813025Y36431215D01*
X60805533Y36488737D01*
X60788101Y36589861D01*
X60773173Y36661241D01*
X60758508Y36708539D01*
X60741864Y36737418D01*
X60720997Y36753543D01*
X60697463Y36761653D01*
X60646486Y36758234D01*
X60580232Y36730116D01*
X60503990Y36681805D01*
X60423051Y36617810D01*
X60342706Y36542641D01*
X60268247Y36460804D01*
X60204963Y36376809D01*
X60163846Y36306954D01*
X60103004Y36185338D01*
X60060949Y36230562D01*
X59999510Y36286639D01*
X59927862Y36337184D01*
X59857753Y36374765D01*
X59807055Y36391148D01*
X59766011Y36392841D01*
X59729848Y36378702D01*
X59685329Y36343227D01*
X59679871Y36338260D01*
X59641886Y36301628D01*
X59622520Y36272198D01*
X59616974Y36236286D01*
X59372864Y36236286D01*
X59375658Y36260217D01*
X59387329Y36364536D01*
X59427647Y36733944D01*
X59589304Y36730710D01*
X59721239Y36735198D01*
X59832357Y36756878D01*
X59934851Y36799283D01*
X60030577Y36858633D01*
X60070061Y36883801D01*
X60112608Y36904566D01*
X60162813Y36921802D01*
X60225274Y36936378D01*
X60304586Y36949167D01*
X60405346Y36961040D01*
X60532149Y36972870D01*
X60689592Y36985526D01*
X60706587Y36986824D01*
X60806569Y36995225D01*
X60903750Y37004777D01*
X60987423Y37014343D01*
X61046882Y37022785D01*
X61049768Y37023288D01*
X61109277Y37032363D01*
X61145734Y37031948D01*
X61170918Y37020486D01*
X61188200Y37005005D01*
X61242535Y36974852D01*
X61315753Y36969914D01*
X61402287Y36989358D01*
X61496571Y37032351D01*
X61537177Y37057252D01*
X61572810Y37077490D01*
X61616097Y37094324D01*
X61673775Y37109479D01*
X61752578Y37124682D01*
X61859243Y37141661D01*
X61876559Y37144244D01*
X61989563Y37161611D01*
X62108126Y37180850D01*
X62219349Y37199808D01*
X62310333Y37216330D01*
X62323113Y37218791D01*
X62479239Y37248466D01*
X62604145Y37270372D01*
X62701391Y37284902D01*
X62774537Y37292447D01*
X62827143Y37293401D01*
X62862768Y37288156D01*
X62880677Y37280264D01*
X62923762Y37265604D01*
X62991928Y37257123D01*
X63075077Y37254785D01*
X63163109Y37258555D01*
X63245926Y37268397D01*
X63305532Y37281766D01*
X63370134Y37306446D01*
X63445210Y37342500D01*
X63498711Y37372695D01*
X63551465Y37402242D01*
X63608728Y37427314D01*
X63677000Y37449847D01*
X63762778Y37471777D01*
X63872560Y37495038D01*
X63975363Y37514672D01*
X64078038Y37534124D01*
X64167697Y37551907D01*
X64237679Y37566650D01*
X64281318Y37576982D01*
X64288734Y37579167D01*
X64312652Y37577507D01*
G37*
G36*
X59916399Y43045739D02*
G01*
X59917507Y42871079D01*
X59918120Y42728782D01*
X59918106Y42615489D01*
X59917337Y42527837D01*
X59915681Y42462470D01*
X59913011Y42416025D01*
X59909195Y42385144D01*
X59904104Y42366466D01*
X59897608Y42356632D01*
X59889605Y42352291D01*
X59834910Y42329252D01*
X59803045Y42296105D01*
X59787876Y42262035D01*
X59769759Y42222212D01*
X59736931Y42160700D01*
X59693089Y42083536D01*
X59641928Y41996758D01*
X59587145Y41906401D01*
X59532435Y41818503D01*
X59481493Y41739101D01*
X59438016Y41674232D01*
X59405698Y41629933D01*
X59391109Y41613918D01*
X59364774Y41585200D01*
X59370058Y41563204D01*
X59373718Y41541690D01*
X59360013Y41498809D01*
X59327725Y41431233D01*
X59308687Y41395345D01*
X59265046Y41314753D01*
X59212258Y41217347D01*
X59158225Y41117707D01*
X59126398Y41059052D01*
X59082755Y40978609D01*
X59042037Y40903498D01*
X59009175Y40842815D01*
X58990889Y40808981D01*
X58960309Y40749060D01*
X58922626Y40670560D01*
X58882048Y40582793D01*
X58842781Y40495072D01*
X58809032Y40416708D01*
X58785009Y40357013D01*
X58778633Y40339151D01*
X58766499Y40284231D01*
X58765410Y40236198D01*
X58766676Y40229534D01*
X58783051Y40205336D01*
X58824303Y40167204D01*
X58891881Y40113990D01*
X58987239Y40044549D01*
X59103290Y39963598D01*
X59216778Y39885385D01*
X59337317Y39801999D01*
X59455849Y39719726D01*
X59563315Y39644856D01*
X59650655Y39583677D01*
X59653031Y39582005D01*
X59750117Y39515162D01*
X59855562Y39444995D01*
X59957533Y39379242D01*
X60044195Y39325639D01*
X60054930Y39319251D01*
X60131607Y39273498D01*
X60201878Y39230807D01*
X60257084Y39196485D01*
X60285064Y39178285D01*
X60312759Y39161989D01*
X60343358Y39152451D01*
X60385529Y39148741D01*
X60447939Y39149930D01*
X60515181Y39153595D01*
X60589090Y39157523D01*
X60646629Y39159480D01*
X60680635Y39159289D01*
X60686633Y39157810D01*
X60667488Y39143926D01*
X60624456Y39114928D01*
X60563794Y39074877D01*
X60491758Y39027833D01*
X60414603Y38977857D01*
X60338586Y38929011D01*
X60269961Y38885355D01*
X60214986Y38850950D01*
X60196565Y38839687D01*
X60150882Y38812896D01*
X60112489Y38794247D01*
X60072893Y38781807D01*
X60023597Y38773644D01*
X59956106Y38767826D01*
X59861927Y38762421D01*
X59855337Y38762072D01*
X59744297Y38757695D01*
X59665891Y38757955D01*
X59621191Y38762827D01*
X59610946Y38768030D01*
X59589000Y38775745D01*
X59537314Y38782084D01*
X59461863Y38786518D01*
X59380584Y38788423D01*
X59283154Y38790796D01*
X59187107Y38795596D01*
X59104528Y38802084D01*
X59054336Y38808313D01*
X58980790Y38817309D01*
X58890972Y38823825D01*
X58804319Y38826451D01*
X58804266Y38826451D01*
X58716406Y38828089D01*
X58660450Y38834757D01*
X58632613Y38849916D01*
X58629110Y38877028D01*
X58646155Y38919555D01*
X58664745Y38954043D01*
X58705089Y39014702D01*
X58758358Y39071230D01*
X58832990Y39132189D01*
X58859469Y39151655D01*
X58925948Y39197267D01*
X58986999Y39234870D01*
X59033522Y39259045D01*
X59049032Y39264529D01*
X59099445Y39283976D01*
X59146682Y39315059D01*
X59179638Y39349231D01*
X59188303Y39371708D01*
X59174002Y39393366D01*
X59135911Y39427461D01*
X59081250Y39468691D01*
X59017236Y39511752D01*
X58951090Y39551342D01*
X58923943Y39565899D01*
X58875470Y39583301D01*
X58834180Y39586124D01*
X58830033Y39585097D01*
X58797711Y39568269D01*
X58746029Y39534450D01*
X58682988Y39489615D01*
X58616588Y39439743D01*
X58554831Y39390810D01*
X58505718Y39348793D01*
X58481209Y39324522D01*
X58424902Y39248277D01*
X58368939Y39153046D01*
X58321967Y39054590D01*
X58299345Y38993092D01*
X58268974Y38894463D01*
X58161515Y38904957D01*
X58084260Y38910981D01*
X57993612Y38915893D01*
X57925750Y38918194D01*
X57859740Y38921118D01*
X57807199Y38926219D01*
X57778920Y38932427D01*
X57778212Y38932823D01*
X57772825Y38955433D01*
X57780903Y39001718D01*
X57799774Y39063480D01*
X57826764Y39132521D01*
X57859201Y39200645D01*
X57874531Y39228251D01*
X57933404Y39310111D01*
X58016660Y39400936D01*
X58116482Y39494219D01*
X58225054Y39583452D01*
X58334558Y39662128D01*
X58437176Y39723741D01*
X58508915Y39756319D01*
X58583146Y39785344D01*
X58624401Y39809900D01*
X58633541Y39835761D01*
X58611427Y39868699D01*
X58558920Y39914486D01*
X58535301Y39933217D01*
X58472109Y39981507D01*
X58411879Y40025211D01*
X58365883Y40056195D01*
X58359379Y40060153D01*
X58301604Y40094242D01*
X58199611Y40032825D01*
X58111231Y39974358D01*
X58012897Y39900686D01*
X57911919Y39818136D01*
X57815609Y39733033D01*
X57731279Y39651707D01*
X57666239Y39580482D01*
X57644558Y39552499D01*
X57579437Y39445524D01*
X57518578Y39316897D01*
X57467918Y39180651D01*
X57434455Y39056004D01*
X57413619Y38955278D01*
X57305145Y38964072D01*
X57196037Y38973685D01*
X57118019Y38982809D01*
X57066491Y38992559D01*
X57036857Y39004052D01*
X57024516Y39018405D01*
X57023944Y39032339D01*
X57035718Y39073022D01*
X57059943Y39137639D01*
X57093095Y39218169D01*
X57131653Y39306590D01*
X57172096Y39394882D01*
X57210900Y39475022D01*
X57244544Y39538990D01*
X57252385Y39552614D01*
X57301523Y39628536D01*
X57368199Y39721691D01*
X57445525Y39823241D01*
X57526611Y39924350D01*
X57604570Y40016181D01*
X57626197Y40039783D01*
X57749703Y40039783D01*
X57751582Y40014012D01*
X57769951Y39985454D01*
X57794331Y39961585D01*
X57809349Y39965830D01*
X57824654Y39991045D01*
X57842047Y40026633D01*
X57848007Y40045374D01*
X57834311Y40056404D01*
X57802470Y40058268D01*
X57768610Y40051881D01*
X57749703Y40039783D01*
X57626197Y40039783D01*
X57665861Y40083069D01*
X57727067Y40140807D01*
X57807878Y40209229D01*
X57899917Y40281992D01*
X57994805Y40352754D01*
X58084163Y40415173D01*
X58159612Y40462905D01*
X58188759Y40478905D01*
X58260602Y40512854D01*
X58340001Y40546884D01*
X58370730Y40558970D01*
X58411009Y40575296D01*
X58442047Y40593039D01*
X58469402Y40618325D01*
X58498633Y40657281D01*
X58535300Y40716034D01*
X58575812Y40784994D01*
X58617541Y40859007D01*
X58650546Y40922130D01*
X58671649Y40967937D01*
X58677670Y40990002D01*
X58677466Y40990459D01*
X58649442Y41003906D01*
X58594435Y41004287D01*
X58518113Y40993032D01*
X58426145Y40971568D01*
X58324199Y40941323D01*
X58217944Y40903726D01*
X58113050Y40860205D01*
X58058543Y40834532D01*
X57956150Y40781398D01*
X57864604Y40727397D01*
X57774233Y40666074D01*
X57675365Y40590975D01*
X57589639Y40521578D01*
X57509254Y40454830D01*
X57448563Y40402435D01*
X57399443Y40356331D01*
X57353773Y40308454D01*
X57303428Y40250741D01*
X57240287Y40175131D01*
X57238736Y40173257D01*
X57125012Y40032205D01*
X57033198Y39909596D01*
X56959131Y39799454D01*
X56898647Y39695799D01*
X56876372Y39652917D01*
X56849239Y39593535D01*
X56817239Y39515372D01*
X56782992Y39425848D01*
X56749117Y39332383D01*
X56718235Y39242396D01*
X56692964Y39163307D01*
X56675925Y39102536D01*
X56669737Y39067666D01*
X56665956Y39053095D01*
X56650948Y39045033D01*
X56619217Y39043408D01*
X56565267Y39048143D01*
X56483602Y39059165D01*
X56446460Y39064642D01*
X56381512Y39074731D01*
X56338381Y39086017D01*
X56315442Y39104242D01*
X56311070Y39135149D01*
X56323641Y39184482D01*
X56351530Y39257982D01*
X56375169Y39316638D01*
X56432516Y39451517D01*
X56494623Y39581668D01*
X56566283Y39716289D01*
X56652288Y39864581D01*
X56710664Y39960528D01*
X56771573Y40058004D01*
X56825887Y40141151D01*
X56878555Y40216443D01*
X56934526Y40290352D01*
X56998751Y40369349D01*
X57076178Y40459907D01*
X57171758Y40568498D01*
X57199340Y40599526D01*
X57385848Y40799024D01*
X57564743Y40968746D01*
X57740876Y41112396D01*
X57919094Y41233678D01*
X58104246Y41336297D01*
X58252362Y41403991D01*
X58326944Y41433227D01*
X58418289Y41465857D01*
X58519401Y41499731D01*
X58623284Y41532700D01*
X58722942Y41562614D01*
X58811378Y41587325D01*
X58881595Y41604682D01*
X58926597Y41612537D01*
X58931983Y41612779D01*
X58953146Y41627466D01*
X58980272Y41664732D01*
X58993511Y41688693D01*
X59023835Y41745812D01*
X59063258Y41815898D01*
X59094563Y41869214D01*
X59129454Y41932484D01*
X59139990Y41972529D01*
X59123205Y41994563D01*
X59076134Y42003799D01*
X59017055Y42005473D01*
X58939368Y41998906D01*
X58835354Y41980138D01*
X58711485Y41951132D01*
X58574229Y41913849D01*
X58430059Y41870251D01*
X58285444Y41822300D01*
X58146854Y41771959D01*
X58020760Y41721190D01*
X57913633Y41671954D01*
X57908246Y41669241D01*
X57692675Y41543924D01*
X57471369Y41383389D01*
X57244371Y41187674D01*
X57011727Y40956815D01*
X56923359Y40861542D01*
X56801386Y40724752D01*
X56698949Y40603567D01*
X56609395Y40489296D01*
X56526071Y40373247D01*
X56442323Y40246728D01*
X56393912Y40169920D01*
X56265307Y39952387D01*
X56160435Y39750254D01*
X56075802Y39555796D01*
X56007912Y39361290D01*
X55973820Y39241576D01*
X55958117Y39193468D01*
X55939107Y39171307D01*
X55908320Y39165693D01*
X55905441Y39165677D01*
X55854533Y39169709D01*
X55789020Y39180252D01*
X55718712Y39195011D01*
X55653420Y39211690D01*
X55602954Y39227995D01*
X55577126Y39241630D01*
X55576334Y39242666D01*
X55567274Y39260459D01*
X55564159Y39282026D01*
X55567830Y39315102D01*
X55579128Y39367418D01*
X55598238Y39444134D01*
X55659912Y39650801D01*
X55742968Y39875118D01*
X55843552Y40109449D01*
X55957810Y40346158D01*
X56081889Y40577609D01*
X56211934Y40796165D01*
X56344093Y40994191D01*
X56453163Y41138149D01*
X56521420Y41217876D01*
X56609230Y41314004D01*
X56709424Y41419224D01*
X56814832Y41526227D01*
X56918287Y41627702D01*
X57012619Y41716341D01*
X57071636Y41768770D01*
X57343116Y41981519D01*
X57640427Y42177422D01*
X57955813Y42351805D01*
X58281517Y42499989D01*
X58290729Y42503724D01*
X58363407Y42533092D01*
X58439580Y42563881D01*
X58469538Y42575992D01*
X58520417Y42593900D01*
X58595800Y42617131D01*
X58685451Y42642659D01*
X58777660Y42667082D01*
X58883210Y42692414D01*
X58972780Y42709562D01*
X59060092Y42720332D01*
X59158871Y42726528D01*
X59250820Y42729305D01*
X59342382Y42731412D01*
X59421268Y42733391D01*
X59480532Y42735057D01*
X59513227Y42736222D01*
X59516924Y42736457D01*
X59521882Y42753377D01*
X59523710Y42796636D01*
X59522877Y42857032D01*
X59519858Y42925360D01*
X59515123Y42992420D01*
X59509144Y43049007D01*
X59502395Y43085918D01*
X59498562Y43094463D01*
X59478184Y43097480D01*
X59428320Y43099507D01*
X59355194Y43100443D01*
X59265033Y43100186D01*
X59199983Y43099328D01*
X59081855Y43096531D01*
X58988952Y43091917D01*
X58910778Y43084248D01*
X58836840Y43072291D01*
X58756642Y43054809D01*
X58697093Y43040128D01*
X58348422Y42934619D01*
X58001517Y42796034D01*
X57660695Y42626930D01*
X57330273Y42429867D01*
X57014566Y42207400D01*
X56717892Y41962087D01*
X56464289Y41717188D01*
X56334568Y41579716D01*
X56226306Y41459566D01*
X56134301Y41350280D01*
X56053355Y41245397D01*
X55978267Y41138460D01*
X55903838Y41023009D01*
X55898490Y41014396D01*
X55726829Y40722875D01*
X55578393Y40440442D01*
X55454185Y40169509D01*
X55355206Y39912487D01*
X55282458Y39671789D01*
X55236943Y39449825D01*
X55231227Y39408136D01*
X55222569Y39351561D01*
X55208924Y39320517D01*
X55182235Y39310565D01*
X55134449Y39317269D01*
X55087115Y39328743D01*
X55036189Y39339554D01*
X55007046Y39337817D01*
X54987501Y39322044D01*
X54982897Y39316021D01*
X54960723Y39293804D01*
X54937772Y39301016D01*
X54927799Y39308873D01*
X54911902Y39341662D01*
X54903620Y39402802D01*
X54902572Y39485827D01*
X54908377Y39584270D01*
X54920655Y39691663D01*
X54939026Y39801541D01*
X54962980Y39906942D01*
X55027338Y40128584D01*
X55107417Y40367318D01*
X55198696Y40610799D01*
X55296654Y40846681D01*
X55352222Y40969741D01*
X55432023Y41122861D01*
X55534297Y41291009D01*
X55653677Y41466823D01*
X55784797Y41642942D01*
X55922290Y41812007D01*
X56060789Y41966655D01*
X56132604Y42040097D01*
X56263059Y42165061D01*
X56390981Y42278938D01*
X56523524Y42387384D01*
X56667841Y42496052D01*
X56831085Y42610596D01*
X56982325Y42711715D01*
X57154958Y42823619D01*
X57310763Y42920596D01*
X57456588Y43006161D01*
X57599283Y43083828D01*
X57745696Y43157110D01*
X57902676Y43229523D01*
X58077072Y43304580D01*
X58275732Y43385796D01*
X58366643Y43422030D01*
X58555326Y43495762D01*
X58717278Y43556199D01*
X58858343Y43604708D01*
X58984366Y43642663D01*
X59101191Y43671431D01*
X59214661Y43692384D01*
X59330620Y43706892D01*
X59454913Y43716325D01*
X59593384Y43722054D01*
X59652719Y43723586D01*
X59911720Y43729445D01*
X59916399Y43045739D01*
G37*
G36*
X62217319Y45604609D02*
G01*
X62541120Y45566992D01*
X62573183Y45561333D01*
X62651391Y45545713D01*
X62739569Y45525891D01*
X62830419Y45503781D01*
X62916645Y45481295D01*
X62990949Y45460347D01*
X63046034Y45442850D01*
X63074604Y45430717D01*
X63076158Y45429471D01*
X63063659Y45419751D01*
X63025211Y45397989D01*
X62967076Y45367589D01*
X62908029Y45338073D01*
X62664504Y45206795D01*
X62421677Y45053668D01*
X62187500Y44884576D01*
X61969924Y44705404D01*
X61776900Y44522038D01*
X61711987Y44452863D01*
X61613758Y44339358D01*
X61524235Y44224146D01*
X61439028Y44100559D01*
X61353745Y43961929D01*
X61263993Y43801587D01*
X61188491Y43657997D01*
X61150779Y43584918D01*
X61116985Y43519744D01*
X61091902Y43471706D01*
X61083164Y43455202D01*
X61071283Y43436398D01*
X61060302Y43433783D01*
X61046288Y43451817D01*
X61025310Y43494964D01*
X61002569Y43546652D01*
X60921343Y43708080D01*
X60827372Y43842992D01*
X60713595Y43960140D01*
X60592756Y44054592D01*
X60521276Y44100685D01*
X60439506Y44147140D01*
X60355756Y44189911D01*
X60278333Y44224954D01*
X60215545Y44248223D01*
X60179653Y44255732D01*
X60174003Y44238807D01*
X60169086Y44190595D01*
X60164933Y44115526D01*
X60161575Y44018029D01*
X60159043Y43902534D01*
X60157369Y43773472D01*
X60156585Y43635273D01*
X60156721Y43492367D01*
X60157809Y43349183D01*
X60159881Y43210151D01*
X60162968Y43079702D01*
X60167101Y42962266D01*
X60170051Y42900715D01*
X60177363Y42775386D01*
X60185984Y42643650D01*
X60195094Y42517083D01*
X60203876Y42407261D01*
X60208917Y42351401D01*
X60229844Y42134397D01*
X60436957Y42123926D01*
X60621813Y42114748D01*
X60774190Y42107636D01*
X60897270Y42102563D01*
X60994238Y42099502D01*
X61068277Y42098427D01*
X61122571Y42099310D01*
X61160302Y42102124D01*
X61184654Y42106843D01*
X61198811Y42113439D01*
X61203063Y42117435D01*
X61216091Y42142758D01*
X61237826Y42195496D01*
X61265761Y42269142D01*
X61297394Y42357190D01*
X61315507Y42409537D01*
X61354365Y42521501D01*
X61401214Y42653595D01*
X61451300Y42792575D01*
X61499869Y42925199D01*
X61522224Y42985324D01*
X61558236Y43083782D01*
X61588418Y43170608D01*
X61611007Y43240361D01*
X61624240Y43287601D01*
X61626401Y43306843D01*
X61605137Y43311808D01*
X61555115Y43317153D01*
X61483287Y43322303D01*
X61396609Y43326687D01*
X61374769Y43327547D01*
X61134861Y43336478D01*
X61172966Y43407449D01*
X61200545Y43459117D01*
X61237112Y43528022D01*
X61275036Y43599778D01*
X61277226Y43603933D01*
X61378224Y43790648D01*
X61470713Y43950010D01*
X61558969Y44088024D01*
X61647265Y44210695D01*
X61739875Y44324031D01*
X61841075Y44434035D01*
X61933476Y44525974D01*
X62065935Y44649006D01*
X62195601Y44758991D01*
X62332436Y44863735D01*
X62486401Y44971041D01*
X62582074Y45034030D01*
X62654897Y45079331D01*
X62737019Y45127398D01*
X62822566Y45175153D01*
X62905662Y45219521D01*
X62980431Y45257425D01*
X63040997Y45285788D01*
X63081486Y45301534D01*
X63095555Y45302901D01*
X63100657Y45283352D01*
X63109351Y45235001D01*
X63120551Y45164463D01*
X63133171Y45078354D01*
X63137388Y45048181D01*
X63150460Y44956560D01*
X63162655Y44876529D01*
X63172813Y44815330D01*
X63179772Y44780205D01*
X63181027Y44775929D01*
X63185025Y44750625D01*
X63190287Y44695851D01*
X63196327Y44617822D01*
X63202660Y44522749D01*
X63208217Y44427617D01*
X63212957Y44061991D01*
X63188875Y43686413D01*
X63137182Y43310277D01*
X63059089Y42942976D01*
X62981932Y42672719D01*
X62918069Y42473377D01*
X62578666Y42163647D01*
X62478843Y42072517D01*
X62380758Y41982910D01*
X62289703Y41899664D01*
X62210968Y41827619D01*
X62149843Y41771610D01*
X62121691Y41745756D01*
X62068565Y41693615D01*
X62031743Y41650859D01*
X62015906Y41623170D01*
X62016342Y41617818D01*
X62035192Y41602286D01*
X62079327Y41572216D01*
X62143235Y41531176D01*
X62221406Y41482737D01*
X62274081Y41450876D01*
X62363160Y41397190D01*
X62446226Y41346596D01*
X62516252Y41303412D01*
X62566214Y41271957D01*
X62581795Y41261762D01*
X62639532Y41228763D01*
X62675748Y41221759D01*
X62689227Y41240958D01*
X62689287Y41243324D01*
X62703318Y41263824D01*
X62740358Y41296255D01*
X62792829Y41334095D01*
X62800926Y41339421D01*
X62902696Y41406629D01*
X63023965Y41488371D01*
X63156493Y41578951D01*
X63292042Y41672671D01*
X63422370Y41763836D01*
X63539241Y41846749D01*
X63633739Y41915216D01*
X63724399Y41980623D01*
X63823791Y42050148D01*
X63918743Y42114682D01*
X63984294Y42157642D01*
X64064159Y42208715D01*
X64145185Y42260643D01*
X64215002Y42305494D01*
X64243190Y42323658D01*
X64341326Y42387006D01*
X64234259Y42411559D01*
X64067016Y42444532D01*
X63884973Y42469620D01*
X63681729Y42487505D01*
X63450886Y42498869D01*
X63401326Y42500406D01*
X63032705Y42510853D01*
X63090467Y42682526D01*
X63177971Y42984573D01*
X63245784Y43308528D01*
X63292793Y43645786D01*
X63317885Y43987742D01*
X63319949Y44325792D01*
X63315863Y44426070D01*
X63309939Y44531071D01*
X63303819Y44624752D01*
X63297982Y44700843D01*
X63292903Y44753076D01*
X63289417Y44774382D01*
X63283728Y44800590D01*
X63274503Y44854334D01*
X63262888Y44927733D01*
X63250033Y45012908D01*
X63237086Y45101979D01*
X63225195Y45187066D01*
X63215510Y45260289D01*
X63209178Y45313768D01*
X63207290Y45337898D01*
X63214002Y45357143D01*
X63236755Y45361305D01*
X63279472Y45349453D01*
X63346079Y45320656D01*
X63408636Y45290109D01*
X63647830Y45151377D01*
X63876938Y44981652D01*
X64091803Y44785171D01*
X64288268Y44566171D01*
X64462176Y44328888D01*
X64609371Y44077559D01*
X64621296Y44054138D01*
X64708319Y43853416D01*
X64780901Y43630106D01*
X64836449Y43395321D01*
X64872370Y43160175D01*
X64886072Y42935780D01*
X64886131Y42918944D01*
X64883774Y42842078D01*
X64877450Y42749475D01*
X64868063Y42648486D01*
X64856517Y42546465D01*
X64843716Y42450764D01*
X64830567Y42368735D01*
X64817971Y42307732D01*
X64806951Y42275293D01*
X64775389Y42257703D01*
X64716953Y42263011D01*
X64632147Y42291165D01*
X64624075Y42294470D01*
X64530816Y42333124D01*
X64364728Y42225549D01*
X64279974Y42171068D01*
X64190020Y42113915D01*
X64108712Y42062863D01*
X64073605Y42041122D01*
X64005482Y41997186D01*
X63921489Y41939991D01*
X63834039Y41878106D01*
X63778879Y41837677D01*
X63714934Y41791231D01*
X63627797Y41729753D01*
X63524125Y41657843D01*
X63410573Y41580099D01*
X63293798Y41501120D01*
X63226623Y41456163D01*
X63121861Y41385390D01*
X63026531Y41319152D01*
X62944869Y41260540D01*
X62881110Y41212645D01*
X62839487Y41178557D01*
X62824724Y41162842D01*
X62808829Y41136103D01*
X62788267Y41114515D01*
X62759054Y41097298D01*
X62717209Y41083672D01*
X62658748Y41072860D01*
X62579689Y41064081D01*
X62476048Y41056557D01*
X62343843Y41049508D01*
X62215749Y41043728D01*
X62080226Y41037703D01*
X61949460Y41031572D01*
X61829819Y41025659D01*
X61727669Y41020286D01*
X61649380Y41015775D01*
X61606047Y41012837D01*
X61537893Y41009865D01*
X61489005Y41012506D01*
X61467813Y41019955D01*
X61444568Y41034418D01*
X61401368Y41047502D01*
X61393655Y41049059D01*
X61335773Y41072332D01*
X61310561Y41103903D01*
X61289689Y41129931D01*
X61270439Y41148362D01*
X61501453Y41148362D01*
X61502270Y41131876D01*
X61508276Y41130500D01*
X61533527Y41143535D01*
X61537177Y41148362D01*
X61536361Y41164848D01*
X61530355Y41166225D01*
X61505103Y41153190D01*
X61501453Y41148362D01*
X61270439Y41148362D01*
X61245791Y41171961D01*
X61184639Y41224860D01*
X61126235Y41272009D01*
X61644350Y41272009D01*
X61760455Y41283160D01*
X61844139Y41291185D01*
X61938733Y41300237D01*
X62000977Y41306183D01*
X62125395Y41318053D01*
X61995837Y41406511D01*
X61866280Y41494970D01*
X61755315Y41383489D01*
X61644350Y41272009D01*
X61126235Y41272009D01*
X61112007Y41283495D01*
X61085640Y41303889D01*
X61011227Y41361383D01*
X60916159Y41435728D01*
X60807552Y41521306D01*
X60692526Y41612499D01*
X60578199Y41703689D01*
X60524496Y41746745D01*
X60424300Y41826586D01*
X60330077Y41900461D01*
X60287896Y41932933D01*
X60609188Y41932933D01*
X60625663Y41919595D01*
X60667341Y41889407D01*
X60729794Y41845474D01*
X60808594Y41790900D01*
X60899312Y41728789D01*
X60934180Y41705085D01*
X61035543Y41635629D01*
X61133426Y41567332D01*
X61221557Y41504662D01*
X61293662Y41452087D01*
X61343470Y41414077D01*
X61349625Y41409093D01*
X61399127Y41369287D01*
X61437260Y41340266D01*
X61456325Y41327869D01*
X61456798Y41327771D01*
X61472964Y41338770D01*
X61509249Y41368842D01*
X61559541Y41412813D01*
X61595229Y41444928D01*
X61650408Y41496469D01*
X61693883Y41539696D01*
X61719896Y41568738D01*
X61724730Y41577010D01*
X61710449Y41591207D01*
X61671209Y41620436D01*
X61612412Y41660907D01*
X61539461Y41708829D01*
X61509914Y41727721D01*
X61295098Y41864084D01*
X61058894Y41891517D01*
X60958767Y41903181D01*
X60860162Y41914727D01*
X60774354Y41924833D01*
X60712618Y41932174D01*
X60712045Y41932242D01*
X60656245Y41937273D01*
X60619228Y41937350D01*
X60609188Y41932933D01*
X60287896Y41932933D01*
X60246378Y41964894D01*
X60177756Y42016411D01*
X60134703Y42047278D01*
X61366149Y42047278D01*
X61368769Y42033048D01*
X61395818Y42007257D01*
X61449262Y41968426D01*
X61531064Y41915077D01*
X61593892Y41875906D01*
X61678427Y41824434D01*
X61753046Y41780168D01*
X61812167Y41746327D01*
X61850212Y41726130D01*
X61860992Y41721842D01*
X61880513Y41732783D01*
X61920752Y41764168D01*
X61976617Y41811738D01*
X62043018Y41871238D01*
X62075338Y41901104D01*
X62148105Y41968575D01*
X62240119Y42053264D01*
X62344077Y42148485D01*
X62452676Y42247552D01*
X62558612Y42343782D01*
X62586580Y42369105D01*
X62675371Y42450288D01*
X62754568Y42524326D01*
X62820503Y42587659D01*
X62869514Y42636726D01*
X62897935Y42667967D01*
X62903633Y42677115D01*
X62890094Y42702689D01*
X62853521Y42743660D01*
X62799983Y42794705D01*
X62735548Y42850500D01*
X62666284Y42905721D01*
X62598258Y42955046D01*
X62554931Y42983030D01*
X62474816Y43027401D01*
X62377850Y43074907D01*
X62270878Y43122835D01*
X62160744Y43168472D01*
X62054290Y43209105D01*
X61958361Y43242021D01*
X61879800Y43264507D01*
X61825452Y43273851D01*
X61821003Y43273960D01*
X61806276Y43263706D01*
X61785603Y43231470D01*
X61758004Y43175037D01*
X61722501Y43092196D01*
X61678113Y42980732D01*
X61623863Y42838434D01*
X61599715Y42773820D01*
X61559306Y42665379D01*
X61518811Y42557009D01*
X61481693Y42457957D01*
X61451415Y42377471D01*
X61437707Y42341238D01*
X61412626Y42266781D01*
X61394098Y42195732D01*
X61385560Y42141634D01*
X61385349Y42134930D01*
X61380645Y42085460D01*
X61369039Y42050946D01*
X61366149Y42047278D01*
X60134703Y42047278D01*
X60128761Y42051538D01*
X60107201Y42065270D01*
X60081083Y42086126D01*
X60152860Y42086126D01*
X60161791Y42077195D01*
X60170722Y42086126D01*
X60161791Y42095057D01*
X60152860Y42086126D01*
X60081083Y42086126D01*
X60060354Y42102679D01*
X60045160Y42150875D01*
X60046767Y42157575D01*
X60117135Y42157575D01*
X60126780Y42133804D01*
X60134997Y42130782D01*
X60150844Y42145249D01*
X60152860Y42157575D01*
X60143215Y42181345D01*
X60134997Y42184368D01*
X60119150Y42169900D01*
X60117135Y42157575D01*
X60046767Y42157575D01*
X60060419Y42214487D01*
X60065495Y42226162D01*
X60074900Y42263494D01*
X60075599Y42319898D01*
X60067589Y42402575D01*
X60065459Y42419020D01*
X60056046Y42503397D01*
X60045933Y42618009D01*
X60035442Y42757386D01*
X60024892Y42916054D01*
X60014603Y43088539D01*
X60004894Y43269369D01*
X59996086Y43453071D01*
X59988497Y43634171D01*
X59982448Y43807198D01*
X59980548Y43872343D01*
X59975526Y44026179D01*
X59969766Y44148322D01*
X59963341Y44237753D01*
X59956321Y44293449D01*
X59949207Y44314158D01*
X59908614Y44326303D01*
X59858902Y44324327D01*
X59820320Y44309357D01*
X59817473Y44306815D01*
X59794221Y44296580D01*
X59764362Y44314856D01*
X59763373Y44315747D01*
X59719148Y44337373D01*
X59656406Y44345689D01*
X59655778Y44345690D01*
X59607822Y44348431D01*
X59586086Y44359619D01*
X59581270Y44381414D01*
X59585948Y44402801D01*
X59605824Y44413492D01*
X59649660Y44416976D01*
X59671023Y44417139D01*
X59725858Y44419260D01*
X59756138Y44428755D01*
X59772933Y44450320D01*
X59778038Y44462542D01*
X59823522Y44552127D01*
X59894454Y44654104D01*
X59985494Y44762744D01*
X60091299Y44872323D01*
X60206530Y44977113D01*
X60325844Y45071388D01*
X60383184Y45111347D01*
X60663728Y45276640D01*
X60957586Y45409368D01*
X61262315Y45509031D01*
X61575475Y45575127D01*
X61894624Y45607153D01*
X62217319Y45604609D01*
G37*
D12*
G04 #@! TO.C,J5*
X37139132Y79271654D02*
X37139132Y71451654D01*
X37139132Y73051654D02*
X38059132Y73051654D01*
X37139132Y71451654D02*
X38059132Y71451654D01*
X37899132Y77011654D02*
X38899132Y77011654D01*
X37899132Y75411654D02*
X37899132Y77011654D01*
X38059132Y73051654D02*
X38339132Y73051654D01*
X38059132Y71451654D02*
X38059132Y73051654D01*
X38899132Y77011654D02*
X38899132Y75411654D01*
X38899132Y75411654D02*
X37899132Y75411654D01*
X39699132Y74911654D02*
X39699132Y79271654D01*
X44699132Y79271654D02*
X44699132Y74911654D01*
X44699132Y74911654D02*
X39699132Y74911654D01*
X45499132Y77011654D02*
X45499132Y79271654D01*
X45499132Y77011654D02*
X45499132Y75411654D01*
X45499132Y75411654D02*
X46499132Y75411654D01*
X45999132Y77011654D02*
X45999132Y79271654D01*
X46059132Y73051654D02*
X46059132Y71836654D01*
X46059132Y73051654D02*
X46339132Y73051654D01*
X46339132Y73051654D02*
X46339132Y71451654D01*
X46339132Y71451654D02*
X47259132Y71451654D01*
X46499132Y77011654D02*
X45499132Y77011654D01*
X46499132Y75411654D02*
X46499132Y77011654D01*
X47259132Y79271654D02*
X37139132Y79271654D01*
X47259132Y73051654D02*
X46339132Y73051654D01*
X47259132Y71451654D02*
X47259132Y79271654D01*
D14*
G04 #@! TO.C,U2*
X1269132Y64481654D02*
X29779132Y64481654D01*
X1269132Y13531654D02*
X1269132Y64481654D01*
X1269132Y13531654D02*
X1269132Y64481654D01*
X6719132Y64481654D02*
X1269132Y64481654D01*
X11999132Y13531654D02*
X1269132Y13531654D01*
X18710132Y13531654D02*
X11999132Y13531654D01*
X24409132Y64481654D02*
X6719132Y64481654D01*
X29779132Y64481654D02*
X24409132Y64481654D01*
X29779132Y64481654D02*
X29779132Y13531654D01*
X29779132Y64481654D02*
X29779132Y13531654D01*
X29779132Y13531654D02*
X1269132Y13531654D01*
X29779132Y13531654D02*
X18710132Y13531654D01*
D15*
X30449132Y23491654D02*
G75*
G02*
X30249132Y23491654I-100000J0D01*
G01*
X30249132Y23491654D02*
G75*
G02*
X30449132Y23491654I100000J0D01*
G01*
G04 #@! TD*
%LPC*%
D16*
G04 #@! TO.C,J7*
X37224132Y19311654D03*
D17*
X37224132Y16771654D03*
X37224132Y14231654D03*
X37224132Y11691654D03*
G04 #@! TD*
D18*
G04 #@! TO.C,H3*
X76499132Y4511654D03*
G04 #@! TD*
D19*
G04 #@! TO.C,R1*
X22259132Y53911654D03*
D20*
X24799132Y53911654D03*
G04 #@! TD*
D18*
G04 #@! TO.C,H1*
X4499132Y76511654D03*
G04 #@! TD*
D21*
G04 #@! TO.C,J8*
X56599132Y72911654D03*
D22*
X54599132Y72911654D03*
X52599132Y72911654D03*
X50599132Y72911654D03*
G04 #@! TD*
D16*
G04 #@! TO.C,J1*
X76499132Y54486654D03*
D17*
X76499132Y51946654D03*
X76499132Y49406654D03*
X76499132Y46866654D03*
X76499132Y44326654D03*
X76499132Y41786654D03*
X76499132Y39246654D03*
X76499132Y36706654D03*
X76499132Y34166654D03*
X76499132Y31626654D03*
X76499132Y29086654D03*
X76499132Y26546654D03*
G04 #@! TD*
D21*
G04 #@! TO.C,J6*
X67999132Y72911654D03*
D22*
X65999132Y72911654D03*
X63999132Y72911654D03*
X61999132Y72911654D03*
G04 #@! TD*
D21*
G04 #@! TO.C,J4*
X33799132Y72911654D03*
D22*
X31799132Y72911654D03*
X29799132Y72911654D03*
X27799132Y72911654D03*
G04 #@! TD*
D19*
G04 #@! TO.C,R2*
X22259132Y50811654D03*
D20*
X24799132Y50811654D03*
G04 #@! TD*
D18*
G04 #@! TO.C,H4*
X4499132Y4511654D03*
G04 #@! TD*
G04 #@! TO.C,H2*
X76499132Y76511654D03*
G04 #@! TD*
D21*
G04 #@! TO.C,J5*
X45199132Y72911654D03*
D22*
X43199132Y72911654D03*
X41199132Y72911654D03*
X39199132Y72911654D03*
G04 #@! TD*
D23*
G04 #@! TO.C,U2*
X27779132Y15531654D03*
X27779132Y62481654D03*
X3269132Y15531654D03*
X3269132Y62481654D03*
D24*
X28199132Y23491654D03*
D25*
X28199132Y26031654D03*
X28199132Y28571654D03*
X28199132Y31111654D03*
X28199132Y33651654D03*
X28199132Y36191654D03*
X28199132Y38731654D03*
X28199132Y41271654D03*
X28199132Y43811654D03*
X28199132Y46351654D03*
X28199132Y48891654D03*
X28199132Y51431654D03*
X28199132Y53971654D03*
X28199132Y56511654D03*
X28199132Y59051654D03*
X2799132Y59051654D03*
X2799132Y56511654D03*
X2799132Y53971654D03*
X2799132Y51431654D03*
X2799132Y48891654D03*
X2799132Y46351654D03*
X2799132Y43811654D03*
X2799132Y41271654D03*
X2799132Y38731654D03*
X2799132Y36191654D03*
X2799132Y33651654D03*
X2799132Y31111654D03*
X2799132Y28571654D03*
X2799132Y26031654D03*
X2799132Y23491654D03*
G04 #@! TD*
%LPD*%
M02*
