G04 #@! TF.GenerationSoftware,KiCad,Pcbnew,8.0.4*
G04 #@! TF.CreationDate,2025-01-30T11:26:39-05:00*
G04 #@! TF.ProjectId,Cubesat_pcb,43756265-7361-4745-9f70-63622e6b6963,rev?*
G04 #@! TF.SameCoordinates,Original*
G04 #@! TF.FileFunction,Copper,L2,Bot*
G04 #@! TF.FilePolarity,Positive*
%FSLAX46Y46*%
G04 Gerber Fmt 4.6, Leading zero omitted, Abs format (unit mm)*
G04 Created by KiCad (PCBNEW 8.0.4) date 2025-01-30 11:26:39*
%MOMM*%
%LPD*%
G01*
G04 APERTURE LIST*
G04 Aperture macros list*
%AMRoundRect*
0 Rectangle with rounded corners*
0 $1 Rounding radius*
0 $2 $3 $4 $5 $6 $7 $8 $9 X,Y pos of 4 corners*
0 Add a 4 corners polygon primitive as box body*
4,1,4,$2,$3,$4,$5,$6,$7,$8,$9,$2,$3,0*
0 Add four circle primitives for the rounded corners*
1,1,$1+$1,$2,$3*
1,1,$1+$1,$4,$5*
1,1,$1+$1,$6,$7*
1,1,$1+$1,$8,$9*
0 Add four rect primitives between the rounded corners*
20,1,$1+$1,$2,$3,$4,$5,0*
20,1,$1+$1,$4,$5,$6,$7,0*
20,1,$1+$1,$6,$7,$8,$9,0*
20,1,$1+$1,$8,$9,$2,$3,0*%
G04 Aperture macros list end*
G04 #@! TA.AperFunction,ComponentPad*
%ADD10R,1.700000X1.700000*%
G04 #@! TD*
G04 #@! TA.AperFunction,ComponentPad*
%ADD11O,1.700000X1.700000*%
G04 #@! TD*
G04 #@! TA.AperFunction,ComponentPad*
%ADD12C,1.400000*%
G04 #@! TD*
G04 #@! TA.AperFunction,ComponentPad*
%ADD13O,1.400000X1.400000*%
G04 #@! TD*
G04 #@! TA.AperFunction,ComponentPad*
%ADD14RoundRect,0.250000X0.350000X0.625000X-0.350000X0.625000X-0.350000X-0.625000X0.350000X-0.625000X0*%
G04 #@! TD*
G04 #@! TA.AperFunction,ComponentPad*
%ADD15O,1.200000X1.750000*%
G04 #@! TD*
G04 #@! TA.AperFunction,ComponentPad*
%ADD16R,2.000000X2.000000*%
G04 #@! TD*
G04 #@! TA.AperFunction,ComponentPad*
%ADD17C,2.000000*%
G04 #@! TD*
G04 #@! TA.AperFunction,SMDPad,CuDef*
%ADD18R,2.000000X0.800000*%
G04 #@! TD*
G04 #@! TA.AperFunction,SMDPad,CuDef*
%ADD19R,1.000000X1.050000*%
G04 #@! TD*
G04 #@! TA.AperFunction,SMDPad,CuDef*
%ADD20R,1.050000X2.200000*%
G04 #@! TD*
G04 #@! TA.AperFunction,ViaPad*
%ADD21C,0.800000*%
G04 #@! TD*
G04 #@! TA.AperFunction,Conductor*
%ADD22C,0.406000*%
G04 #@! TD*
G04 #@! TA.AperFunction,Conductor*
%ADD23C,0.508000*%
G04 #@! TD*
G04 APERTURE END LIST*
D10*
G04 #@! TO.P,J7,1,Pin_1*
G04 #@! TO.N,3.3V*
X37224132Y19311654D03*
D11*
G04 #@! TO.P,J7,2,Pin_2*
G04 #@! TO.N,GND*
X37224132Y16771654D03*
G04 #@! TO.P,J7,3,Pin_3*
G04 #@! TO.N,RX_GPS*
X37224132Y14231654D03*
G04 #@! TO.P,J7,4,Pin_4*
G04 #@! TO.N,TX_GPS*
X37224132Y11691654D03*
G04 #@! TD*
D12*
G04 #@! TO.P,R1,1*
G04 #@! TO.N,3.3V*
X22259132Y53911654D03*
D13*
G04 #@! TO.P,R1,2*
G04 #@! TO.N,SCL*
X24799132Y53911654D03*
G04 #@! TD*
D14*
G04 #@! TO.P,J8,1,Pin_1*
G04 #@! TO.N,3.3V*
X56599132Y72911654D03*
D15*
G04 #@! TO.P,J8,2,Pin_2*
G04 #@! TO.N,GND*
X54599132Y72911654D03*
G04 #@! TO.P,J8,3,Pin_3*
G04 #@! TO.N,SDA*
X52599132Y72911654D03*
G04 #@! TO.P,J8,4,Pin_4*
G04 #@! TO.N,SCL*
X50599132Y72911654D03*
G04 #@! TD*
D10*
G04 #@! TO.P,J1,1,Pin_1*
G04 #@! TO.N,5V*
X76499132Y54486654D03*
D11*
G04 #@! TO.P,J1,2,Pin_2*
G04 #@! TO.N,3.3V*
X76499132Y51946654D03*
G04 #@! TO.P,J1,3,Pin_3*
G04 #@! TO.N,SDA*
X76499132Y49406654D03*
G04 #@! TO.P,J1,4,Pin_4*
G04 #@! TO.N,SCL*
X76499132Y46866654D03*
G04 #@! TO.P,J1,5,Pin_5*
G04 #@! TO.N,GND*
X76499132Y44326654D03*
G04 #@! TO.P,J1,6,Pin_6*
X76499132Y41786654D03*
G04 #@! TO.P,J1,7,Pin_7*
G04 #@! TO.N,Motor 1*
X76499132Y39246654D03*
G04 #@! TO.P,J1,8,Pin_8*
G04 #@! TO.N,Motor 2*
X76499132Y36706654D03*
G04 #@! TO.P,J1,9,Pin_9*
G04 #@! TO.N,Motor 3*
X76499132Y34166654D03*
G04 #@! TO.P,J1,10,Pin_10*
G04 #@! TO.N,Motor 4*
X76499132Y31626654D03*
G04 #@! TO.P,J1,11,Pin_11*
G04 #@! TO.N,Motor 5*
X76499132Y29086654D03*
G04 #@! TO.P,J1,12,Pin_12*
G04 #@! TO.N,Motor 6*
X76499132Y26546654D03*
G04 #@! TD*
D14*
G04 #@! TO.P,J6,1,Pin_1*
G04 #@! TO.N,3.3V*
X67999132Y72911654D03*
D15*
G04 #@! TO.P,J6,2,Pin_2*
G04 #@! TO.N,GND*
X65999132Y72911654D03*
G04 #@! TO.P,J6,3,Pin_3*
G04 #@! TO.N,UV_OUT*
X63999132Y72911654D03*
G04 #@! TO.P,J6,4,Pin_4*
G04 #@! TO.N,3.3V*
X61999132Y72911654D03*
G04 #@! TD*
D14*
G04 #@! TO.P,J4,1,Pin_1*
G04 #@! TO.N,TX_CO*
X33799132Y72911654D03*
D15*
G04 #@! TO.P,J4,2,Pin_2*
G04 #@! TO.N,RX_CO*
X31799132Y72911654D03*
G04 #@! TO.P,J4,3,Pin_3*
G04 #@! TO.N,5V*
X29799132Y72911654D03*
G04 #@! TO.P,J4,4,Pin_4*
G04 #@! TO.N,GND*
X27799132Y72911654D03*
G04 #@! TD*
D12*
G04 #@! TO.P,R2,1*
G04 #@! TO.N,3.3V*
X22259132Y50811654D03*
D13*
G04 #@! TO.P,R2,2*
G04 #@! TO.N,SDA*
X24799132Y50811654D03*
G04 #@! TD*
D14*
G04 #@! TO.P,J5,1,Pin_1*
G04 #@! TO.N,SDA*
X45199132Y72911654D03*
D15*
G04 #@! TO.P,J5,2,Pin_2*
G04 #@! TO.N,SCL*
X43199132Y72911654D03*
G04 #@! TO.P,J5,3,Pin_3*
G04 #@! TO.N,GND*
X41199132Y72911654D03*
G04 #@! TO.P,J5,4,Pin_4*
G04 #@! TO.N,3.3V*
X39199132Y72911654D03*
G04 #@! TD*
D16*
G04 #@! TO.P,U2,1,3V3*
G04 #@! TO.N,3.3V*
X28199132Y23491654D03*
D17*
G04 #@! TO.P,U2,2,GND*
G04 #@! TO.N,GND*
X28199132Y26031654D03*
G04 #@! TO.P,U2,3,D15*
G04 #@! TO.N,SS*
X28199132Y28571654D03*
G04 #@! TO.P,U2,4,D2*
G04 #@! TO.N,Motor 5*
X28199132Y31111654D03*
G04 #@! TO.P,U2,5,D4*
G04 #@! TO.N,Motor 4*
X28199132Y33651654D03*
G04 #@! TO.P,U2,6,RX2*
G04 #@! TO.N,TX_GPS*
X28199132Y36191654D03*
G04 #@! TO.P,U2,7,TX2*
G04 #@! TO.N,RX_GPS*
X28199132Y38731654D03*
G04 #@! TO.P,U2,8,D5*
G04 #@! TO.N,Motor 3*
X28199132Y41271654D03*
G04 #@! TO.P,U2,9,D18*
G04 #@! TO.N,Motor 2*
X28199132Y43811654D03*
G04 #@! TO.P,U2,10,D19*
G04 #@! TO.N,Motor 1*
X28199132Y46351654D03*
G04 #@! TO.P,U2,11,D21*
G04 #@! TO.N,SDA*
X28199132Y48891654D03*
G04 #@! TO.P,U2,12,RX0*
G04 #@! TO.N,TX_CO*
X28199132Y51431654D03*
G04 #@! TO.P,U2,13,TX0*
G04 #@! TO.N,RX_CO*
X28199132Y53971654D03*
G04 #@! TO.P,U2,14,D22*
G04 #@! TO.N,SCL*
X28199132Y56511654D03*
G04 #@! TO.P,U2,15,D23*
G04 #@! TO.N,unconnected-(U2-D23-Pad15)*
X28199132Y59051654D03*
G04 #@! TO.P,U2,16,EN*
G04 #@! TO.N,unconnected-(U2-EN-Pad16)*
X2799132Y59051654D03*
G04 #@! TO.P,U2,17,VP*
G04 #@! TO.N,unconnected-(U2-VP-Pad17)*
X2799132Y56511654D03*
G04 #@! TO.P,U2,18,VN*
G04 #@! TO.N,unconnected-(U2-VN-Pad18)*
X2799132Y53971654D03*
G04 #@! TO.P,U2,19,D34*
G04 #@! TO.N,unconnected-(U2-D34-Pad19)*
X2799132Y51431654D03*
G04 #@! TO.P,U2,20,D35*
G04 #@! TO.N,unconnected-(U2-D35-Pad20)*
X2799132Y48891654D03*
G04 #@! TO.P,U2,21,D32*
G04 #@! TO.N,UV_OUT*
X2799132Y46351654D03*
G04 #@! TO.P,U2,22,D33*
G04 #@! TO.N,unconnected-(U2-D33-Pad22)*
X2799132Y43811654D03*
G04 #@! TO.P,U2,23,D25*
G04 #@! TO.N,Motor 6*
X2799132Y41271654D03*
G04 #@! TO.P,U2,24,D26*
G04 #@! TO.N,DIO0*
X2799132Y38731654D03*
G04 #@! TO.P,U2,25,D27*
G04 #@! TO.N,RESET*
X2799132Y36191654D03*
G04 #@! TO.P,U2,26,D14*
G04 #@! TO.N,SCK*
X2799132Y33651654D03*
G04 #@! TO.P,U2,27,D12*
G04 #@! TO.N,MISO*
X2799132Y31111654D03*
G04 #@! TO.P,U2,28,D13*
G04 #@! TO.N,MOSI*
X2799132Y28571654D03*
G04 #@! TO.P,U2,29,GND*
G04 #@! TO.N,GND*
X2799132Y26031654D03*
G04 #@! TO.P,U2,30,VIN*
G04 #@! TO.N,unconnected-(U2-VIN-Pad30)*
X2799132Y23491654D03*
G04 #@! TD*
D18*
G04 #@! TO.P,U1,1,GND*
G04 #@! TO.N,GND*
X7399132Y24611654D03*
G04 #@! TO.P,U1,2,MISO*
G04 #@! TO.N,MISO*
X7399132Y26611654D03*
G04 #@! TO.P,U1,3,MOSI*
G04 #@! TO.N,MOSI*
X7399132Y28611654D03*
G04 #@! TO.P,U1,4,SCK*
G04 #@! TO.N,SCK*
X7399132Y30611654D03*
G04 #@! TO.P,U1,5,NSS*
G04 #@! TO.N,SS*
X7399132Y32611654D03*
G04 #@! TO.P,U1,6,RESET*
G04 #@! TO.N,RESET*
X7399132Y34611654D03*
G04 #@! TO.P,U1,7,DIO5*
G04 #@! TO.N,unconnected-(U1-DIO5-Pad7)*
X7399132Y36611654D03*
G04 #@! TO.P,U1,8,GND*
G04 #@! TO.N,GND*
X7399132Y38611654D03*
G04 #@! TO.P,U1,9,ANT*
G04 #@! TO.N,Net-(U1-ANT)*
X23599132Y38611654D03*
G04 #@! TO.P,U1,10,GND*
G04 #@! TO.N,GND*
X23599132Y36611654D03*
G04 #@! TO.P,U1,11,DIO3*
G04 #@! TO.N,unconnected-(U1-DIO3-Pad11)*
X23599132Y34611654D03*
G04 #@! TO.P,U1,12,DIO4*
G04 #@! TO.N,unconnected-(U1-DIO4-Pad12)*
X23599132Y32611654D03*
G04 #@! TO.P,U1,13,3.3V*
G04 #@! TO.N,3.3V*
X23599132Y30611654D03*
G04 #@! TO.P,U1,14,DIO0*
G04 #@! TO.N,DIO0*
X23599132Y28611654D03*
G04 #@! TO.P,U1,15,DIO1*
G04 #@! TO.N,unconnected-(U1-DIO1-Pad15)*
X23599132Y26611654D03*
G04 #@! TO.P,U1,16,DIO2*
G04 #@! TO.N,unconnected-(U1-DIO2-Pad16)*
X23599132Y24611654D03*
G04 #@! TD*
D19*
G04 #@! TO.P,J2,1*
G04 #@! TO.N,Net-(U1-ANT)*
X14199132Y74086654D03*
D20*
G04 #@! TO.P,J2,2*
G04 #@! TO.N,GND*
X12724132Y75611654D03*
G04 #@! TO.P,J2,3*
X15674132Y75611654D03*
G04 #@! TD*
D21*
G04 #@! TO.N,SCL*
X42299132Y57911654D03*
X34799132Y66311654D03*
X30599132Y66311654D03*
X42299132Y63111654D03*
G04 #@! TO.N,GND*
X5199132Y26611654D03*
X5199132Y22611654D03*
X5199132Y19611654D03*
X5199132Y38211654D03*
X54599132Y66711654D03*
X41199132Y67511654D03*
X46799132Y67511654D03*
X59999132Y66711654D03*
G04 #@! TO.N,Motor 5*
X32299132Y28811654D03*
X35699132Y28811654D03*
G04 #@! TO.N,Motor 4*
X35699132Y31011654D03*
X32299132Y31011654D03*
G04 #@! TO.N,5V*
X58099132Y68711654D03*
X29799132Y68711654D03*
G04 #@! TO.N,3.3V*
X31299132Y23511654D03*
X20799132Y21711654D03*
X20799132Y40511654D03*
X37199132Y23511654D03*
G04 #@! TO.N,Motor 6*
X18299132Y41211654D03*
X18299132Y21111654D03*
G04 #@! TD*
D22*
G04 #@! TO.N,RESET*
X5199132Y34611654D02*
X7399132Y34611654D01*
X3619132Y36191654D02*
X5199132Y34611654D01*
X2799132Y36191654D02*
X3619132Y36191654D01*
G04 #@! TO.N,SCL*
X43199132Y72911654D02*
X43199132Y73511654D01*
X30599132Y58111654D02*
X30599132Y66311654D01*
D23*
X76499132Y46866654D02*
X75171632Y46866654D01*
X42299132Y65811654D02*
X42299132Y66311654D01*
X73906632Y48131654D02*
X52079132Y48131654D01*
D22*
X43199132Y73511654D02*
X44599132Y74911654D01*
X27999132Y56711654D02*
X27899132Y56711654D01*
X42299132Y66311654D02*
X43199132Y67211654D01*
X44599132Y74911654D02*
X49299132Y74911654D01*
X28999132Y56511654D02*
X30599132Y58111654D01*
D23*
X52079132Y48131654D02*
X42299132Y57911654D01*
D22*
X50599132Y73611654D02*
X50599132Y72911654D01*
X28199132Y56511654D02*
X27999132Y56711654D01*
X41799132Y66311654D02*
X42299132Y65811654D01*
X34799132Y66311654D02*
X41799132Y66311654D01*
X41799132Y66311654D02*
X42299132Y66311654D01*
X28199132Y56511654D02*
X28999132Y56511654D01*
X43199132Y67211654D02*
X43199132Y72911654D01*
X27399132Y56511654D02*
X24799132Y53911654D01*
D23*
X42299132Y63111654D02*
X42299132Y65811654D01*
D22*
X49299132Y74911654D02*
X50599132Y73611654D01*
X28199132Y56511654D02*
X27399132Y56511654D01*
D23*
X75171632Y46866654D02*
X73906632Y48131654D01*
D22*
G04 #@! TO.N,SDA*
X48299132Y71011654D02*
X51099132Y71011654D01*
D23*
X73839132Y50671654D02*
X58739132Y50671654D01*
D22*
X52599132Y72511654D02*
X52599132Y72911654D01*
D23*
X75104132Y49406654D02*
X73839132Y50671654D01*
D22*
X46399132Y72911654D02*
X48299132Y71011654D01*
D23*
X58739132Y50671654D02*
X45199132Y64211654D01*
D22*
X45199132Y64211654D02*
X45199132Y72911654D01*
X28199132Y48891654D02*
X26719132Y48891654D01*
X45199132Y72911654D02*
X46399132Y72911654D01*
X28199132Y48891654D02*
X29879132Y48891654D01*
X29879132Y48891654D02*
X45199132Y64211654D01*
X26719132Y48891654D02*
X24799132Y50811654D01*
X51099132Y71011654D02*
X52599132Y72511654D01*
X28189132Y48881654D02*
X28199132Y48891654D01*
D23*
X76499132Y49406654D02*
X75104132Y49406654D01*
D22*
G04 #@! TO.N,RX_GPS*
X36679132Y14231654D02*
X34599132Y16311654D01*
X37224132Y14231654D02*
X36679132Y14231654D01*
X34599132Y32711654D02*
X28579132Y38731654D01*
X28579132Y38731654D02*
X28199132Y38731654D01*
X34599132Y16311654D02*
X34599132Y32711654D01*
G04 #@! TO.N,TX_GPS*
X33299132Y31811654D02*
X28919132Y36191654D01*
X33299132Y15011654D02*
X33299132Y31811654D01*
X37224132Y11691654D02*
X36619132Y11691654D01*
X36619132Y11691654D02*
X33299132Y15011654D01*
X28919132Y36191654D02*
X28199132Y36191654D01*
G04 #@! TO.N,MOSI*
X7399132Y28611654D02*
X2839132Y28611654D01*
X2839132Y28611654D02*
X2799132Y28571654D01*
G04 #@! TO.N,MISO*
X8999132Y26611654D02*
X7399132Y26611654D01*
X1202132Y29514654D02*
X1202132Y22008654D01*
X2099132Y21111654D02*
X8899132Y21111654D01*
X1202132Y22008654D02*
X2099132Y21111654D01*
X9799132Y25811654D02*
X8999132Y26611654D01*
X8899132Y21111654D02*
X9799132Y22011654D01*
X2799132Y31111654D02*
X1202132Y29514654D01*
X9799132Y22011654D02*
X9799132Y25811654D01*
G04 #@! TO.N,SS*
X25899132Y23811654D02*
X25099132Y23011654D01*
X14699132Y31811654D02*
X13899132Y32611654D01*
X15499132Y23011654D02*
X14699132Y23811654D01*
X25899132Y27011654D02*
X25899132Y23811654D01*
X25099132Y23011654D02*
X15499132Y23011654D01*
X13899132Y32611654D02*
X7399132Y32611654D01*
X14699132Y23811654D02*
X14699132Y31811654D01*
X27459132Y28571654D02*
X25899132Y27011654D01*
X28199132Y28571654D02*
X27459132Y28571654D01*
G04 #@! TO.N,Net-(U1-ANT)*
X25099132Y57318668D02*
X25099132Y64811654D01*
X25099132Y64811654D02*
X23899132Y66011654D01*
X23599132Y55818668D02*
X25099132Y57318668D01*
X14999132Y66011654D02*
X14199132Y66811654D01*
X14199132Y66811654D02*
X14199132Y74086654D01*
X23899132Y66011654D02*
X14999132Y66011654D01*
X23599132Y38611654D02*
X23599132Y55818668D01*
G04 #@! TO.N,DIO0*
X3619132Y38731654D02*
X2799132Y38731654D01*
X23599132Y28611654D02*
X16399132Y28611654D01*
X15499132Y29511654D02*
X15499132Y39111654D01*
X4799132Y39911654D02*
X3619132Y38731654D01*
X16399132Y28611654D02*
X15499132Y29511654D01*
X14699132Y39911654D02*
X4799132Y39911654D01*
X15499132Y39111654D02*
X14699132Y39911654D01*
G04 #@! TO.N,SCK*
X3459132Y33651654D02*
X6499132Y30611654D01*
X6499132Y30611654D02*
X7399132Y30611654D01*
X2799132Y33651654D02*
X3459132Y33651654D01*
D23*
G04 #@! TO.N,Motor 5*
X35699132Y28811654D02*
X76224132Y28811654D01*
X76499132Y29086654D02*
X76199132Y29086654D01*
X29999132Y31111654D02*
X32299132Y28811654D01*
X28199132Y31111654D02*
X29999132Y31111654D01*
X76224132Y28811654D02*
X76499132Y29086654D01*
G04 #@! TO.N,Motor 4*
X29659132Y33651654D02*
X32299132Y31011654D01*
X75884132Y31011654D02*
X76499132Y31626654D01*
X28199132Y33651654D02*
X29659132Y33651654D01*
X35699132Y31011654D02*
X75884132Y31011654D01*
G04 #@! TO.N,5V*
X58099132Y68711654D02*
X58099132Y56811654D01*
X59159132Y55751654D02*
X74934132Y55751654D01*
X74934132Y55751654D02*
X76199132Y54486654D01*
X29799132Y72911654D02*
X29799132Y68711654D01*
X58099132Y56811654D02*
X59159132Y55751654D01*
G04 #@! TO.N,Motor 1*
X67799132Y47111654D02*
X51599132Y47111654D01*
X36999132Y54411654D02*
X28939132Y46351654D01*
X75664132Y39246654D02*
X67799132Y47111654D01*
X76199132Y39246654D02*
X75664132Y39246654D01*
X51599132Y47111654D02*
X44299132Y54411654D01*
X28939132Y46351654D02*
X28199132Y46351654D01*
X44299132Y54411654D02*
X36999132Y54411654D01*
G04 #@! TO.N,Motor 3*
X28959132Y41271654D02*
X28199132Y41271654D01*
X37899132Y51711654D02*
X30899132Y44711654D01*
X30899132Y44711654D02*
X30899132Y43211654D01*
X76199132Y34166654D02*
X75744132Y34166654D01*
X65199132Y44711654D02*
X50899132Y44711654D01*
X30899132Y43211654D02*
X28959132Y41271654D01*
X75744132Y34166654D02*
X65199132Y44711654D01*
X43899132Y51711654D02*
X37899132Y51711654D01*
X50899132Y44711654D02*
X43899132Y51711654D01*
G04 #@! TO.N,3.3V*
X22259132Y53911654D02*
X7599132Y53911654D01*
X61999132Y72911654D02*
X56599132Y72911654D01*
X28219132Y23511654D02*
X28199132Y23491654D01*
X20799132Y31511654D02*
X20799132Y49351654D01*
X76499132Y51946654D02*
X75164132Y51946654D01*
X12199132Y78411654D02*
X33699132Y78411654D01*
X22259132Y53911654D02*
X22259132Y50811654D01*
X20799132Y49351654D02*
X22259132Y50811654D01*
X33699132Y78411654D02*
X39199132Y72911654D01*
X6465132Y55045654D02*
X6465132Y65377654D01*
X39199132Y73311654D02*
X42099132Y76211654D01*
X31299132Y23511654D02*
X28219132Y23511654D01*
X67999132Y72911654D02*
X67999132Y72311654D01*
X73899132Y53211654D02*
X59199132Y53211654D01*
X62899132Y71011654D02*
X61999132Y71911654D01*
X66699132Y71011654D02*
X62899132Y71011654D01*
X56599132Y55811654D02*
X56599132Y72911654D01*
X75164132Y51946654D02*
X73899132Y53211654D01*
X39199132Y72911654D02*
X39199132Y73311654D01*
X37224132Y19311654D02*
X37224132Y23486654D01*
X67999132Y72311654D02*
X66699132Y71011654D01*
X7599132Y53911654D02*
X6465132Y55045654D01*
X20799132Y21711654D02*
X26419132Y21711654D01*
X6465132Y65377654D02*
X10999132Y69911654D01*
X21699132Y30611654D02*
X20799132Y31511654D01*
X26419132Y21711654D02*
X28199132Y23491654D01*
X56599132Y74111654D02*
X56599132Y72911654D01*
X37224132Y23486654D02*
X37199132Y23511654D01*
X59199132Y53211654D02*
X56599132Y55811654D01*
X23599132Y30611654D02*
X21699132Y30611654D01*
X10999132Y77211654D02*
X12199132Y78411654D01*
X10999132Y69911654D02*
X10999132Y77211654D01*
X42099132Y76211654D02*
X54499132Y76211654D01*
X54499132Y76211654D02*
X56599132Y74111654D01*
X61999132Y71911654D02*
X61999132Y72911654D01*
G04 #@! TO.N,Motor 6*
X76199132Y14211654D02*
X76199132Y26246654D01*
X70899132Y8911654D02*
X76199132Y14211654D01*
X76199132Y26246654D02*
X76499132Y26546654D01*
X26199132Y8911654D02*
X70899132Y8911654D01*
X18299132Y21111654D02*
X18299132Y16811654D01*
X18239132Y41271654D02*
X2799132Y41271654D01*
X18299132Y41211654D02*
X18239132Y41271654D01*
X18299132Y16811654D02*
X26199132Y8911654D01*
G04 #@! TO.N,Motor 2*
X28199132Y43911654D02*
X28199132Y43811654D01*
X75804132Y36706654D02*
X66599132Y45911654D01*
X76199132Y36706654D02*
X75804132Y36706654D01*
X51199132Y45911654D02*
X44099132Y53011654D01*
X66599132Y45911654D02*
X51199132Y45911654D01*
X44099132Y53011654D02*
X37299132Y53011654D01*
X37299132Y53011654D02*
X28199132Y43911654D01*
D22*
G04 #@! TO.N,TX_CO*
X30119132Y51431654D02*
X33799132Y55111654D01*
X33799132Y55111654D02*
X33799132Y72911654D01*
X28199132Y51431654D02*
X30119132Y51431654D01*
G04 #@! TO.N,RX_CO*
X30959132Y53971654D02*
X31799132Y54811654D01*
X31799132Y54811654D02*
X31799132Y72911654D01*
X28199132Y53971654D02*
X30959132Y53971654D01*
D23*
G04 #@! TO.N,UV_OUT*
X63999132Y74211654D02*
X63999132Y72911654D01*
X5399132Y66511654D02*
X9699132Y70811654D01*
X9699132Y70811654D02*
X9699132Y77311654D01*
X9699132Y77311654D02*
X11999132Y79611654D01*
X11999132Y79611654D02*
X58599132Y79611654D01*
X5399132Y48211654D02*
X5399132Y66511654D01*
X2799132Y46351654D02*
X3539132Y46351654D01*
X58599132Y79611654D02*
X63999132Y74211654D01*
X3539132Y46351654D02*
X5399132Y48211654D01*
G04 #@! TD*
G04 #@! TA.AperFunction,Conductor*
G04 #@! TO.N,GND*
G36*
X79941671Y79961469D02*
G01*
X79987426Y79908665D01*
X79998632Y79857154D01*
X79998632Y1106154D01*
X79978947Y1039115D01*
X79926143Y993360D01*
X79874632Y982154D01*
X1123632Y982154D01*
X1056593Y1001839D01*
X1010838Y1054643D01*
X999632Y1106154D01*
X999632Y4629658D01*
X2698632Y4629658D01*
X2698632Y4393649D01*
X2698633Y4393633D01*
X2729438Y4159643D01*
X2790526Y3931660D01*
X2880846Y3713608D01*
X2880851Y3713597D01*
X2998862Y3509199D01*
X3142538Y3321956D01*
X3142544Y3321949D01*
X3309427Y3155066D01*
X3309434Y3155060D01*
X3496677Y3011384D01*
X3701075Y2893373D01*
X3701086Y2893368D01*
X3919138Y2803048D01*
X4147121Y2741960D01*
X4381111Y2711155D01*
X4381115Y2711154D01*
X4381121Y2711154D01*
X4381128Y2711154D01*
X4617136Y2711154D01*
X4617143Y2711154D01*
X4617149Y2711154D01*
X4617152Y2711155D01*
X4851142Y2741960D01*
X5079125Y2803048D01*
X5297177Y2893368D01*
X5297188Y2893373D01*
X5420089Y2964331D01*
X5501582Y3011381D01*
X5501586Y3011384D01*
X5688829Y3155060D01*
X5688836Y3155066D01*
X5855719Y3321949D01*
X5855725Y3321956D01*
X5999401Y3509199D01*
X5999405Y3509204D01*
X6075250Y3640572D01*
X6117412Y3713597D01*
X6117417Y3713608D01*
X6207738Y3931661D01*
X6268825Y4159640D01*
X6299632Y4393643D01*
X6299632Y4629658D01*
X74698632Y4629658D01*
X74698632Y4393649D01*
X74698633Y4393633D01*
X74729438Y4159643D01*
X74790526Y3931660D01*
X74880846Y3713608D01*
X74880851Y3713597D01*
X74998862Y3509199D01*
X75142538Y3321956D01*
X75142544Y3321949D01*
X75309427Y3155066D01*
X75309434Y3155060D01*
X75496677Y3011384D01*
X75701075Y2893373D01*
X75701086Y2893368D01*
X75919138Y2803048D01*
X76147121Y2741960D01*
X76381111Y2711155D01*
X76381115Y2711154D01*
X76381121Y2711154D01*
X76381128Y2711154D01*
X76617136Y2711154D01*
X76617143Y2711154D01*
X76617149Y2711154D01*
X76617152Y2711155D01*
X76851142Y2741960D01*
X77079125Y2803048D01*
X77297177Y2893368D01*
X77297188Y2893373D01*
X77420089Y2964331D01*
X77501582Y3011381D01*
X77501586Y3011384D01*
X77688829Y3155060D01*
X77688836Y3155066D01*
X77855719Y3321949D01*
X77855725Y3321956D01*
X77999401Y3509199D01*
X77999405Y3509204D01*
X78075250Y3640572D01*
X78117412Y3713597D01*
X78117417Y3713608D01*
X78207738Y3931661D01*
X78268825Y4159640D01*
X78299632Y4393643D01*
X78299632Y4629665D01*
X78268825Y4863668D01*
X78207738Y5091647D01*
X78117416Y5309703D01*
X77999405Y5514104D01*
X77855724Y5701353D01*
X77688831Y5868246D01*
X77501582Y6011927D01*
X77297181Y6129938D01*
X77079125Y6220260D01*
X76851146Y6281347D01*
X76617143Y6312154D01*
X76381121Y6312154D01*
X76147118Y6281347D01*
X75919139Y6220260D01*
X75701083Y6129938D01*
X75701080Y6129936D01*
X75701075Y6129934D01*
X75628050Y6087772D01*
X75496682Y6011927D01*
X75496677Y6011923D01*
X75309434Y5868247D01*
X75309427Y5868241D01*
X75142544Y5701358D01*
X75142540Y5701353D01*
X74998859Y5514104D01*
X74951809Y5432611D01*
X74880851Y5309710D01*
X74880846Y5309699D01*
X74790526Y5091647D01*
X74729438Y4863664D01*
X74698633Y4629674D01*
X74698632Y4629658D01*
X6299632Y4629658D01*
X6299632Y4629665D01*
X6268825Y4863668D01*
X6207738Y5091647D01*
X6117416Y5309703D01*
X5999405Y5514104D01*
X5855724Y5701353D01*
X5688831Y5868246D01*
X5501582Y6011927D01*
X5297181Y6129938D01*
X5079125Y6220260D01*
X4851146Y6281347D01*
X4617143Y6312154D01*
X4381121Y6312154D01*
X4147118Y6281347D01*
X3919139Y6220260D01*
X3701083Y6129938D01*
X3701080Y6129936D01*
X3701075Y6129934D01*
X3628050Y6087772D01*
X3496682Y6011927D01*
X3496677Y6011923D01*
X3309434Y5868247D01*
X3309427Y5868241D01*
X3142544Y5701358D01*
X3142540Y5701353D01*
X2998859Y5514104D01*
X2951809Y5432611D01*
X2880851Y5309710D01*
X2880846Y5309699D01*
X2790526Y5091647D01*
X2729438Y4863664D01*
X2698633Y4629674D01*
X2698632Y4629658D01*
X999632Y4629658D01*
X999632Y15643104D01*
X1568632Y15643104D01*
X1568632Y15420203D01*
X1568633Y15420187D01*
X1597726Y15199201D01*
X1597727Y15199194D01*
X1597728Y15199191D01*
X1599320Y15193250D01*
X1655422Y14983873D01*
X1655425Y14983863D01*
X1740725Y14777931D01*
X1740727Y14777927D01*
X1852184Y14584880D01*
X1852190Y14584871D01*
X1987883Y14408031D01*
X1987889Y14408024D01*
X2145502Y14250411D01*
X2145509Y14250405D01*
X2322349Y14114712D01*
X2322358Y14114706D01*
X2515405Y14003249D01*
X2515409Y14003247D01*
X2721341Y13917947D01*
X2721351Y13917944D01*
X2936669Y13860250D01*
X2936672Y13860249D01*
X2936679Y13860248D01*
X3157665Y13831155D01*
X3157669Y13831154D01*
X3157675Y13831154D01*
X3157682Y13831154D01*
X3380582Y13831154D01*
X3380589Y13831154D01*
X3380595Y13831154D01*
X3380598Y13831155D01*
X3601584Y13860248D01*
X3601589Y13860249D01*
X3601595Y13860250D01*
X3816913Y13917944D01*
X3816915Y13917945D01*
X3816922Y13917947D01*
X4022854Y14003247D01*
X4022858Y14003249D01*
X4040909Y14013671D01*
X4215906Y14114706D01*
X4215914Y14114712D01*
X4392754Y14250405D01*
X4392761Y14250411D01*
X4550374Y14408024D01*
X4550380Y14408031D01*
X4686073Y14584871D01*
X4686080Y14584880D01*
X4797537Y14777928D01*
X4882842Y14983873D01*
X4940536Y15199191D01*
X4969632Y15420197D01*
X4969632Y15643111D01*
X4940536Y15864117D01*
X4882842Y16079435D01*
X4797537Y16285380D01*
X4686080Y16478428D01*
X4550379Y16655278D01*
X4392756Y16812901D01*
X4215906Y16948602D01*
X4022858Y17060059D01*
X3816913Y17145364D01*
X3601595Y17203058D01*
X3380589Y17232154D01*
X3157675Y17232154D01*
X2936669Y17203058D01*
X2721351Y17145364D01*
X2515406Y17060059D01*
X2322358Y16948602D01*
X2322349Y16948595D01*
X2145509Y16812902D01*
X2145502Y16812896D01*
X1987889Y16655283D01*
X1987883Y16655276D01*
X1852190Y16478436D01*
X1852184Y16478428D01*
X1753883Y16308167D01*
X1740727Y16285380D01*
X1740725Y16285376D01*
X1655425Y16079444D01*
X1655423Y16079437D01*
X1655422Y16079435D01*
X1597728Y15864117D01*
X1597727Y15864111D01*
X1597726Y15864106D01*
X1568633Y15643120D01*
X1568632Y15643104D01*
X999632Y15643104D01*
X999632Y21058313D01*
X1019317Y21125352D01*
X1072121Y21171107D01*
X1141279Y21181051D01*
X1204835Y21152026D01*
X1211313Y21145994D01*
X1728571Y20628735D01*
X1728574Y20628733D01*
X1815818Y20578362D01*
X1824484Y20573359D01*
X1866188Y20549281D01*
X1866187Y20549281D01*
X1927585Y20532829D01*
X2019680Y20508153D01*
X2019683Y20508153D01*
X2186181Y20508153D01*
X2186197Y20508154D01*
X8812067Y20508154D01*
X8812083Y20508153D01*
X8819679Y20508153D01*
X8978582Y20508153D01*
X8978585Y20508153D01*
X9093702Y20538999D01*
X9132076Y20549281D01*
X9132077Y20549282D01*
X9182445Y20578362D01*
X9188464Y20581837D01*
X9269690Y20628733D01*
X9382053Y20741096D01*
X9389121Y20748164D01*
X9389123Y20748167D01*
X10165348Y21524392D01*
X10165359Y21524402D01*
X10173361Y21532404D01*
X10282053Y21641096D01*
X10282054Y21641098D01*
X10282057Y21641102D01*
X10361501Y21778705D01*
X10361504Y21778710D01*
X10377242Y21837442D01*
X10393206Y21897022D01*
X10402633Y21932201D01*
X10402633Y22091106D01*
X10402633Y22101095D01*
X10402632Y22101108D01*
X10402632Y25724588D01*
X10402633Y25724606D01*
X10402633Y25891104D01*
X10402633Y25891107D01*
X10361505Y26044597D01*
X10317909Y26120107D01*
X10282053Y26182212D01*
X10169690Y26294575D01*
X10169688Y26294575D01*
X10159485Y26304779D01*
X10159480Y26304783D01*
X9492261Y26972002D01*
X9492257Y26972007D01*
X9482053Y26982210D01*
X9482053Y26982212D01*
X9369690Y27094575D01*
X9282445Y27144945D01*
X9232075Y27174027D01*
X9078585Y27215155D01*
X8919679Y27215155D01*
X8912083Y27215155D01*
X8912067Y27215154D01*
X8813387Y27215154D01*
X8746348Y27234839D01*
X8725706Y27251473D01*
X8637479Y27339699D01*
X8637474Y27339704D01*
X8524436Y27397300D01*
X8524434Y27397300D01*
X8524433Y27397301D01*
X8457279Y27407936D01*
X8430651Y27412154D01*
X6367614Y27412153D01*
X6273828Y27397300D01*
X6160790Y27339704D01*
X6160786Y27339700D01*
X6160784Y27339699D01*
X6071086Y27250001D01*
X6071084Y27249998D01*
X6071082Y27249996D01*
X6050375Y27209356D01*
X6013484Y27136955D01*
X5998632Y27043178D01*
X5998632Y26180136D01*
X6008581Y26117322D01*
X6013486Y26086350D01*
X6071082Y25973312D01*
X6071083Y25973311D01*
X6071086Y25973306D01*
X6160784Y25883608D01*
X6160789Y25883605D01*
X6160790Y25883604D01*
X6198469Y25864405D01*
X6273830Y25826006D01*
X6367607Y25811154D01*
X6367613Y25811154D01*
X8430649Y25811154D01*
X8498789Y25821946D01*
X8524436Y25826008D01*
X8637474Y25883604D01*
X8637476Y25883606D01*
X8637479Y25883608D01*
X8667908Y25914037D01*
X8729231Y25947522D01*
X8798923Y25942538D01*
X8843270Y25914037D01*
X9159313Y25597995D01*
X9192798Y25536672D01*
X9195632Y25510314D01*
X9195632Y22312994D01*
X9175947Y22245955D01*
X9159313Y22225313D01*
X8685473Y21751473D01*
X8624150Y21717988D01*
X8597792Y21715154D01*
X2400472Y21715154D01*
X2333433Y21734839D01*
X2312791Y21751473D01*
X2167236Y21897028D01*
X2018951Y22045312D01*
X1985468Y22106633D01*
X1990452Y22176324D01*
X2032323Y22232258D01*
X2097788Y22256675D01*
X2165651Y22242046D01*
X2234622Y22204721D01*
X2234636Y22204715D01*
X2454147Y22129356D01*
X2623432Y22101108D01*
X2683083Y22091154D01*
X2683084Y22091154D01*
X2915180Y22091154D01*
X2915181Y22091154D01*
X2974832Y22101108D01*
X3144116Y22129356D01*
X3363627Y22204715D01*
X3363636Y22204718D01*
X3567760Y22315185D01*
X3567766Y22315189D01*
X3750909Y22457735D01*
X3750912Y22457738D01*
X3750916Y22457741D01*
X3908111Y22628501D01*
X3908112Y22628503D01*
X3908115Y22628506D01*
X4035056Y22822805D01*
X4128289Y23035353D01*
X4185265Y23260345D01*
X4185267Y23260356D01*
X4204432Y23491647D01*
X4204432Y23491660D01*
X4185267Y23722951D01*
X4185265Y23722962D01*
X4182925Y23732201D01*
X4128289Y23947954D01*
X4035056Y24160503D01*
X4032896Y24163809D01*
X5899132Y24163809D01*
X5905533Y24104281D01*
X5905535Y24104274D01*
X5955777Y23969567D01*
X5955781Y23969560D01*
X6041941Y23854466D01*
X6041944Y23854463D01*
X6157038Y23768303D01*
X6157045Y23768299D01*
X6291752Y23718057D01*
X6291759Y23718055D01*
X6351287Y23711654D01*
X7149132Y23711654D01*
X7649132Y23711654D01*
X8446976Y23711654D01*
X8506504Y23718055D01*
X8506511Y23718057D01*
X8641218Y23768299D01*
X8641225Y23768303D01*
X8756319Y23854463D01*
X8756322Y23854466D01*
X8842482Y23969560D01*
X8842486Y23969567D01*
X8892728Y24104274D01*
X8892730Y24104281D01*
X8899131Y24163809D01*
X8899132Y24163826D01*
X8899132Y24361654D01*
X7649132Y24361654D01*
X7649132Y23711654D01*
X7149132Y23711654D01*
X7149132Y24361654D01*
X5899132Y24361654D01*
X5899132Y24163809D01*
X4032896Y24163809D01*
X3984789Y24237442D01*
X3908115Y24354801D01*
X3908114Y24354801D01*
X3908111Y24354807D01*
X3750916Y24525567D01*
X3654311Y24600757D01*
X3613499Y24657467D01*
X3609824Y24727240D01*
X3644455Y24787923D01*
X3654313Y24796464D01*
X3669188Y24808042D01*
X3669189Y24808043D01*
X3417734Y25059498D01*
X5899132Y25059498D01*
X5899132Y24861654D01*
X7149132Y24861654D01*
X7649132Y24861654D01*
X8899132Y24861654D01*
X8899132Y25059481D01*
X8899131Y25059498D01*
X8892730Y25119026D01*
X8892728Y25119033D01*
X8842486Y25253740D01*
X8842482Y25253747D01*
X8756322Y25368841D01*
X8756319Y25368844D01*
X8641225Y25455004D01*
X8641218Y25455008D01*
X8506511Y25505250D01*
X8506504Y25505252D01*
X8446976Y25511653D01*
X8446960Y25511654D01*
X7649132Y25511654D01*
X7649132Y24861654D01*
X7149132Y24861654D01*
X7149132Y25511654D01*
X6351304Y25511654D01*
X6351287Y25511653D01*
X6291759Y25505252D01*
X6291752Y25505250D01*
X6157045Y25455008D01*
X6157038Y25455004D01*
X6041944Y25368844D01*
X6041941Y25368841D01*
X5955781Y25253747D01*
X5955777Y25253740D01*
X5905535Y25119033D01*
X5905533Y25119026D01*
X5899132Y25059498D01*
X3417734Y25059498D01*
X2936706Y25540525D01*
X2995985Y25556409D01*
X3112279Y25623552D01*
X3207234Y25718507D01*
X3274377Y25834801D01*
X3290259Y25894077D01*
X4022566Y25161770D01*
X4122863Y25315284D01*
X4222719Y25542936D01*
X4283744Y25783915D01*
X4283746Y25783924D01*
X4304273Y26031648D01*
X4304273Y26031659D01*
X4283746Y26279383D01*
X4283744Y26279392D01*
X4222719Y26520371D01*
X4122863Y26748023D01*
X4022566Y26901536D01*
X3290260Y26169229D01*
X3274377Y26228507D01*
X3207234Y26344801D01*
X3112279Y26439756D01*
X2995985Y26506899D01*
X2936707Y26522782D01*
X3669188Y27255263D01*
X3654312Y27266842D01*
X3613498Y27323552D01*
X3609823Y27393325D01*
X3644454Y27454008D01*
X3654310Y27462549D01*
X3750913Y27537739D01*
X3750916Y27537741D01*
X3908111Y27708501D01*
X3908112Y27708503D01*
X3908115Y27708506D01*
X4035056Y27902805D01*
X4048724Y27933964D01*
X4093680Y27987450D01*
X4160416Y28008140D01*
X4162280Y28008154D01*
X5984877Y28008154D01*
X6051916Y27988469D01*
X6072558Y27971835D01*
X6160784Y27883608D01*
X6160789Y27883605D01*
X6160790Y27883604D01*
X6198469Y27864405D01*
X6273830Y27826006D01*
X6367607Y27811154D01*
X6367613Y27811154D01*
X8430649Y27811154D01*
X8498789Y27821946D01*
X8524436Y27826008D01*
X8637474Y27883604D01*
X8637476Y27883606D01*
X8637479Y27883608D01*
X8727177Y27973306D01*
X8727178Y27973308D01*
X8727182Y27973312D01*
X8784778Y28086350D01*
X8784779Y28086352D01*
X8799631Y28180129D01*
X8799632Y28180135D01*
X8799631Y29043172D01*
X8784778Y29136958D01*
X8727182Y29249996D01*
X8637474Y29339704D01*
X8524436Y29397300D01*
X8524434Y29397300D01*
X8524433Y29397301D01*
X8457279Y29407936D01*
X8430651Y29412154D01*
X6367614Y29412153D01*
X6273828Y29397300D01*
X6160790Y29339704D01*
X6160786Y29339700D01*
X6160784Y29339699D01*
X6072558Y29251473D01*
X6011235Y29217988D01*
X5984877Y29215154D01*
X4118723Y29215154D01*
X4051684Y29234839D01*
X4014914Y29271333D01*
X3908115Y29434801D01*
X3908114Y29434801D01*
X3908111Y29434807D01*
X3750916Y29605567D01*
X3573312Y29743801D01*
X3532500Y29800511D01*
X3528825Y29870284D01*
X3563456Y29930967D01*
X3573313Y29939508D01*
X3616737Y29973306D01*
X3750916Y30077741D01*
X3908111Y30248501D01*
X3908112Y30248503D01*
X3908115Y30248506D01*
X4035056Y30442805D01*
X4128289Y30655353D01*
X4185265Y30880345D01*
X4185267Y30880356D01*
X4204432Y31111647D01*
X4204432Y31111660D01*
X4185267Y31342951D01*
X4185265Y31342962D01*
X4171504Y31397301D01*
X4128289Y31567954D01*
X4035056Y31780503D01*
X3908111Y31974807D01*
X3750916Y32145567D01*
X3703834Y32182212D01*
X3573314Y32283801D01*
X3532501Y32340511D01*
X3528826Y32410284D01*
X3563458Y32470967D01*
X3573314Y32479507D01*
X3601888Y32501747D01*
X3666882Y32527390D01*
X3735422Y32513823D01*
X3765731Y32491575D01*
X5962313Y30294993D01*
X5995798Y30233670D01*
X5998632Y30207316D01*
X5998632Y30180137D01*
X6011133Y30101204D01*
X6013486Y30086350D01*
X6066501Y29982303D01*
X6071083Y29973311D01*
X6071086Y29973306D01*
X6160784Y29883608D01*
X6160789Y29883605D01*
X6160790Y29883604D01*
X6186932Y29870284D01*
X6273830Y29826006D01*
X6367607Y29811154D01*
X6367613Y29811154D01*
X8430649Y29811154D01*
X8498789Y29821946D01*
X8524436Y29826008D01*
X8637474Y29883604D01*
X8637477Y29883607D01*
X8637479Y29883608D01*
X8727177Y29973306D01*
X8727178Y29973308D01*
X8727182Y29973312D01*
X8784778Y30086350D01*
X8784778Y30086351D01*
X8784779Y30086352D01*
X8799631Y30180129D01*
X8799632Y30180135D01*
X8799631Y31043172D01*
X8784778Y31136958D01*
X8727182Y31249996D01*
X8637474Y31339704D01*
X8524436Y31397300D01*
X8524434Y31397300D01*
X8524433Y31397301D01*
X8452604Y31408677D01*
X8430651Y31412154D01*
X6603470Y31412153D01*
X6536432Y31431838D01*
X6515795Y31448467D01*
X6364787Y31599475D01*
X6331304Y31660796D01*
X6336288Y31730488D01*
X6378160Y31786421D01*
X6443624Y31810838D01*
X6452470Y31811154D01*
X8430649Y31811154D01*
X8501231Y31822333D01*
X8524436Y31826008D01*
X8637474Y31883604D01*
X8637476Y31883606D01*
X8637479Y31883608D01*
X8725706Y31971835D01*
X8787029Y32005320D01*
X8813387Y32008154D01*
X13597792Y32008154D01*
X13664831Y31988469D01*
X13685473Y31971835D01*
X14059313Y31597995D01*
X14092798Y31536672D01*
X14095632Y31510314D01*
X14095632Y23901109D01*
X14095631Y23901096D01*
X14095631Y23891107D01*
X14095631Y23732201D01*
X14124555Y23624257D01*
X14136760Y23578708D01*
X14136759Y23578708D01*
X14152691Y23551116D01*
X14152693Y23551114D01*
X14216210Y23441097D01*
X14216212Y23441094D01*
X15128572Y22528734D01*
X15128575Y22528732D01*
X15183500Y22497022D01*
X15183502Y22497021D01*
X15247389Y22460135D01*
X15266189Y22449281D01*
X15419679Y22408153D01*
X15419682Y22408153D01*
X15586181Y22408153D01*
X15586197Y22408154D01*
X20067003Y22408154D01*
X20134042Y22388469D01*
X20179797Y22335665D01*
X20189741Y22266507D01*
X20171997Y22218182D01*
X20169317Y22213917D01*
X20169316Y22213916D01*
X20092151Y22091109D01*
X20073343Y22061176D01*
X20013763Y21890908D01*
X20013762Y21890903D01*
X19993567Y21711657D01*
X19993567Y21711650D01*
X20013762Y21532404D01*
X20013763Y21532399D01*
X20073343Y21362130D01*
X20169316Y21209391D01*
X20296869Y21081838D01*
X20449608Y20985865D01*
X20619877Y20926285D01*
X20619882Y20926284D01*
X20799128Y20906089D01*
X20799132Y20906089D01*
X20799136Y20906089D01*
X20978381Y20926284D01*
X20978394Y20926287D01*
X21148650Y20985863D01*
X21148654Y20985864D01*
X21231862Y21038148D01*
X21297834Y21057154D01*
X26483599Y21057154D01*
X26610035Y21082303D01*
X26610044Y21082306D01*
X26729148Y21131639D01*
X26729160Y21131646D01*
X26836350Y21203269D01*
X26836354Y21203272D01*
X27687916Y22054835D01*
X27749239Y22088320D01*
X27775597Y22091154D01*
X29230649Y22091154D01*
X29298789Y22101946D01*
X29324436Y22106008D01*
X29437474Y22163604D01*
X29437476Y22163606D01*
X29437479Y22163608D01*
X29527177Y22253306D01*
X29527178Y22253308D01*
X29527182Y22253312D01*
X29584778Y22366350D01*
X29584779Y22366352D01*
X29599632Y22460129D01*
X29599632Y22733154D01*
X29619317Y22800193D01*
X29672121Y22845948D01*
X29723632Y22857154D01*
X30800430Y22857154D01*
X30866402Y22838148D01*
X30949609Y22785864D01*
X30949613Y22785863D01*
X31119869Y22726287D01*
X31119882Y22726284D01*
X31299128Y22706089D01*
X31299132Y22706089D01*
X31299136Y22706089D01*
X31478381Y22726284D01*
X31478386Y22726285D01*
X31648655Y22785865D01*
X31801394Y22881838D01*
X31928947Y23009391D01*
X31933576Y23016757D01*
X32024921Y23162132D01*
X32084500Y23332399D01*
X32096747Y23441094D01*
X32104697Y23511650D01*
X32104697Y23511657D01*
X32084501Y23690903D01*
X32084500Y23690908D01*
X32075001Y23718055D01*
X32024921Y23861176D01*
X31928948Y24013916D01*
X31801394Y24141470D01*
X31648654Y24237443D01*
X31478387Y24297022D01*
X31478384Y24297022D01*
X31478381Y24297023D01*
X31299136Y24317219D01*
X31299128Y24317219D01*
X31119882Y24297023D01*
X31119878Y24297022D01*
X31119877Y24297022D01*
X31119875Y24297021D01*
X31119869Y24297020D01*
X30949613Y24237444D01*
X30949609Y24237443D01*
X30866402Y24185160D01*
X30800430Y24166154D01*
X29723631Y24166154D01*
X29656592Y24185839D01*
X29610837Y24238643D01*
X29599631Y24290154D01*
X29599631Y24523171D01*
X29599252Y24525567D01*
X29584778Y24616958D01*
X29527182Y24729996D01*
X29437474Y24819704D01*
X29368546Y24854824D01*
X29317751Y24902797D01*
X29300956Y24970618D01*
X29323493Y25036753D01*
X29333612Y25049291D01*
X29386902Y25107179D01*
X29522864Y25315286D01*
X29622719Y25542936D01*
X29683744Y25783915D01*
X29683746Y25783924D01*
X29704273Y26031648D01*
X29704273Y26031659D01*
X29683746Y26279383D01*
X29683744Y26279392D01*
X29622719Y26520371D01*
X29522863Y26748023D01*
X29422566Y26901536D01*
X28690259Y26169229D01*
X28674377Y26228507D01*
X28607234Y26344801D01*
X28512279Y26439756D01*
X28395985Y26506899D01*
X28336707Y26522782D01*
X29069188Y27255263D01*
X29054312Y27266842D01*
X29013498Y27323552D01*
X29009823Y27393325D01*
X29044454Y27454008D01*
X29054310Y27462549D01*
X29150913Y27537739D01*
X29150916Y27537741D01*
X29308111Y27708501D01*
X29308112Y27708503D01*
X29308115Y27708506D01*
X29435056Y27902805D01*
X29528289Y28115353D01*
X29585265Y28340345D01*
X29585267Y28340356D01*
X29604432Y28571647D01*
X29604432Y28571660D01*
X29585267Y28802951D01*
X29585265Y28802962D01*
X29568624Y28868674D01*
X29528289Y29027954D01*
X29435056Y29240503D01*
X29308111Y29434807D01*
X29150916Y29605567D01*
X28973312Y29743801D01*
X28932500Y29800511D01*
X28928825Y29870284D01*
X28963456Y29930967D01*
X28973313Y29939508D01*
X29016737Y29973306D01*
X29150916Y30077741D01*
X29308111Y30248501D01*
X29308112Y30248503D01*
X29308115Y30248506D01*
X29407727Y30400975D01*
X29460873Y30446332D01*
X29511536Y30457154D01*
X29676667Y30457154D01*
X29743706Y30437469D01*
X29764348Y30420835D01*
X31478127Y28707055D01*
X31511612Y28645732D01*
X31513665Y28633266D01*
X31513761Y28632406D01*
X31573342Y28462132D01*
X31669316Y28309391D01*
X31796869Y28181838D01*
X31949608Y28085865D01*
X32119877Y28026285D01*
X32119882Y28026284D01*
X32299128Y28006089D01*
X32299132Y28006089D01*
X32299136Y28006089D01*
X32478381Y28026284D01*
X32478386Y28026285D01*
X32530677Y28044583D01*
X32600456Y28048144D01*
X32661084Y28013415D01*
X32693311Y27951422D01*
X32695632Y27927541D01*
X32695632Y15101109D01*
X32695631Y15101096D01*
X32695631Y15091107D01*
X32695631Y14932201D01*
X32715166Y14859296D01*
X32736759Y14778710D01*
X32751299Y14753525D01*
X32765840Y14728340D01*
X32804728Y14660985D01*
X32816211Y14641096D01*
X32816213Y14641093D01*
X32928576Y14528731D01*
X35966001Y11491305D01*
X35998094Y11435719D01*
X36044556Y11262324D01*
X36137029Y11064015D01*
X36262538Y10884772D01*
X36417250Y10730060D01*
X36417253Y10730057D01*
X36417255Y10730056D01*
X36476914Y10688281D01*
X36596493Y10604551D01*
X36794800Y10512080D01*
X36794809Y10512076D01*
X37006154Y10455447D01*
X37224130Y10436377D01*
X37224132Y10436377D01*
X37224134Y10436377D01*
X37333120Y10445912D01*
X37442109Y10455447D01*
X37442111Y10455447D01*
X37653454Y10512076D01*
X37653458Y10512078D01*
X37653462Y10512079D01*
X37752616Y10558315D01*
X37851770Y10604551D01*
X37887618Y10629652D01*
X38031009Y10730056D01*
X38185730Y10884777D01*
X38311234Y11064015D01*
X38403707Y11262324D01*
X38460339Y11473677D01*
X38479409Y11691654D01*
X38460339Y11909631D01*
X38403707Y12120984D01*
X38311234Y12319292D01*
X38185730Y12498531D01*
X38031009Y12653252D01*
X37851771Y12778756D01*
X37700546Y12849272D01*
X37648109Y12895444D01*
X37628957Y12962638D01*
X37649173Y13029519D01*
X37700546Y13074035D01*
X37851771Y13144552D01*
X38031009Y13270056D01*
X38185730Y13424777D01*
X38311234Y13604015D01*
X38403707Y13802324D01*
X38460339Y14013677D01*
X38479409Y14231654D01*
X38460339Y14449631D01*
X38403707Y14660984D01*
X38311234Y14859292D01*
X38185730Y15038531D01*
X38031009Y15193252D01*
X37851771Y15318756D01*
X37818264Y15334380D01*
X37765827Y15380550D01*
X37746675Y15447744D01*
X37766890Y15514625D01*
X37818266Y15559143D01*
X37901710Y15598053D01*
X38095214Y15733548D01*
X38262237Y15900571D01*
X38397732Y16094075D01*
X38497561Y16308161D01*
X38497564Y16308167D01*
X38554768Y16521654D01*
X37657144Y16521654D01*
X37690057Y16578661D01*
X37724132Y16705828D01*
X37724132Y16837480D01*
X37690057Y16964647D01*
X37657144Y17021654D01*
X38554767Y17021654D01*
X38497564Y17235140D01*
X38497561Y17235146D01*
X38397732Y17449231D01*
X38397731Y17449233D01*
X38262245Y17642727D01*
X38262240Y17642733D01*
X38095211Y17809762D01*
X38055748Y17837395D01*
X38012123Y17891972D01*
X38004929Y17961470D01*
X38036452Y18023825D01*
X38096682Y18059239D01*
X38107471Y18061443D01*
X38199436Y18076008D01*
X38312474Y18133604D01*
X38312476Y18133606D01*
X38312479Y18133608D01*
X38402177Y18223306D01*
X38402178Y18223308D01*
X38402182Y18223312D01*
X38459778Y18336350D01*
X38459778Y18336351D01*
X38459779Y18336352D01*
X38474631Y18430129D01*
X38474632Y18430135D01*
X38474631Y20193172D01*
X38459778Y20286958D01*
X38402182Y20399996D01*
X38312474Y20489704D01*
X38199436Y20547300D01*
X38199434Y20547300D01*
X38199433Y20547301D01*
X38132279Y20557936D01*
X38105651Y20562154D01*
X38002631Y20562153D01*
X37935594Y20581837D01*
X37889838Y20634640D01*
X37878632Y20686153D01*
X37878632Y23052739D01*
X37897638Y23118710D01*
X37924922Y23162133D01*
X37984498Y23332391D01*
X37984501Y23332404D01*
X38004697Y23511650D01*
X38004697Y23511657D01*
X37984501Y23690903D01*
X37984500Y23690908D01*
X37975001Y23718055D01*
X37924921Y23861176D01*
X37828948Y24013916D01*
X37701394Y24141470D01*
X37548654Y24237443D01*
X37378387Y24297022D01*
X37378384Y24297022D01*
X37378381Y24297023D01*
X37199136Y24317219D01*
X37199128Y24317219D01*
X37019882Y24297023D01*
X37019877Y24297022D01*
X36849610Y24237443D01*
X36696870Y24141470D01*
X36696869Y24141469D01*
X36569316Y24013916D01*
X36473343Y23861177D01*
X36413763Y23690908D01*
X36413762Y23690903D01*
X36393567Y23511657D01*
X36393567Y23511650D01*
X36413762Y23332404D01*
X36413763Y23332399D01*
X36473343Y23162130D01*
X36550626Y23039137D01*
X36569632Y22973165D01*
X36569632Y20686153D01*
X36549947Y20619114D01*
X36497143Y20573359D01*
X36445632Y20562153D01*
X36342614Y20562153D01*
X36248828Y20547300D01*
X36135790Y20489704D01*
X36135786Y20489700D01*
X36135784Y20489699D01*
X36046086Y20400001D01*
X36046084Y20399998D01*
X36046082Y20399996D01*
X36006937Y20323171D01*
X35988484Y20286955D01*
X35973632Y20193178D01*
X35973632Y18430136D01*
X35986455Y18349173D01*
X35988486Y18336350D01*
X36046082Y18223312D01*
X36046083Y18223311D01*
X36046086Y18223306D01*
X36135784Y18133608D01*
X36135789Y18133605D01*
X36135790Y18133604D01*
X36193429Y18104234D01*
X36248831Y18076006D01*
X36340788Y18061442D01*
X36403923Y18031513D01*
X36440854Y17972201D01*
X36439856Y17902338D01*
X36401246Y17844106D01*
X36392514Y17837394D01*
X36353054Y17809763D01*
X36353052Y17809762D01*
X36186023Y17642733D01*
X36186018Y17642727D01*
X36050532Y17449233D01*
X36050531Y17449231D01*
X35950702Y17235146D01*
X35950699Y17235140D01*
X35893496Y17021654D01*
X36791120Y17021654D01*
X36758207Y16964647D01*
X36724132Y16837480D01*
X36724132Y16705828D01*
X36758207Y16578661D01*
X36791120Y16521654D01*
X35893496Y16521654D01*
X35950699Y16308167D01*
X35950702Y16308161D01*
X36050532Y16094074D01*
X36050534Y16094070D01*
X36125936Y15986386D01*
X36148263Y15920180D01*
X36131253Y15852413D01*
X36080305Y15804600D01*
X36011595Y15791922D01*
X35946938Y15818404D01*
X35936693Y15827569D01*
X35238949Y16525314D01*
X35205466Y16586635D01*
X35202632Y16612993D01*
X35202632Y27962532D01*
X35222317Y28029571D01*
X35275121Y28075326D01*
X35344279Y28085270D01*
X35367586Y28079574D01*
X35519874Y28026286D01*
X35519882Y28026284D01*
X35699128Y28006089D01*
X35699132Y28006089D01*
X35699136Y28006089D01*
X35878381Y28026284D01*
X35878394Y28026287D01*
X36048650Y28085863D01*
X36048654Y28085864D01*
X36131862Y28138148D01*
X36197834Y28157154D01*
X75608870Y28157154D01*
X75675909Y28137469D01*
X75688571Y28128147D01*
X75692246Y28125063D01*
X75692252Y28125058D01*
X75692255Y28125056D01*
X75749075Y28085270D01*
X75871493Y27999551D01*
X76022715Y27929035D01*
X76075154Y27882862D01*
X76094306Y27815668D01*
X76074090Y27748787D01*
X76022717Y27704272D01*
X75871494Y27633756D01*
X75871493Y27633755D01*
X75871489Y27633753D01*
X75692253Y27508251D01*
X75537534Y27353532D01*
X75412032Y27174296D01*
X75412030Y27174292D01*
X75319557Y26975984D01*
X75319556Y26975980D01*
X75319554Y26975976D01*
X75262925Y26764633D01*
X75262925Y26764631D01*
X75261472Y26748023D01*
X75243855Y26546656D01*
X75243855Y26546651D01*
X75262925Y26328678D01*
X75262925Y26328674D01*
X75319554Y26117331D01*
X75319556Y26117324D01*
X75319557Y26117324D01*
X75412030Y25919015D01*
X75522207Y25761665D01*
X75544534Y25695461D01*
X75544632Y25690543D01*
X75544632Y14534119D01*
X75524947Y14467080D01*
X75508313Y14446438D01*
X70664348Y9602473D01*
X70603025Y9568988D01*
X70576667Y9566154D01*
X26521597Y9566154D01*
X26454558Y9585839D01*
X26433916Y9602473D01*
X20393285Y15643104D01*
X26078632Y15643104D01*
X26078632Y15420203D01*
X26078633Y15420187D01*
X26107726Y15199201D01*
X26107727Y15199194D01*
X26107728Y15199191D01*
X26109320Y15193250D01*
X26165422Y14983873D01*
X26165425Y14983863D01*
X26250725Y14777931D01*
X26250727Y14777927D01*
X26362184Y14584880D01*
X26362190Y14584871D01*
X26497883Y14408031D01*
X26497889Y14408024D01*
X26655502Y14250411D01*
X26655509Y14250405D01*
X26832349Y14114712D01*
X26832358Y14114706D01*
X27025405Y14003249D01*
X27025409Y14003247D01*
X27231341Y13917947D01*
X27231351Y13917944D01*
X27446669Y13860250D01*
X27446672Y13860249D01*
X27446679Y13860248D01*
X27667665Y13831155D01*
X27667669Y13831154D01*
X27667675Y13831154D01*
X27667682Y13831154D01*
X27890582Y13831154D01*
X27890589Y13831154D01*
X27890595Y13831154D01*
X27890598Y13831155D01*
X28111584Y13860248D01*
X28111589Y13860249D01*
X28111595Y13860250D01*
X28326913Y13917944D01*
X28326915Y13917945D01*
X28326922Y13917947D01*
X28532854Y14003247D01*
X28532858Y14003249D01*
X28550909Y14013671D01*
X28725906Y14114706D01*
X28725914Y14114712D01*
X28902754Y14250405D01*
X28902761Y14250411D01*
X29060374Y14408024D01*
X29060380Y14408031D01*
X29196073Y14584871D01*
X29196080Y14584880D01*
X29307537Y14777928D01*
X29392842Y14983873D01*
X29450536Y15199191D01*
X29479632Y15420197D01*
X29479632Y15643111D01*
X29450536Y15864117D01*
X29392842Y16079435D01*
X29307537Y16285380D01*
X29196080Y16478428D01*
X29060379Y16655278D01*
X28902756Y16812901D01*
X28725906Y16948602D01*
X28532858Y17060059D01*
X28326913Y17145364D01*
X28111595Y17203058D01*
X27890589Y17232154D01*
X27667675Y17232154D01*
X27446669Y17203058D01*
X27231351Y17145364D01*
X27025406Y17060059D01*
X26832358Y16948602D01*
X26832349Y16948595D01*
X26655509Y16812902D01*
X26655502Y16812896D01*
X26497889Y16655283D01*
X26497883Y16655276D01*
X26362190Y16478436D01*
X26362184Y16478428D01*
X26263883Y16308167D01*
X26250727Y16285380D01*
X26250725Y16285376D01*
X26165425Y16079444D01*
X26165423Y16079437D01*
X26165422Y16079435D01*
X26107728Y15864117D01*
X26107727Y15864111D01*
X26107726Y15864106D01*
X26078633Y15643120D01*
X26078632Y15643104D01*
X20393285Y15643104D01*
X18989951Y17046438D01*
X18956466Y17107761D01*
X18953632Y17134119D01*
X18953632Y20612951D01*
X18972638Y20678923D01*
X19024920Y20762131D01*
X19024921Y20762132D01*
X19075294Y20906089D01*
X19084498Y20932391D01*
X19084501Y20932404D01*
X19104697Y21111650D01*
X19104697Y21111657D01*
X19084501Y21290903D01*
X19084500Y21290908D01*
X19061137Y21357676D01*
X19024921Y21461176D01*
X18928948Y21613916D01*
X18801394Y21741470D01*
X18648654Y21837443D01*
X18478387Y21897022D01*
X18478384Y21897022D01*
X18478381Y21897023D01*
X18299136Y21917219D01*
X18299128Y21917219D01*
X18119882Y21897023D01*
X18119877Y21897022D01*
X17949610Y21837443D01*
X17796870Y21741470D01*
X17796869Y21741469D01*
X17669316Y21613916D01*
X17573343Y21461177D01*
X17513763Y21290908D01*
X17513762Y21290903D01*
X17493567Y21111657D01*
X17493567Y21111650D01*
X17513762Y20932404D01*
X17513765Y20932391D01*
X17573341Y20762135D01*
X17573343Y20762131D01*
X17625626Y20678923D01*
X17644632Y20612951D01*
X17644632Y16747187D01*
X17669781Y16620750D01*
X17669784Y16620741D01*
X17719117Y16501637D01*
X17719124Y16501625D01*
X17790747Y16394435D01*
X17790750Y16394431D01*
X23729736Y10455447D01*
X25690748Y8494435D01*
X25690749Y8494434D01*
X25736331Y8448851D01*
X25781913Y8403269D01*
X25889112Y8331641D01*
X25889114Y8331640D01*
X26008219Y8282306D01*
X26008228Y8282303D01*
X26134664Y8257154D01*
X26134669Y8257154D01*
X70963599Y8257154D01*
X71090035Y8282303D01*
X71090044Y8282306D01*
X71209149Y8331640D01*
X71209151Y8331641D01*
X71316350Y8403269D01*
X71316352Y8403271D01*
X71407515Y8494434D01*
X71407516Y8494435D01*
X73977096Y11064015D01*
X76707513Y13794431D01*
X76707516Y13794435D01*
X76779139Y13901625D01*
X76779146Y13901637D01*
X76825553Y14013677D01*
X76828480Y14020743D01*
X76828480Y14020745D01*
X76828482Y14020750D01*
X76853631Y14147187D01*
X76853632Y14147191D01*
X76853632Y25253188D01*
X76873317Y25320227D01*
X76925227Y25365570D01*
X77126770Y25459551D01*
X77192037Y25505252D01*
X77306009Y25585056D01*
X77460730Y25739777D01*
X77586234Y25919015D01*
X77678707Y26117324D01*
X77679453Y26120106D01*
X77726201Y26294575D01*
X77735339Y26328677D01*
X77754409Y26546654D01*
X77735339Y26764631D01*
X77678707Y26975984D01*
X77586234Y27174292D01*
X77460730Y27353531D01*
X77306009Y27508252D01*
X77126771Y27633756D01*
X76975546Y27704272D01*
X76923109Y27750444D01*
X76903957Y27817638D01*
X76924173Y27884519D01*
X76975546Y27929035D01*
X77126771Y27999552D01*
X77306009Y28125056D01*
X77460730Y28279777D01*
X77586234Y28459015D01*
X77678707Y28657324D01*
X77683812Y28676374D01*
X77735338Y28868674D01*
X77735339Y28868677D01*
X77754409Y29086654D01*
X77735339Y29304631D01*
X77678707Y29515984D01*
X77586234Y29714292D01*
X77460730Y29893531D01*
X77306009Y30048252D01*
X77126771Y30173756D01*
X76975546Y30244272D01*
X76923109Y30290444D01*
X76903957Y30357638D01*
X76924173Y30424519D01*
X76975546Y30469035D01*
X77126771Y30539552D01*
X77306009Y30665056D01*
X77460730Y30819777D01*
X77586234Y30999015D01*
X77678707Y31197324D01*
X77679860Y31201625D01*
X77732290Y31397299D01*
X77735339Y31408677D01*
X77753830Y31620038D01*
X77754409Y31626651D01*
X77754409Y31626656D01*
X77750012Y31676911D01*
X77735339Y31844631D01*
X77678707Y32055984D01*
X77586234Y32254292D01*
X77460730Y32433531D01*
X77306009Y32588252D01*
X77126771Y32713756D01*
X76975546Y32784272D01*
X76923109Y32830444D01*
X76903957Y32897638D01*
X76924173Y32964519D01*
X76975546Y33009035D01*
X77126771Y33079552D01*
X77306009Y33205056D01*
X77460730Y33359777D01*
X77586234Y33539015D01*
X77678707Y33737324D01*
X77735339Y33948677D01*
X77754409Y34166654D01*
X77735339Y34384631D01*
X77678707Y34595984D01*
X77586234Y34794292D01*
X77460730Y34973531D01*
X77306009Y35128252D01*
X77126771Y35253756D01*
X76975546Y35324272D01*
X76923109Y35370444D01*
X76903957Y35437638D01*
X76924173Y35504519D01*
X76975546Y35549035D01*
X77126771Y35619552D01*
X77306009Y35745056D01*
X77460730Y35899777D01*
X77586234Y36079015D01*
X77678707Y36277324D01*
X77735339Y36488677D01*
X77754409Y36706654D01*
X77735339Y36924631D01*
X77678707Y37135984D01*
X77586234Y37334292D01*
X77460730Y37513531D01*
X77306009Y37668252D01*
X77126771Y37793756D01*
X76975546Y37864272D01*
X76923109Y37910444D01*
X76903957Y37977638D01*
X76924173Y38044519D01*
X76975546Y38089035D01*
X77126771Y38159552D01*
X77306009Y38285056D01*
X77460730Y38439777D01*
X77586234Y38619015D01*
X77678707Y38817324D01*
X77735339Y39028677D01*
X77754409Y39246654D01*
X77735339Y39464631D01*
X77678707Y39675984D01*
X77586234Y39874292D01*
X77460730Y40053531D01*
X77306009Y40208252D01*
X77126771Y40333756D01*
X77093264Y40349380D01*
X77040827Y40395550D01*
X77021675Y40462744D01*
X77041890Y40529625D01*
X77093266Y40574143D01*
X77176710Y40613053D01*
X77370214Y40748548D01*
X77537237Y40915571D01*
X77672732Y41109075D01*
X77772561Y41323161D01*
X77772564Y41323167D01*
X77829768Y41536654D01*
X76932144Y41536654D01*
X76965057Y41593661D01*
X76999132Y41720828D01*
X76999132Y41852480D01*
X76965057Y41979647D01*
X76932144Y42036654D01*
X77829767Y42036654D01*
X77772564Y42250140D01*
X77772561Y42250146D01*
X77672732Y42464231D01*
X77672731Y42464233D01*
X77537245Y42657727D01*
X77537240Y42657733D01*
X77370214Y42824759D01*
X77184100Y42955079D01*
X77140476Y43009656D01*
X77133283Y43079155D01*
X77164805Y43141509D01*
X77184100Y43158229D01*
X77370214Y43288548D01*
X77537237Y43455571D01*
X77672732Y43649075D01*
X77772561Y43863161D01*
X77772564Y43863167D01*
X77829768Y44076654D01*
X76932144Y44076654D01*
X76965057Y44133661D01*
X76999132Y44260828D01*
X76999132Y44392480D01*
X76965057Y44519647D01*
X76932144Y44576654D01*
X77829767Y44576654D01*
X77772564Y44790140D01*
X77772561Y44790146D01*
X77672732Y45004231D01*
X77672731Y45004233D01*
X77537245Y45197727D01*
X77537240Y45197733D01*
X77370214Y45364759D01*
X77176712Y45500252D01*
X77093267Y45539163D01*
X77040827Y45585335D01*
X77021675Y45652529D01*
X77041890Y45719410D01*
X77093265Y45763927D01*
X77126765Y45779549D01*
X77126769Y45779551D01*
X77126771Y45779552D01*
X77306009Y45905056D01*
X77460730Y46059777D01*
X77586234Y46239015D01*
X77678707Y46437324D01*
X77684021Y46457154D01*
X77735338Y46648674D01*
X77735339Y46648677D01*
X77754409Y46866654D01*
X77735339Y47084631D01*
X77678707Y47295984D01*
X77586234Y47494292D01*
X77460730Y47673531D01*
X77306009Y47828252D01*
X77126771Y47953756D01*
X76975546Y48024272D01*
X76923109Y48070444D01*
X76903957Y48137638D01*
X76924173Y48204519D01*
X76975546Y48249035D01*
X77126771Y48319552D01*
X77306009Y48445056D01*
X77460730Y48599777D01*
X77586234Y48779015D01*
X77678707Y48977324D01*
X77735339Y49188677D01*
X77754409Y49406654D01*
X77735339Y49624631D01*
X77678707Y49835984D01*
X77586234Y50034292D01*
X77460730Y50213531D01*
X77306009Y50368252D01*
X77126771Y50493756D01*
X76975546Y50564272D01*
X76923109Y50610444D01*
X76903957Y50677638D01*
X76924173Y50744519D01*
X76975546Y50789035D01*
X77126771Y50859552D01*
X77306009Y50985056D01*
X77460730Y51139777D01*
X77586234Y51319015D01*
X77678707Y51517324D01*
X77735339Y51728677D01*
X77751391Y51912154D01*
X77754409Y51946651D01*
X77754409Y51946656D01*
X77746666Y52035154D01*
X77735339Y52164631D01*
X77678707Y52375984D01*
X77586234Y52574292D01*
X77460730Y52753531D01*
X77306009Y52908252D01*
X77159866Y53010582D01*
X77116244Y53065156D01*
X77109050Y53134654D01*
X77140573Y53197009D01*
X77200802Y53232423D01*
X77230991Y53236154D01*
X77380649Y53236154D01*
X77448789Y53246946D01*
X77474436Y53251008D01*
X77587474Y53308604D01*
X77587476Y53308606D01*
X77587479Y53308608D01*
X77677177Y53398306D01*
X77677178Y53398308D01*
X77677182Y53398312D01*
X77734778Y53511350D01*
X77734778Y53511351D01*
X77734779Y53511352D01*
X77749631Y53605129D01*
X77749632Y53605135D01*
X77749631Y55368172D01*
X77734778Y55461958D01*
X77677182Y55574996D01*
X77587474Y55664704D01*
X77474436Y55722300D01*
X77474434Y55722300D01*
X77474433Y55722301D01*
X77407279Y55732936D01*
X77380651Y55737154D01*
X75925596Y55737153D01*
X75858558Y55756838D01*
X75837916Y55773472D01*
X75351354Y56260035D01*
X75351353Y56260035D01*
X75351351Y56260038D01*
X75244154Y56331665D01*
X75244151Y56331666D01*
X75244148Y56331668D01*
X75188440Y56354742D01*
X75125043Y56381002D01*
X75071436Y56391665D01*
X75047155Y56396494D01*
X74998597Y56406154D01*
X74998595Y56406154D01*
X59481596Y56406154D01*
X59414557Y56425839D01*
X59393915Y56442473D01*
X58789951Y57046437D01*
X58756466Y57107760D01*
X58753632Y57134118D01*
X58753632Y68212951D01*
X58772638Y68278923D01*
X58804605Y68329799D01*
X58824921Y68362132D01*
X58828412Y68372110D01*
X58884498Y68532391D01*
X58884501Y68532404D01*
X58904697Y68711650D01*
X58904697Y68711657D01*
X58884501Y68890903D01*
X58884500Y68890908D01*
X58884500Y68890909D01*
X58824921Y69061176D01*
X58728948Y69213916D01*
X58601394Y69341470D01*
X58448654Y69437443D01*
X58278387Y69497022D01*
X58278384Y69497022D01*
X58278381Y69497023D01*
X58099136Y69517219D01*
X58099128Y69517219D01*
X57919882Y69497023D01*
X57919877Y69497022D01*
X57749610Y69437443D01*
X57596870Y69341470D01*
X57596869Y69341469D01*
X57465313Y69209913D01*
X57403990Y69176428D01*
X57334298Y69181412D01*
X57278365Y69223284D01*
X57253948Y69288748D01*
X57253632Y69297594D01*
X57253632Y71640262D01*
X57273317Y71707301D01*
X57314509Y71746993D01*
X57350994Y71768571D01*
X57351002Y71768577D01*
X57467208Y71884783D01*
X57467211Y71884787D01*
X57467213Y71884789D01*
X57550876Y72026256D01*
X57591984Y72167749D01*
X57629590Y72226635D01*
X57693062Y72255841D01*
X57711060Y72257154D01*
X60990539Y72257154D01*
X61057578Y72237469D01*
X61103333Y72184665D01*
X61105084Y72180643D01*
X61109415Y72170187D01*
X61112499Y72162741D01*
X61112503Y72162734D01*
X61221992Y71998872D01*
X61310823Y71910041D01*
X61344307Y71848717D01*
X61344758Y71846552D01*
X61369782Y71720749D01*
X61369784Y71720741D01*
X61419117Y71601637D01*
X61419124Y71601625D01*
X61490747Y71494435D01*
X61490750Y71494431D01*
X62283239Y70701944D01*
X62390747Y70594436D01*
X62390749Y70594434D01*
X62481912Y70503271D01*
X62481913Y70503270D01*
X62481912Y70503270D01*
X62589112Y70431641D01*
X62589114Y70431640D01*
X62708219Y70382306D01*
X62708228Y70382303D01*
X62834664Y70357154D01*
X62834669Y70357154D01*
X66763599Y70357154D01*
X66890035Y70382303D01*
X66890044Y70382306D01*
X67009149Y70431640D01*
X67009151Y70431641D01*
X67098980Y70491663D01*
X67116351Y70503270D01*
X67116356Y70503274D01*
X68212916Y71599835D01*
X68274239Y71633320D01*
X68300597Y71636154D01*
X68414833Y71636154D01*
X68451699Y71639055D01*
X68451705Y71639056D01*
X68609525Y71684908D01*
X68609528Y71684909D01*
X68619637Y71690887D01*
X68750997Y71768573D01*
X68750998Y71768574D01*
X68751002Y71768577D01*
X68867208Y71884783D01*
X68867211Y71884787D01*
X68867213Y71884789D01*
X68950876Y72026256D01*
X68980192Y72127162D01*
X68996729Y72184080D01*
X68996730Y72184086D01*
X68999631Y72220952D01*
X68999632Y72220967D01*
X68999632Y73602340D01*
X68999632Y73602348D01*
X68996730Y73639223D01*
X68950876Y73797052D01*
X68867213Y73938519D01*
X68750997Y74054735D01*
X68609530Y74138398D01*
X68479667Y74176127D01*
X68451705Y74184251D01*
X68451703Y74184251D01*
X68451701Y74184252D01*
X68414826Y74187154D01*
X67583438Y74187154D01*
X67546563Y74184252D01*
X67546561Y74184251D01*
X67546558Y74184251D01*
X67430356Y74150490D01*
X67388734Y74138398D01*
X67247267Y74054735D01*
X67247265Y74054733D01*
X67247261Y74054730D01*
X67131055Y73938524D01*
X67131048Y73938515D01*
X67084220Y73859333D01*
X67033151Y73811649D01*
X66964409Y73799146D01*
X66899820Y73825792D01*
X66877168Y73849571D01*
X66838166Y73903254D01*
X66715734Y74025686D01*
X66575656Y74127458D01*
X66421387Y74206062D01*
X66256716Y74259568D01*
X66256717Y74259568D01*
X66249132Y74260769D01*
X66249132Y73191984D01*
X66229387Y73211729D01*
X66143877Y73261098D01*
X66048502Y73286654D01*
X65949762Y73286654D01*
X65854387Y73261098D01*
X65768877Y73211729D01*
X65749132Y73191984D01*
X65749132Y74260768D01*
X65749131Y74260769D01*
X65741547Y74259568D01*
X65576876Y74206062D01*
X65422607Y74127458D01*
X65282529Y74025686D01*
X65160099Y73903256D01*
X65058327Y73763178D01*
X65050053Y73746939D01*
X65002077Y73696144D01*
X64934256Y73679350D01*
X64868122Y73701889D01*
X64836469Y73734342D01*
X64776271Y73824436D01*
X64689949Y73910757D01*
X64656466Y73972078D01*
X64653632Y73998437D01*
X64653632Y74276118D01*
X64653631Y74276121D01*
X64628482Y74402557D01*
X64628480Y74402560D01*
X64628480Y74402565D01*
X64579143Y74521676D01*
X64507515Y74628874D01*
X64416352Y74720037D01*
X64416350Y74720037D01*
X64406143Y74730245D01*
X64406140Y74730246D01*
X62506729Y76629658D01*
X74698632Y76629658D01*
X74698632Y76393649D01*
X74698633Y76393633D01*
X74729438Y76159643D01*
X74790526Y75931660D01*
X74880846Y75713608D01*
X74880851Y75713597D01*
X74998862Y75509199D01*
X75142538Y75321956D01*
X75142544Y75321949D01*
X75309427Y75155066D01*
X75309434Y75155060D01*
X75496677Y75011384D01*
X75701075Y74893373D01*
X75701086Y74893368D01*
X75919138Y74803048D01*
X76147121Y74741960D01*
X76381111Y74711155D01*
X76381115Y74711154D01*
X76381121Y74711154D01*
X76381128Y74711154D01*
X76617136Y74711154D01*
X76617143Y74711154D01*
X76617149Y74711154D01*
X76617152Y74711155D01*
X76851142Y74741960D01*
X77079125Y74803048D01*
X77297177Y74893368D01*
X77297188Y74893373D01*
X77420089Y74964331D01*
X77501582Y75011381D01*
X77501586Y75011384D01*
X77688829Y75155060D01*
X77688836Y75155066D01*
X77855719Y75321949D01*
X77855725Y75321956D01*
X77974301Y75476488D01*
X77999405Y75509204D01*
X78075250Y75640572D01*
X78117412Y75713597D01*
X78117417Y75713608D01*
X78178740Y75861654D01*
X78207738Y75931661D01*
X78268825Y76159640D01*
X78299632Y76393643D01*
X78299632Y76629665D01*
X78268825Y76863668D01*
X78207738Y77091647D01*
X78117416Y77309703D01*
X77999405Y77514104D01*
X77855724Y77701353D01*
X77688831Y77868246D01*
X77501582Y78011927D01*
X77297181Y78129938D01*
X77079125Y78220260D01*
X76851146Y78281347D01*
X76617143Y78312154D01*
X76381121Y78312154D01*
X76147118Y78281347D01*
X75919139Y78220260D01*
X75701083Y78129938D01*
X75701080Y78129936D01*
X75701075Y78129934D01*
X75628050Y78087772D01*
X75496682Y78011927D01*
X75496677Y78011923D01*
X75309434Y77868247D01*
X75309427Y77868241D01*
X75142544Y77701358D01*
X75142538Y77701351D01*
X75081399Y77621673D01*
X74998859Y77514104D01*
X74951809Y77432611D01*
X74880851Y77309710D01*
X74880846Y77309699D01*
X74790526Y77091647D01*
X74729438Y76863664D01*
X74698633Y76629674D01*
X74698632Y76629658D01*
X62506729Y76629658D01*
X59366916Y79769473D01*
X59333431Y79830796D01*
X59338415Y79900488D01*
X59380287Y79956421D01*
X59445751Y79980838D01*
X59454597Y79981154D01*
X79874632Y79981154D01*
X79941671Y79961469D01*
G37*
G04 #@! TD.AperFunction*
G04 #@! TA.AperFunction,Conductor*
G36*
X6258835Y54325902D02*
G01*
X6265313Y54319870D01*
X7090747Y53494436D01*
X7090749Y53494434D01*
X7136331Y53448851D01*
X7181913Y53403269D01*
X7289112Y53331641D01*
X7289114Y53331640D01*
X7408219Y53282306D01*
X7408228Y53282303D01*
X7534664Y53257154D01*
X7534669Y53257154D01*
X7534670Y53257154D01*
X7663594Y53257154D01*
X21312599Y53257154D01*
X21379638Y53237469D01*
X21411554Y53207880D01*
X21442369Y53167072D01*
X21564170Y53056037D01*
X21600452Y52996326D01*
X21604632Y52964400D01*
X21604632Y51758907D01*
X21584947Y51691868D01*
X21564170Y51667270D01*
X21442368Y51556233D01*
X21412984Y51517322D01*
X21319459Y51393475D01*
X21228554Y51210914D01*
X21228549Y51210901D01*
X21172734Y51014736D01*
X21153917Y50811654D01*
X21153917Y50811652D01*
X21163777Y50705233D01*
X21150361Y50636663D01*
X21127987Y50606112D01*
X20290750Y49768876D01*
X20290749Y49768875D01*
X20290748Y49768873D01*
X20224229Y49669320D01*
X20220806Y49664198D01*
X20219120Y49661675D01*
X20169784Y49542566D01*
X20169781Y49542557D01*
X20144632Y49416121D01*
X20144632Y41010355D01*
X20125625Y40944382D01*
X20073343Y40861178D01*
X20013763Y40690908D01*
X20013762Y40690903D01*
X19993567Y40511657D01*
X19993567Y40511650D01*
X20013762Y40332404D01*
X20013765Y40332391D01*
X20073341Y40162135D01*
X20073343Y40162131D01*
X20125626Y40078923D01*
X20144632Y40012951D01*
X20144632Y31447186D01*
X20169594Y31321692D01*
X20169595Y31321693D01*
X20169784Y31320743D01*
X20169785Y31320737D01*
X20219117Y31201638D01*
X20219124Y31201625D01*
X20290747Y31094435D01*
X20290750Y31094431D01*
X20984208Y30400975D01*
X21190747Y30194436D01*
X21190749Y30194434D01*
X21219551Y30165632D01*
X21281913Y30103269D01*
X21389112Y30031641D01*
X21389114Y30031640D01*
X21508219Y29982306D01*
X21508228Y29982303D01*
X21634664Y29957154D01*
X21634669Y29957154D01*
X21634670Y29957154D01*
X21763594Y29957154D01*
X22235878Y29957154D01*
X22302917Y29937469D01*
X22323560Y29920834D01*
X22360785Y29883607D01*
X22360789Y29883605D01*
X22360790Y29883604D01*
X22386932Y29870284D01*
X22473830Y29826006D01*
X22567607Y29811154D01*
X22567613Y29811154D01*
X24630649Y29811154D01*
X24698789Y29821946D01*
X24724436Y29826008D01*
X24837474Y29883604D01*
X24837477Y29883607D01*
X24837479Y29883608D01*
X24927177Y29973306D01*
X24927178Y29973308D01*
X24927182Y29973312D01*
X24984778Y30086350D01*
X24984778Y30086351D01*
X24984779Y30086352D01*
X24999631Y30180129D01*
X24999632Y30180135D01*
X24999631Y31043172D01*
X24984778Y31136958D01*
X24927182Y31249996D01*
X24837474Y31339704D01*
X24724436Y31397300D01*
X24724434Y31397300D01*
X24724433Y31397301D01*
X24652604Y31408677D01*
X24630651Y31412154D01*
X22567614Y31412153D01*
X22473828Y31397300D01*
X22360790Y31339704D01*
X22360787Y31339701D01*
X22360785Y31339700D01*
X22323560Y31302474D01*
X22262237Y31268988D01*
X22235878Y31266154D01*
X22021596Y31266154D01*
X21954557Y31285839D01*
X21933915Y31302473D01*
X21489951Y31746437D01*
X21456466Y31807760D01*
X21453632Y31834118D01*
X21453632Y33043178D01*
X22198632Y33043178D01*
X22198632Y32180136D01*
X22204632Y32142254D01*
X22213486Y32086350D01*
X22271082Y31973312D01*
X22271083Y31973311D01*
X22271086Y31973306D01*
X22360784Y31883608D01*
X22360789Y31883605D01*
X22360790Y31883604D01*
X22384826Y31871357D01*
X22473830Y31826006D01*
X22567607Y31811154D01*
X22567613Y31811154D01*
X24630649Y31811154D01*
X24701231Y31822333D01*
X24724436Y31826008D01*
X24837474Y31883604D01*
X24837476Y31883606D01*
X24837479Y31883608D01*
X24927177Y31973306D01*
X24927178Y31973308D01*
X24927182Y31973312D01*
X24984778Y32086350D01*
X24984778Y32086351D01*
X24984779Y32086352D01*
X24999631Y32180129D01*
X24999632Y32180135D01*
X24999631Y33043172D01*
X24984778Y33136958D01*
X24927182Y33249996D01*
X24837474Y33339704D01*
X24724436Y33397300D01*
X24724434Y33397300D01*
X24724433Y33397301D01*
X24657279Y33407936D01*
X24630651Y33412154D01*
X22567614Y33412153D01*
X22473828Y33397300D01*
X22360790Y33339704D01*
X22360786Y33339700D01*
X22360784Y33339699D01*
X22271086Y33250001D01*
X22271084Y33249998D01*
X22271082Y33249996D01*
X22243240Y33195353D01*
X22213484Y33136955D01*
X22198632Y33043178D01*
X21453632Y33043178D01*
X21453632Y35043178D01*
X22198632Y35043178D01*
X22198632Y34180136D01*
X22211455Y34099173D01*
X22213486Y34086350D01*
X22271082Y33973312D01*
X22271083Y33973311D01*
X22271086Y33973306D01*
X22360784Y33883608D01*
X22360789Y33883605D01*
X22360790Y33883604D01*
X22368319Y33879768D01*
X22473830Y33826006D01*
X22567607Y33811154D01*
X22567613Y33811154D01*
X24630649Y33811154D01*
X24698789Y33821946D01*
X24724436Y33826008D01*
X24837474Y33883604D01*
X24837476Y33883606D01*
X24837479Y33883608D01*
X24927177Y33973306D01*
X24927178Y33973308D01*
X24927182Y33973312D01*
X24984778Y34086350D01*
X24984778Y34086351D01*
X24984779Y34086352D01*
X24999631Y34180129D01*
X24999632Y34180135D01*
X24999631Y35043172D01*
X24984778Y35136958D01*
X24927182Y35249996D01*
X24837474Y35339704D01*
X24724436Y35397300D01*
X24724434Y35397300D01*
X24724433Y35397301D01*
X24657279Y35407936D01*
X24630651Y35412154D01*
X22567614Y35412153D01*
X22473828Y35397300D01*
X22360790Y35339704D01*
X22360786Y35339700D01*
X22360784Y35339699D01*
X22271086Y35250001D01*
X22271084Y35249998D01*
X22271082Y35249996D01*
X22236982Y35183072D01*
X22213484Y35136955D01*
X22198632Y35043178D01*
X21453632Y35043178D01*
X21453632Y36163809D01*
X22099132Y36163809D01*
X22105533Y36104281D01*
X22105535Y36104274D01*
X22155777Y35969567D01*
X22155781Y35969560D01*
X22241941Y35854466D01*
X22241944Y35854463D01*
X22357038Y35768303D01*
X22357045Y35768299D01*
X22491752Y35718057D01*
X22491759Y35718055D01*
X22551287Y35711654D01*
X23349132Y35711654D01*
X23849132Y35711654D01*
X24646976Y35711654D01*
X24706504Y35718055D01*
X24706511Y35718057D01*
X24841218Y35768299D01*
X24841225Y35768303D01*
X24956319Y35854463D01*
X24956322Y35854466D01*
X25042482Y35969560D01*
X25042486Y35969567D01*
X25092728Y36104274D01*
X25092730Y36104281D01*
X25099131Y36163809D01*
X25099132Y36163826D01*
X25099132Y36361654D01*
X23849132Y36361654D01*
X23849132Y35711654D01*
X23349132Y35711654D01*
X23349132Y36361654D01*
X22099132Y36361654D01*
X22099132Y36163809D01*
X21453632Y36163809D01*
X21453632Y37059498D01*
X22099132Y37059498D01*
X22099132Y36861654D01*
X23349132Y36861654D01*
X23849132Y36861654D01*
X25099132Y36861654D01*
X25099132Y37059481D01*
X25099131Y37059498D01*
X25092730Y37119026D01*
X25092728Y37119033D01*
X25042486Y37253740D01*
X25042482Y37253747D01*
X24956322Y37368841D01*
X24956319Y37368844D01*
X24841225Y37455004D01*
X24841218Y37455008D01*
X24706511Y37505250D01*
X24706504Y37505252D01*
X24646976Y37511653D01*
X24646960Y37511654D01*
X23849132Y37511654D01*
X23849132Y36861654D01*
X23349132Y36861654D01*
X23349132Y37511654D01*
X22551304Y37511654D01*
X22551287Y37511653D01*
X22491759Y37505252D01*
X22491752Y37505250D01*
X22357045Y37455008D01*
X22357038Y37455004D01*
X22241944Y37368844D01*
X22241941Y37368841D01*
X22155781Y37253747D01*
X22155777Y37253740D01*
X22105535Y37119033D01*
X22105533Y37119026D01*
X22099132Y37059498D01*
X21453632Y37059498D01*
X21453632Y40012951D01*
X21472638Y40078923D01*
X21524920Y40162131D01*
X21524921Y40162132D01*
X21529841Y40176193D01*
X21584498Y40332391D01*
X21584501Y40332404D01*
X21604697Y40511650D01*
X21604697Y40511657D01*
X21584501Y40690903D01*
X21584500Y40690908D01*
X21578032Y40709392D01*
X21524921Y40861176D01*
X21524320Y40862132D01*
X21472639Y40944382D01*
X21453632Y41010355D01*
X21453632Y49029189D01*
X21473317Y49096228D01*
X21489951Y49116870D01*
X22049501Y49676420D01*
X22110824Y49709905D01*
X22151341Y49710508D01*
X22151450Y49711683D01*
X22157154Y49711154D01*
X22157156Y49711154D01*
X22157158Y49711154D01*
X22361106Y49711154D01*
X22361108Y49711154D01*
X22561588Y49748630D01*
X22686839Y49797152D01*
X22751767Y49822305D01*
X22751771Y49822307D01*
X22806356Y49856104D01*
X22873717Y49874658D01*
X22940416Y49853850D01*
X22985276Y49800284D01*
X22995632Y49750676D01*
X22995632Y39536153D01*
X22975947Y39469114D01*
X22923143Y39423359D01*
X22871632Y39412153D01*
X22567614Y39412153D01*
X22473828Y39397300D01*
X22360790Y39339704D01*
X22360786Y39339700D01*
X22360784Y39339699D01*
X22271086Y39250001D01*
X22271084Y39249998D01*
X22271082Y39249996D01*
X22241075Y39191104D01*
X22213484Y39136955D01*
X22198632Y39043178D01*
X22198632Y38180136D01*
X22206187Y38132435D01*
X22213486Y38086350D01*
X22268878Y37977638D01*
X22271083Y37973311D01*
X22271086Y37973306D01*
X22360784Y37883608D01*
X22360789Y37883605D01*
X22360790Y37883604D01*
X22390431Y37868501D01*
X22473830Y37826006D01*
X22567607Y37811154D01*
X22567613Y37811154D01*
X24630649Y37811154D01*
X24698789Y37821946D01*
X24724436Y37826008D01*
X24837474Y37883604D01*
X24837476Y37883606D01*
X24837479Y37883608D01*
X24927177Y37973306D01*
X24927178Y37973308D01*
X24927182Y37973312D01*
X24984778Y38086350D01*
X24984778Y38086351D01*
X24984779Y38086352D01*
X24999631Y38180129D01*
X24999632Y38180135D01*
X24999631Y39043172D01*
X24984778Y39136958D01*
X24927182Y39249996D01*
X24837474Y39339704D01*
X24724436Y39397300D01*
X24724434Y39397300D01*
X24724433Y39397301D01*
X24657279Y39407936D01*
X24630651Y39412154D01*
X24326631Y39412153D01*
X24259593Y39431837D01*
X24213838Y39484641D01*
X24202632Y39536153D01*
X24202632Y49681525D01*
X24222317Y49748564D01*
X24275121Y49794319D01*
X24344279Y49804263D01*
X24371424Y49797152D01*
X24444415Y49768876D01*
X24491394Y49750676D01*
X24496676Y49748630D01*
X24697156Y49711154D01*
X24697158Y49711154D01*
X24901108Y49711154D01*
X24959063Y49721987D01*
X25028578Y49714955D01*
X25069527Y49687779D01*
X26236209Y48521098D01*
X26348571Y48408735D01*
X26348574Y48408733D01*
X26435818Y48358362D01*
X26457107Y48346071D01*
X26486188Y48329281D01*
X26486187Y48329281D01*
X26522501Y48319551D01*
X26639679Y48288153D01*
X26639682Y48288153D01*
X26806181Y48288153D01*
X26806197Y48288154D01*
X26853955Y48288154D01*
X26920994Y48268469D01*
X26959757Y48226676D01*
X26960403Y48227098D01*
X26962873Y48223315D01*
X26963013Y48223166D01*
X26963211Y48222799D01*
X27090148Y48028506D01*
X27247351Y47857738D01*
X27247354Y47857735D01*
X27424950Y47719507D01*
X27465763Y47662797D01*
X27469438Y47593024D01*
X27434806Y47532341D01*
X27424950Y47523801D01*
X27247354Y47385572D01*
X27247348Y47385567D01*
X27090153Y47214807D01*
X27090151Y47214805D01*
X27090148Y47214801D01*
X26963207Y47020502D01*
X26869974Y46807954D01*
X26812998Y46582962D01*
X26812996Y46582951D01*
X26793832Y46351660D01*
X26793832Y46351647D01*
X26812996Y46120356D01*
X26812998Y46120345D01*
X26869974Y45895353D01*
X26963207Y45682805D01*
X27090148Y45488506D01*
X27247351Y45317738D01*
X27247354Y45317735D01*
X27424950Y45179507D01*
X27465763Y45122797D01*
X27469438Y45053024D01*
X27434806Y44992341D01*
X27424950Y44983801D01*
X27247354Y44845572D01*
X27247348Y44845567D01*
X27090153Y44674807D01*
X27090151Y44674805D01*
X27090148Y44674801D01*
X26963207Y44480502D01*
X26869974Y44267954D01*
X26812998Y44042962D01*
X26812996Y44042951D01*
X26793832Y43811660D01*
X26793832Y43811647D01*
X26812996Y43580356D01*
X26812998Y43580345D01*
X26869974Y43355353D01*
X26963207Y43142805D01*
X27090148Y42948506D01*
X27247351Y42777738D01*
X27247354Y42777735D01*
X27424950Y42639507D01*
X27465763Y42582797D01*
X27469438Y42513024D01*
X27434806Y42452341D01*
X27424950Y42443801D01*
X27247354Y42305572D01*
X27247348Y42305567D01*
X27090153Y42134807D01*
X27090151Y42134805D01*
X27090148Y42134801D01*
X26963207Y41940502D01*
X26869974Y41727954D01*
X26812998Y41502962D01*
X26812996Y41502951D01*
X26793832Y41271660D01*
X26793832Y41271647D01*
X26812996Y41040356D01*
X26812998Y41040345D01*
X26869974Y40815353D01*
X26963207Y40602805D01*
X27090148Y40408506D01*
X27160217Y40332391D01*
X27206412Y40282209D01*
X27247351Y40237738D01*
X27247354Y40237735D01*
X27424950Y40099507D01*
X27465763Y40042797D01*
X27469438Y39973024D01*
X27434806Y39912341D01*
X27424950Y39903801D01*
X27247354Y39765572D01*
X27247348Y39765567D01*
X27090153Y39594807D01*
X27090151Y39594805D01*
X27090148Y39594801D01*
X26963207Y39400502D01*
X26869974Y39187954D01*
X26812998Y38962962D01*
X26812996Y38962951D01*
X26793832Y38731660D01*
X26793832Y38731647D01*
X26812996Y38500356D01*
X26812998Y38500345D01*
X26869974Y38275353D01*
X26963207Y38062805D01*
X27090148Y37868506D01*
X27247351Y37697738D01*
X27247354Y37697735D01*
X27424950Y37559507D01*
X27465763Y37502797D01*
X27469438Y37433024D01*
X27434806Y37372341D01*
X27424950Y37363801D01*
X27247354Y37225572D01*
X27247348Y37225567D01*
X27090153Y37054807D01*
X27090151Y37054805D01*
X27090148Y37054801D01*
X26963207Y36860502D01*
X26869974Y36647954D01*
X26812998Y36422962D01*
X26812996Y36422951D01*
X26793832Y36191660D01*
X26793832Y36191647D01*
X26812996Y35960356D01*
X26812998Y35960345D01*
X26869974Y35735353D01*
X26963207Y35522805D01*
X27090148Y35328506D01*
X27090153Y35328501D01*
X27218430Y35189154D01*
X27247351Y35157738D01*
X27247354Y35157735D01*
X27424950Y35019507D01*
X27465763Y34962797D01*
X27469438Y34893024D01*
X27434806Y34832341D01*
X27424950Y34823801D01*
X27247354Y34685572D01*
X27247348Y34685567D01*
X27090153Y34514807D01*
X27090151Y34514805D01*
X27090148Y34514801D01*
X26963207Y34320502D01*
X26869974Y34107954D01*
X26812998Y33882962D01*
X26812996Y33882951D01*
X26793832Y33651660D01*
X26793832Y33651647D01*
X26812996Y33420356D01*
X26812998Y33420345D01*
X26869974Y33195353D01*
X26963207Y32982805D01*
X27090148Y32788506D01*
X27090153Y32788501D01*
X27241028Y32624606D01*
X27247351Y32617738D01*
X27247354Y32617735D01*
X27424950Y32479507D01*
X27465763Y32422797D01*
X27469438Y32353024D01*
X27434806Y32292341D01*
X27424950Y32283801D01*
X27247354Y32145572D01*
X27247348Y32145567D01*
X27090153Y31974807D01*
X27090151Y31974805D01*
X27090148Y31974801D01*
X26963207Y31780502D01*
X26869974Y31567954D01*
X26812998Y31342962D01*
X26812996Y31342951D01*
X26793832Y31111660D01*
X26793832Y31111647D01*
X26812996Y30880356D01*
X26812998Y30880345D01*
X26869974Y30655353D01*
X26963207Y30442805D01*
X27090148Y30248506D01*
X27247351Y30077738D01*
X27247354Y30077735D01*
X27424950Y29939507D01*
X27465763Y29882797D01*
X27469438Y29813024D01*
X27434806Y29752341D01*
X27424950Y29743801D01*
X27247354Y29605572D01*
X27247348Y29605567D01*
X27090153Y29434807D01*
X27090151Y29434805D01*
X27090148Y29434801D01*
X26963207Y29240502D01*
X26869973Y29027950D01*
X26869973Y29027949D01*
X26813252Y28803968D01*
X26780728Y28746728D01*
X25535645Y27501645D01*
X25535639Y27501640D01*
X25528574Y27494575D01*
X25416211Y27382212D01*
X25416209Y27382208D01*
X25365840Y27294967D01*
X25336760Y27244599D01*
X25336759Y27244598D01*
X25336759Y27244597D01*
X25295631Y27091107D01*
X25295631Y27091104D01*
X25295631Y26924606D01*
X25295632Y26924588D01*
X25295632Y24112994D01*
X25275947Y24045955D01*
X25259313Y24025313D01*
X25188483Y23954483D01*
X25127160Y23920998D01*
X25057468Y23925982D01*
X25001535Y23967854D01*
X24977118Y24033318D01*
X24982873Y24080488D01*
X24984779Y24086354D01*
X24999631Y24180129D01*
X24999632Y24180135D01*
X24999631Y25043172D01*
X24984778Y25136958D01*
X24927182Y25249996D01*
X24837474Y25339704D01*
X24724436Y25397300D01*
X24724434Y25397300D01*
X24724433Y25397301D01*
X24657279Y25407936D01*
X24630651Y25412154D01*
X22567614Y25412153D01*
X22473828Y25397300D01*
X22360790Y25339704D01*
X22360786Y25339700D01*
X22360784Y25339699D01*
X22271086Y25250001D01*
X22271084Y25249998D01*
X22271082Y25249996D01*
X22231937Y25173171D01*
X22213484Y25136955D01*
X22198632Y25043178D01*
X22198632Y24180136D01*
X22209266Y24112994D01*
X22213486Y24086350D01*
X22271082Y23973312D01*
X22271083Y23973311D01*
X22271086Y23973306D01*
X22360784Y23883608D01*
X22360789Y23883605D01*
X22360790Y23883604D01*
X22427452Y23849637D01*
X22478247Y23801664D01*
X22495042Y23733843D01*
X22472504Y23667708D01*
X22417789Y23624257D01*
X22371156Y23615154D01*
X15800472Y23615154D01*
X15733433Y23634839D01*
X15712791Y23651473D01*
X15338951Y24025313D01*
X15305466Y24086636D01*
X15302632Y24112994D01*
X15302632Y27043178D01*
X22198632Y27043178D01*
X22198632Y26180136D01*
X22208581Y26117322D01*
X22213486Y26086350D01*
X22271082Y25973312D01*
X22271083Y25973311D01*
X22271086Y25973306D01*
X22360784Y25883608D01*
X22360789Y25883605D01*
X22360790Y25883604D01*
X22398469Y25864405D01*
X22473830Y25826006D01*
X22567607Y25811154D01*
X22567613Y25811154D01*
X24630649Y25811154D01*
X24698789Y25821946D01*
X24724436Y25826008D01*
X24837474Y25883604D01*
X24837476Y25883606D01*
X24837479Y25883608D01*
X24927177Y25973306D01*
X24927178Y25973308D01*
X24927182Y25973312D01*
X24984778Y26086350D01*
X24984778Y26086351D01*
X24984779Y26086352D01*
X24999631Y26180129D01*
X24999632Y26180135D01*
X24999631Y27043172D01*
X24984778Y27136958D01*
X24927182Y27249996D01*
X24837474Y27339704D01*
X24724436Y27397300D01*
X24724434Y27397300D01*
X24724433Y27397301D01*
X24657279Y27407936D01*
X24630651Y27412154D01*
X22567614Y27412153D01*
X22473828Y27397300D01*
X22360790Y27339704D01*
X22360786Y27339700D01*
X22360784Y27339699D01*
X22271086Y27250001D01*
X22271084Y27249998D01*
X22271082Y27249996D01*
X22250375Y27209356D01*
X22213484Y27136955D01*
X22198632Y27043178D01*
X15302632Y27043178D01*
X15302632Y28555313D01*
X15322317Y28622352D01*
X15375121Y28668107D01*
X15444279Y28678051D01*
X15507835Y28649026D01*
X15514313Y28642994D01*
X16028572Y28128734D01*
X16028580Y28128728D01*
X16166183Y28049284D01*
X16166196Y28049278D01*
X16222368Y28034226D01*
X16222369Y28034227D01*
X16319679Y28008153D01*
X16486180Y28008153D01*
X16486196Y28008154D01*
X22184877Y28008154D01*
X22251916Y27988469D01*
X22272558Y27971835D01*
X22360784Y27883608D01*
X22360789Y27883605D01*
X22360790Y27883604D01*
X22398469Y27864405D01*
X22473830Y27826006D01*
X22567607Y27811154D01*
X22567613Y27811154D01*
X24630649Y27811154D01*
X24698789Y27821946D01*
X24724436Y27826008D01*
X24837474Y27883604D01*
X24837476Y27883606D01*
X24837479Y27883608D01*
X24927177Y27973306D01*
X24927178Y27973308D01*
X24927182Y27973312D01*
X24984778Y28086350D01*
X24984779Y28086352D01*
X24999631Y28180129D01*
X24999632Y28180135D01*
X24999631Y29043172D01*
X24984778Y29136958D01*
X24927182Y29249996D01*
X24837474Y29339704D01*
X24724436Y29397300D01*
X24724434Y29397300D01*
X24724433Y29397301D01*
X24657279Y29407936D01*
X24630651Y29412154D01*
X22567614Y29412153D01*
X22473828Y29397300D01*
X22360790Y29339704D01*
X22360786Y29339700D01*
X22360784Y29339699D01*
X22272558Y29251473D01*
X22211235Y29217988D01*
X22184877Y29215154D01*
X16700472Y29215154D01*
X16633433Y29234839D01*
X16612791Y29251473D01*
X16138951Y29725313D01*
X16105466Y29786636D01*
X16102632Y29812994D01*
X16102632Y39024588D01*
X16102633Y39024606D01*
X16102633Y39191104D01*
X16102633Y39191107D01*
X16061505Y39344597D01*
X16022501Y39412153D01*
X16022501Y39412154D01*
X15982055Y39482208D01*
X15982053Y39482212D01*
X15869690Y39594575D01*
X15869688Y39594575D01*
X15859485Y39604779D01*
X15859480Y39604783D01*
X15192261Y40272002D01*
X15192257Y40272007D01*
X15182053Y40282210D01*
X15182053Y40282212D01*
X15069690Y40394575D01*
X15069683Y40394578D01*
X15069425Y40394778D01*
X15069257Y40395007D01*
X15063943Y40400322D01*
X15064771Y40401150D01*
X15028222Y40451205D01*
X15024067Y40520951D01*
X15058279Y40581872D01*
X15119996Y40614625D01*
X15144911Y40617154D01*
X17710192Y40617154D01*
X17777231Y40597469D01*
X17791354Y40586087D01*
X17791427Y40586179D01*
X17796869Y40581838D01*
X17949608Y40485865D01*
X18119877Y40426285D01*
X18119882Y40426284D01*
X18299128Y40406089D01*
X18299132Y40406089D01*
X18299136Y40406089D01*
X18478381Y40426284D01*
X18478386Y40426285D01*
X18648655Y40485865D01*
X18801394Y40581838D01*
X18928947Y40709391D01*
X19024920Y40862130D01*
X19053702Y40944382D01*
X19084500Y41032399D01*
X19084501Y41032404D01*
X19104697Y41211650D01*
X19104697Y41211657D01*
X19084501Y41390903D01*
X19084500Y41390908D01*
X19053449Y41479647D01*
X19024921Y41561176D01*
X18928948Y41713916D01*
X18801394Y41841470D01*
X18648654Y41937443D01*
X18478387Y41997022D01*
X18478384Y41997022D01*
X18478381Y41997023D01*
X18299136Y42017219D01*
X18299128Y42017219D01*
X18119882Y41997023D01*
X18119878Y41997022D01*
X18119877Y41997022D01*
X18119875Y41997021D01*
X18119869Y41997020D01*
X17943037Y41935143D01*
X17942608Y41936367D01*
X17897867Y41926154D01*
X4111536Y41926154D01*
X4044497Y41945839D01*
X4007727Y41982333D01*
X3908115Y42134801D01*
X3908114Y42134801D01*
X3908111Y42134807D01*
X3750916Y42305567D01*
X3573312Y42443801D01*
X3532500Y42500511D01*
X3528825Y42570284D01*
X3563456Y42630967D01*
X3573313Y42639508D01*
X3596729Y42657733D01*
X3750916Y42777741D01*
X3908111Y42948501D01*
X3908112Y42948503D01*
X3908115Y42948506D01*
X4035056Y43142805D01*
X4128289Y43355353D01*
X4185265Y43580345D01*
X4185267Y43580356D01*
X4204432Y43811647D01*
X4204432Y43811660D01*
X4185267Y44042951D01*
X4185265Y44042962D01*
X4175302Y44082303D01*
X4128289Y44267954D01*
X4035056Y44480503D01*
X3908111Y44674807D01*
X3750916Y44845567D01*
X3573312Y44983801D01*
X3532500Y45040511D01*
X3528825Y45110284D01*
X3563456Y45170967D01*
X3573313Y45179508D01*
X3596729Y45197733D01*
X3750916Y45317741D01*
X3908111Y45488501D01*
X3908112Y45488503D01*
X3908115Y45488506D01*
X4035056Y45682805D01*
X4050386Y45717753D01*
X4128289Y45895354D01*
X4160551Y46022755D01*
X4193076Y46079995D01*
X5812010Y47698930D01*
X5812033Y47698951D01*
X5907512Y47794430D01*
X5907515Y47794434D01*
X5979144Y47901634D01*
X5979145Y47901636D01*
X6028479Y48020741D01*
X6028482Y48020750D01*
X6053631Y48147186D01*
X6053632Y48147190D01*
X6053632Y54232189D01*
X6073317Y54299228D01*
X6126121Y54344983D01*
X6195279Y54354927D01*
X6258835Y54325902D01*
G37*
G04 #@! TD.AperFunction*
G04 #@! TA.AperFunction,Conductor*
G36*
X5864518Y39288469D02*
G01*
X5910273Y39235665D01*
X5920217Y39166507D01*
X5913661Y39140822D01*
X5905536Y39119037D01*
X5905533Y39119026D01*
X5899132Y39059498D01*
X5899132Y38861654D01*
X8899132Y38861654D01*
X8899132Y39059481D01*
X8899131Y39059498D01*
X8892730Y39119026D01*
X8892727Y39119037D01*
X8884603Y39140822D01*
X8879619Y39210514D01*
X8913105Y39271836D01*
X8974429Y39305321D01*
X9000785Y39308154D01*
X14397792Y39308154D01*
X14464831Y39288469D01*
X14485473Y39271835D01*
X14859313Y38897995D01*
X14892798Y38836672D01*
X14895632Y38810314D01*
X14895632Y32767993D01*
X14875947Y32700954D01*
X14823143Y32655199D01*
X14753985Y32645255D01*
X14690429Y32674280D01*
X14683959Y32680304D01*
X14392260Y32972002D01*
X14392257Y32972007D01*
X14382053Y32982210D01*
X14382053Y32982212D01*
X14269690Y33094575D01*
X14141244Y33168733D01*
X14132075Y33174027D01*
X13978585Y33215155D01*
X13819679Y33215155D01*
X13812083Y33215155D01*
X13812067Y33215154D01*
X8813387Y33215154D01*
X8746348Y33234839D01*
X8725706Y33251473D01*
X8637479Y33339699D01*
X8637474Y33339704D01*
X8524436Y33397300D01*
X8524434Y33397300D01*
X8524433Y33397301D01*
X8457279Y33407936D01*
X8430651Y33412154D01*
X6367614Y33412153D01*
X6273828Y33397300D01*
X6160790Y33339704D01*
X6160786Y33339700D01*
X6160784Y33339699D01*
X6071086Y33250001D01*
X6071084Y33249998D01*
X6071082Y33249996D01*
X6043240Y33195353D01*
X6013484Y33136955D01*
X5998632Y33043178D01*
X5998632Y32264992D01*
X5978947Y32197953D01*
X5926143Y32152198D01*
X5856985Y32142254D01*
X5793429Y32171279D01*
X5786965Y32177297D01*
X4226798Y33737464D01*
X4193315Y33798785D01*
X4190905Y33814893D01*
X4185266Y33882959D01*
X4128289Y34107954D01*
X4035056Y34320503D01*
X3908111Y34514807D01*
X3750916Y34685567D01*
X3707608Y34719274D01*
X3573314Y34823801D01*
X3532501Y34880511D01*
X3528826Y34950284D01*
X3563458Y35010967D01*
X3573314Y35019507D01*
X3691860Y35111775D01*
X3756854Y35137418D01*
X3825394Y35123851D01*
X3855703Y35101603D01*
X4716209Y34241098D01*
X4828572Y34128734D01*
X4828580Y34128728D01*
X4966183Y34049284D01*
X4966188Y34049281D01*
X5067214Y34022212D01*
X5067213Y34022211D01*
X5119677Y34008154D01*
X5119679Y34008154D01*
X5119680Y34008154D01*
X5984877Y34008154D01*
X6051916Y33988469D01*
X6072558Y33971835D01*
X6160784Y33883608D01*
X6160789Y33883605D01*
X6160790Y33883604D01*
X6168319Y33879768D01*
X6273830Y33826006D01*
X6367607Y33811154D01*
X6367613Y33811154D01*
X8430649Y33811154D01*
X8498789Y33821946D01*
X8524436Y33826008D01*
X8637474Y33883604D01*
X8637476Y33883606D01*
X8637479Y33883608D01*
X8727177Y33973306D01*
X8727178Y33973308D01*
X8727182Y33973312D01*
X8784778Y34086350D01*
X8784778Y34086351D01*
X8784779Y34086352D01*
X8799631Y34180129D01*
X8799632Y34180135D01*
X8799631Y35043172D01*
X8784778Y35136958D01*
X8727182Y35249996D01*
X8637474Y35339704D01*
X8524436Y35397300D01*
X8524434Y35397300D01*
X8524433Y35397301D01*
X8457279Y35407936D01*
X8430651Y35412154D01*
X6367614Y35412153D01*
X6273828Y35397300D01*
X6160790Y35339704D01*
X6160786Y35339700D01*
X6160784Y35339699D01*
X6072558Y35251473D01*
X6011235Y35217988D01*
X5984877Y35215154D01*
X5500472Y35215154D01*
X5433433Y35234839D01*
X5412791Y35251473D01*
X5115228Y35549036D01*
X4190403Y36473859D01*
X4157880Y36531097D01*
X4128289Y36647954D01*
X4035056Y36860503D01*
X3915709Y37043178D01*
X5998632Y37043178D01*
X5998632Y36180136D01*
X6010646Y36104281D01*
X6013486Y36086350D01*
X6071082Y35973312D01*
X6071083Y35973311D01*
X6071086Y35973306D01*
X6160784Y35883608D01*
X6160789Y35883605D01*
X6160790Y35883604D01*
X6198469Y35864405D01*
X6273830Y35826006D01*
X6367607Y35811154D01*
X6367613Y35811154D01*
X8430649Y35811154D01*
X8498789Y35821946D01*
X8524436Y35826008D01*
X8637474Y35883604D01*
X8637476Y35883606D01*
X8637479Y35883608D01*
X8727177Y35973306D01*
X8727178Y35973308D01*
X8727182Y35973312D01*
X8784778Y36086350D01*
X8784778Y36086351D01*
X8784779Y36086352D01*
X8799631Y36180129D01*
X8799632Y36180135D01*
X8799631Y37043172D01*
X8784778Y37136958D01*
X8727182Y37249996D01*
X8637474Y37339704D01*
X8524436Y37397300D01*
X8524434Y37397300D01*
X8524433Y37397301D01*
X8457279Y37407936D01*
X8430651Y37412154D01*
X6367614Y37412153D01*
X6273828Y37397300D01*
X6160790Y37339704D01*
X6160786Y37339700D01*
X6160784Y37339699D01*
X6071086Y37250001D01*
X6071084Y37249998D01*
X6071082Y37249996D01*
X6058636Y37225569D01*
X6013484Y37136955D01*
X5998632Y37043178D01*
X3915709Y37043178D01*
X3908111Y37054807D01*
X3750916Y37225567D01*
X3573312Y37363801D01*
X3532500Y37420511D01*
X3528825Y37490284D01*
X3563456Y37550967D01*
X3573313Y37559508D01*
X3750916Y37697741D01*
X3908111Y37868501D01*
X3908112Y37868503D01*
X3908115Y37868506D01*
X4035056Y38062805D01*
X4053249Y38104281D01*
X4079361Y38163809D01*
X5899132Y38163809D01*
X5905533Y38104281D01*
X5905535Y38104274D01*
X5955777Y37969567D01*
X5955781Y37969560D01*
X6041941Y37854466D01*
X6041944Y37854463D01*
X6157038Y37768303D01*
X6157045Y37768299D01*
X6291752Y37718057D01*
X6291759Y37718055D01*
X6351287Y37711654D01*
X7149132Y37711654D01*
X7649132Y37711654D01*
X8446976Y37711654D01*
X8506504Y37718055D01*
X8506511Y37718057D01*
X8641218Y37768299D01*
X8641225Y37768303D01*
X8756319Y37854463D01*
X8756322Y37854466D01*
X8842482Y37969560D01*
X8842486Y37969567D01*
X8892728Y38104274D01*
X8892730Y38104281D01*
X8899131Y38163809D01*
X8899132Y38163826D01*
X8899132Y38361654D01*
X7649132Y38361654D01*
X7649132Y37711654D01*
X7149132Y37711654D01*
X7149132Y38361654D01*
X5899132Y38361654D01*
X5899132Y38163809D01*
X4079361Y38163809D01*
X4128289Y38275354D01*
X4157880Y38392209D01*
X4190405Y38449449D01*
X5012791Y39271835D01*
X5074114Y39305320D01*
X5100472Y39308154D01*
X5797479Y39308154D01*
X5864518Y39288469D01*
G37*
G04 #@! TD.AperFunction*
G04 #@! TA.AperFunction,Conductor*
G36*
X73651206Y47457469D02*
G01*
X73671848Y47440835D01*
X74663248Y46449435D01*
X74663249Y46449434D01*
X74691848Y46420835D01*
X74754413Y46358269D01*
X74861612Y46286641D01*
X74861614Y46286640D01*
X74980719Y46237306D01*
X74980728Y46237303D01*
X75107164Y46212154D01*
X75107169Y46212154D01*
X75107170Y46212154D01*
X75236094Y46212154D01*
X75366288Y46212154D01*
X75433327Y46192469D01*
X75467862Y46159278D01*
X75537534Y46059776D01*
X75692250Y45905060D01*
X75692253Y45905057D01*
X75692255Y45905056D01*
X75804218Y45826657D01*
X75871494Y45779551D01*
X75904999Y45763927D01*
X75957438Y45717753D01*
X75976588Y45650559D01*
X75956371Y45583679D01*
X75904996Y45539164D01*
X75821558Y45500256D01*
X75821552Y45500253D01*
X75628058Y45364767D01*
X75628052Y45364762D01*
X75461023Y45197733D01*
X75461018Y45197727D01*
X75325532Y45004233D01*
X75325531Y45004231D01*
X75225702Y44790146D01*
X75225699Y44790140D01*
X75168496Y44576654D01*
X76066120Y44576654D01*
X76033207Y44519647D01*
X75999132Y44392480D01*
X75999132Y44260828D01*
X76033207Y44133661D01*
X76066120Y44076654D01*
X75168496Y44076654D01*
X75225699Y43863167D01*
X75225702Y43863161D01*
X75325531Y43649075D01*
X75461026Y43455571D01*
X75628053Y43288544D01*
X75814163Y43158227D01*
X75857788Y43103650D01*
X75864980Y43034152D01*
X75833457Y42971797D01*
X75814162Y42955078D01*
X75628058Y42824767D01*
X75628052Y42824762D01*
X75461023Y42657733D01*
X75461018Y42657727D01*
X75325532Y42464233D01*
X75325531Y42464231D01*
X75225702Y42250146D01*
X75225699Y42250140D01*
X75168496Y42036654D01*
X76066120Y42036654D01*
X76033207Y41979647D01*
X75999132Y41852480D01*
X75999132Y41720828D01*
X76033207Y41593661D01*
X76066120Y41536654D01*
X75168496Y41536654D01*
X75225699Y41323167D01*
X75225702Y41323161D01*
X75325531Y41109075D01*
X75461026Y40915571D01*
X75628049Y40748548D01*
X75821553Y40613053D01*
X75904998Y40574143D01*
X75957437Y40527971D01*
X75976589Y40460777D01*
X75956373Y40393896D01*
X75904998Y40349379D01*
X75871494Y40333756D01*
X75871493Y40333755D01*
X75871489Y40333753D01*
X75739773Y40241525D01*
X75673567Y40219198D01*
X75605800Y40236208D01*
X75580973Y40255415D01*
X68570916Y47265473D01*
X68537431Y47326796D01*
X68542415Y47396488D01*
X68584287Y47452421D01*
X68649751Y47476838D01*
X68658597Y47477154D01*
X73584167Y47477154D01*
X73651206Y47457469D01*
G37*
G04 #@! TD.AperFunction*
G04 #@! TA.AperFunction,Conductor*
G36*
X76749132Y42219666D02*
G01*
X76692125Y42252579D01*
X76564958Y42286654D01*
X76433306Y42286654D01*
X76306139Y42252579D01*
X76249132Y42219666D01*
X76249132Y43893642D01*
X76306139Y43860729D01*
X76433306Y43826654D01*
X76564958Y43826654D01*
X76692125Y43860729D01*
X76749132Y43893642D01*
X76749132Y42219666D01*
G37*
G04 #@! TD.AperFunction*
G04 #@! TA.AperFunction,Conductor*
G36*
X54849132Y71562538D02*
G01*
X54856713Y71563739D01*
X54856721Y71563741D01*
X55021389Y71617245D01*
X55175656Y71695849D01*
X55315734Y71797621D01*
X55438166Y71920053D01*
X55438170Y71920058D01*
X55477171Y71973738D01*
X55532501Y72016404D01*
X55602114Y72022383D01*
X55663909Y71989778D01*
X55684221Y71963974D01*
X55731048Y71884792D01*
X55731055Y71884783D01*
X55847261Y71768577D01*
X55847269Y71768571D01*
X55883755Y71746993D01*
X55931438Y71695923D01*
X55944632Y71640262D01*
X55944632Y55747191D01*
X55946629Y55737149D01*
X55969781Y55620750D01*
X55969784Y55620741D01*
X56019117Y55501637D01*
X56019124Y55501625D01*
X56090747Y55394435D01*
X56090750Y55394431D01*
X58046821Y53438362D01*
X58690747Y52794436D01*
X58690749Y52794434D01*
X58731650Y52753533D01*
X58781913Y52703269D01*
X58889112Y52631641D01*
X58889114Y52631640D01*
X59008219Y52582306D01*
X59008228Y52582303D01*
X59134664Y52557154D01*
X59134669Y52557154D01*
X59134670Y52557154D01*
X59263594Y52557154D01*
X73576667Y52557154D01*
X73643706Y52537469D01*
X73664348Y52520835D01*
X74746909Y51438272D01*
X74746912Y51438269D01*
X74812262Y51394605D01*
X74812263Y51394604D01*
X74854101Y51366647D01*
X74854115Y51366639D01*
X74973219Y51317306D01*
X74973228Y51317303D01*
X75099664Y51292154D01*
X75099669Y51292154D01*
X75099670Y51292154D01*
X75228594Y51292154D01*
X75366288Y51292154D01*
X75433327Y51272469D01*
X75467862Y51239278D01*
X75537534Y51139776D01*
X75692250Y50985060D01*
X75692253Y50985057D01*
X75692255Y50985056D01*
X75744127Y50948735D01*
X75871493Y50859551D01*
X76022715Y50789035D01*
X76075154Y50742862D01*
X76094306Y50675668D01*
X76074090Y50608787D01*
X76022717Y50564272D01*
X75871494Y50493756D01*
X75871493Y50493755D01*
X75871489Y50493753D01*
X75692253Y50368251D01*
X75537534Y50213532D01*
X75492700Y50149502D01*
X75438123Y50105877D01*
X75368625Y50098684D01*
X75306270Y50130206D01*
X75303476Y50132912D01*
X74256351Y51180038D01*
X74149154Y51251665D01*
X74149151Y51251666D01*
X74149148Y51251668D01*
X74093440Y51274742D01*
X74030043Y51301002D01*
X74030038Y51301002D01*
X74030035Y51301004D01*
X73939485Y51319015D01*
X73903597Y51326153D01*
X73903596Y51326154D01*
X73903595Y51326154D01*
X59061597Y51326154D01*
X58994558Y51345839D01*
X58973916Y51362473D01*
X45838951Y64497438D01*
X45805466Y64558761D01*
X45802632Y64585119D01*
X45802632Y71610102D01*
X45822317Y71677141D01*
X45863511Y71716834D01*
X45900388Y71738643D01*
X45950997Y71768573D01*
X45950999Y71768575D01*
X45951002Y71768577D01*
X46067208Y71884783D01*
X46067211Y71884787D01*
X46067213Y71884789D01*
X46150876Y72026256D01*
X46155452Y72042007D01*
X46193057Y72100894D01*
X46256529Y72130102D01*
X46325715Y72120357D01*
X46362210Y72095096D01*
X47816209Y70641098D01*
X47928572Y70528734D01*
X47928575Y70528732D01*
X47972678Y70503270D01*
X47972679Y70503269D01*
X48066185Y70449282D01*
X48066184Y70449282D01*
X48111786Y70437063D01*
X48219680Y70408153D01*
X48219683Y70408153D01*
X48386181Y70408153D01*
X48386197Y70408154D01*
X51012067Y70408154D01*
X51012083Y70408153D01*
X51019679Y70408153D01*
X51178582Y70408153D01*
X51178585Y70408153D01*
X51332075Y70449281D01*
X51425584Y70503269D01*
X51425586Y70503269D01*
X51425586Y70503270D01*
X51469688Y70528732D01*
X51469691Y70528734D01*
X51589121Y70648164D01*
X51589123Y70648167D01*
X52540791Y71599835D01*
X52602114Y71633320D01*
X52628472Y71636154D01*
X52697675Y71636154D01*
X52890961Y71674601D01*
X52890971Y71674604D01*
X53073039Y71750018D01*
X53073052Y71750025D01*
X53236913Y71859514D01*
X53236917Y71859517D01*
X53376269Y71998869D01*
X53387985Y72016404D01*
X53436467Y72088962D01*
X53490079Y72133767D01*
X53559403Y72142474D01*
X53622431Y72112320D01*
X53650052Y72076370D01*
X53658327Y72060130D01*
X53760099Y71920051D01*
X53882529Y71797621D01*
X54022607Y71695849D01*
X54176874Y71617245D01*
X54341542Y71563741D01*
X54341550Y71563739D01*
X54349131Y71562538D01*
X54349132Y71562538D01*
X54349132Y72631324D01*
X54368877Y72611579D01*
X54454387Y72562210D01*
X54549762Y72536654D01*
X54648502Y72536654D01*
X54743877Y72562210D01*
X54829387Y72611579D01*
X54849132Y72631324D01*
X54849132Y71562538D01*
G37*
G04 #@! TD.AperFunction*
G04 #@! TA.AperFunction,Conductor*
G36*
X33443706Y77737469D02*
G01*
X33464348Y77720835D01*
X38162313Y73022870D01*
X38195798Y72961547D01*
X38198632Y72935189D01*
X38198632Y72538110D01*
X38198631Y72538110D01*
X38237079Y72344824D01*
X38237082Y72344814D01*
X38312496Y72162746D01*
X38312503Y72162733D01*
X38421992Y71998872D01*
X38421995Y71998868D01*
X38561346Y71859517D01*
X38561350Y71859514D01*
X38725211Y71750025D01*
X38725224Y71750018D01*
X38907292Y71674604D01*
X38907302Y71674601D01*
X39100589Y71636154D01*
X39100591Y71636154D01*
X39297675Y71636154D01*
X39490961Y71674601D01*
X39490971Y71674604D01*
X39673039Y71750018D01*
X39673052Y71750025D01*
X39836913Y71859514D01*
X39836917Y71859517D01*
X39976269Y71998869D01*
X39987985Y72016404D01*
X40036467Y72088962D01*
X40090079Y72133767D01*
X40159403Y72142474D01*
X40222431Y72112320D01*
X40250052Y72076370D01*
X40258327Y72060130D01*
X40360099Y71920051D01*
X40482529Y71797621D01*
X40622607Y71695849D01*
X40776874Y71617245D01*
X40941542Y71563741D01*
X40941550Y71563739D01*
X40949131Y71562538D01*
X40949132Y71562538D01*
X40949132Y72631324D01*
X40968877Y72611579D01*
X41054387Y72562210D01*
X41149762Y72536654D01*
X41248502Y72536654D01*
X41343877Y72562210D01*
X41429387Y72611579D01*
X41449132Y72631324D01*
X41449132Y71562538D01*
X41456713Y71563739D01*
X41456721Y71563741D01*
X41621389Y71617245D01*
X41775656Y71695849D01*
X41915734Y71797621D01*
X42038164Y71920051D01*
X42139936Y72060129D01*
X42148209Y72076366D01*
X42196183Y72127162D01*
X42264004Y72143957D01*
X42330139Y72121420D01*
X42361796Y72088962D01*
X42421992Y71998872D01*
X42421995Y71998868D01*
X42559313Y71861551D01*
X42592798Y71800228D01*
X42595632Y71773870D01*
X42595632Y67512994D01*
X42575947Y67445955D01*
X42559313Y67425313D01*
X42085473Y66951473D01*
X42024150Y66917988D01*
X41997792Y66915154D01*
X41886197Y66915154D01*
X41886181Y66915155D01*
X41878585Y66915155D01*
X41719679Y66915155D01*
X41712083Y66915155D01*
X41712067Y66915154D01*
X35377782Y66915154D01*
X35310743Y66934839D01*
X35302230Y66940944D01*
X35301395Y66941468D01*
X35301394Y66941470D01*
X35148654Y67037443D01*
X34978387Y67097022D01*
X34978384Y67097022D01*
X34978381Y67097023D01*
X34799136Y67117219D01*
X34799128Y67117219D01*
X34619882Y67097023D01*
X34619873Y67097021D01*
X34589467Y67086381D01*
X34567587Y67078724D01*
X34497810Y67075162D01*
X34437182Y67109890D01*
X34404954Y67171883D01*
X34402632Y67195766D01*
X34402632Y71610102D01*
X34422317Y71677141D01*
X34463511Y71716834D01*
X34500388Y71738643D01*
X34550997Y71768573D01*
X34550999Y71768575D01*
X34551002Y71768577D01*
X34667208Y71884783D01*
X34667211Y71884787D01*
X34667213Y71884789D01*
X34750876Y72026256D01*
X34780192Y72127162D01*
X34796729Y72184080D01*
X34796730Y72184086D01*
X34799631Y72220952D01*
X34799632Y72220967D01*
X34799632Y73602340D01*
X34799632Y73602348D01*
X34796730Y73639223D01*
X34750876Y73797052D01*
X34667213Y73938519D01*
X34550997Y74054735D01*
X34409530Y74138398D01*
X34279667Y74176127D01*
X34251705Y74184251D01*
X34251703Y74184251D01*
X34251701Y74184252D01*
X34214826Y74187154D01*
X33383438Y74187154D01*
X33346563Y74184252D01*
X33346561Y74184251D01*
X33346558Y74184251D01*
X33230356Y74150490D01*
X33188734Y74138398D01*
X33047267Y74054735D01*
X33047265Y74054733D01*
X33047261Y74054730D01*
X32931055Y73938524D01*
X32931049Y73938516D01*
X32910195Y73903254D01*
X32848627Y73799146D01*
X32847387Y73797050D01*
X32845046Y73788992D01*
X32807438Y73730107D01*
X32743965Y73700902D01*
X32674779Y73710649D01*
X32622868Y73754697D01*
X32576271Y73824436D01*
X32436914Y73963793D01*
X32273046Y74073286D01*
X32265617Y74076363D01*
X32231787Y74090375D01*
X32090967Y74148705D01*
X32011018Y74164608D01*
X31897675Y74187154D01*
X31897673Y74187154D01*
X31700591Y74187154D01*
X31700589Y74187154D01*
X31536259Y74154466D01*
X31507297Y74148705D01*
X31507295Y74148704D01*
X31507292Y74148703D01*
X31325224Y74073289D01*
X31325211Y74073282D01*
X31161350Y73963793D01*
X31161346Y73963790D01*
X31021995Y73824439D01*
X31021992Y73824435D01*
X30912503Y73660574D01*
X30909630Y73655198D01*
X30907821Y73656164D01*
X30869860Y73609051D01*
X30803568Y73586980D01*
X30735867Y73604254D01*
X30688253Y73655388D01*
X30686609Y73658985D01*
X30685766Y73660561D01*
X30685764Y73660568D01*
X30576271Y73824436D01*
X30436914Y73963793D01*
X30273046Y74073286D01*
X30265617Y74076363D01*
X30231787Y74090375D01*
X30090967Y74148705D01*
X30011018Y74164608D01*
X29897675Y74187154D01*
X29897673Y74187154D01*
X29700591Y74187154D01*
X29700589Y74187154D01*
X29536259Y74154466D01*
X29507297Y74148705D01*
X29507295Y74148704D01*
X29507292Y74148703D01*
X29325224Y74073289D01*
X29325211Y74073282D01*
X29161350Y73963793D01*
X29161346Y73963790D01*
X29021992Y73824436D01*
X28961796Y73734345D01*
X28908184Y73689540D01*
X28838859Y73680833D01*
X28775832Y73710987D01*
X28748208Y73746943D01*
X28739935Y73763178D01*
X28638164Y73903256D01*
X28515734Y74025686D01*
X28375656Y74127458D01*
X28221387Y74206062D01*
X28056716Y74259568D01*
X28056717Y74259568D01*
X28049132Y74260769D01*
X28049132Y73191984D01*
X28029387Y73211729D01*
X27943877Y73261098D01*
X27848502Y73286654D01*
X27749762Y73286654D01*
X27654387Y73261098D01*
X27568877Y73211729D01*
X27549132Y73191984D01*
X27549132Y74260768D01*
X27549131Y74260769D01*
X27541547Y74259568D01*
X27376876Y74206062D01*
X27222607Y74127458D01*
X27082529Y74025686D01*
X26960099Y73903256D01*
X26858327Y73763178D01*
X26779723Y73608911D01*
X26726217Y73444238D01*
X26699132Y73273225D01*
X26699132Y73161654D01*
X27518802Y73161654D01*
X27499057Y73141909D01*
X27449688Y73056399D01*
X27424132Y72961024D01*
X27424132Y72862284D01*
X27449688Y72766909D01*
X27499057Y72681399D01*
X27518802Y72661654D01*
X26699132Y72661654D01*
X26699132Y72550082D01*
X26726217Y72379069D01*
X26779723Y72214396D01*
X26858327Y72060129D01*
X26960099Y71920051D01*
X27082529Y71797621D01*
X27222607Y71695849D01*
X27376874Y71617245D01*
X27541542Y71563741D01*
X27541550Y71563739D01*
X27549131Y71562538D01*
X27549132Y71562538D01*
X27549132Y72631324D01*
X27568877Y72611579D01*
X27654387Y72562210D01*
X27749762Y72536654D01*
X27848502Y72536654D01*
X27943877Y72562210D01*
X28029387Y72611579D01*
X28049132Y72631324D01*
X28049132Y71562538D01*
X28056713Y71563739D01*
X28056721Y71563741D01*
X28221389Y71617245D01*
X28375656Y71695849D01*
X28515734Y71797621D01*
X28638164Y71920051D01*
X28739936Y72060129D01*
X28748209Y72076366D01*
X28796183Y72127162D01*
X28864004Y72143957D01*
X28930139Y72121420D01*
X28961796Y72088962D01*
X29021992Y71998872D01*
X29021995Y71998868D01*
X29108313Y71912551D01*
X29141798Y71851228D01*
X29144632Y71824870D01*
X29144632Y69210355D01*
X29125625Y69144382D01*
X29073343Y69061178D01*
X29013763Y68890908D01*
X29013762Y68890903D01*
X28993567Y68711657D01*
X28993567Y68711650D01*
X29013762Y68532404D01*
X29013763Y68532399D01*
X29073343Y68362130D01*
X29169316Y68209391D01*
X29296869Y68081838D01*
X29449608Y67985865D01*
X29619877Y67926285D01*
X29619882Y67926284D01*
X29799128Y67906089D01*
X29799132Y67906089D01*
X29799136Y67906089D01*
X29978381Y67926284D01*
X29978386Y67926285D01*
X30148655Y67985865D01*
X30301394Y68081838D01*
X30428947Y68209391D01*
X30524920Y68362130D01*
X30584500Y68532399D01*
X30584501Y68532404D01*
X30604697Y68711650D01*
X30604697Y68711657D01*
X30584501Y68890903D01*
X30584500Y68890908D01*
X30524920Y69061178D01*
X30472639Y69144382D01*
X30453632Y69210355D01*
X30453632Y71824870D01*
X30473317Y71891909D01*
X30489951Y71912551D01*
X30576268Y71998868D01*
X30576271Y71998872D01*
X30685760Y72162733D01*
X30688634Y72168110D01*
X30690440Y72167144D01*
X30728417Y72214266D01*
X30794712Y72236327D01*
X30862411Y72219045D01*
X30910019Y72167905D01*
X30911658Y72164314D01*
X30912503Y72162733D01*
X31021992Y71998872D01*
X31021995Y71998868D01*
X31159313Y71861551D01*
X31192798Y71800228D01*
X31195632Y71773870D01*
X31195632Y67106617D01*
X31175947Y67039578D01*
X31123143Y66993823D01*
X31053985Y66983879D01*
X31005660Y67001623D01*
X30948654Y67037443D01*
X30778387Y67097022D01*
X30778384Y67097022D01*
X30778381Y67097023D01*
X30599136Y67117219D01*
X30599128Y67117219D01*
X30419882Y67097023D01*
X30419877Y67097022D01*
X30249610Y67037443D01*
X30096870Y66941470D01*
X30096869Y66941469D01*
X29969316Y66813916D01*
X29873343Y66661177D01*
X29813763Y66490908D01*
X29813762Y66490903D01*
X29793567Y66311657D01*
X29793567Y66311650D01*
X29813762Y66132404D01*
X29813763Y66132399D01*
X29873343Y65962130D01*
X29973021Y65803496D01*
X29971702Y65802667D01*
X29994988Y65745623D01*
X29995632Y65733003D01*
X29995632Y58412994D01*
X29975947Y58345955D01*
X29959313Y58325313D01*
X29244457Y57610457D01*
X29183134Y57576972D01*
X29113442Y57581956D01*
X29080616Y57600282D01*
X29020038Y57647432D01*
X28973313Y57683801D01*
X28932500Y57740512D01*
X28928827Y57810285D01*
X28963458Y57870968D01*
X28973314Y57879507D01*
X29150909Y58017735D01*
X29150912Y58017738D01*
X29150916Y58017741D01*
X29308111Y58188501D01*
X29308112Y58188503D01*
X29308115Y58188506D01*
X29435056Y58382805D01*
X29528289Y58595353D01*
X29585265Y58820345D01*
X29585267Y58820356D01*
X29604432Y59051647D01*
X29604432Y59051660D01*
X29585267Y59282951D01*
X29585265Y59282962D01*
X29528289Y59507954D01*
X29435056Y59720502D01*
X29435056Y59720503D01*
X29308111Y59914807D01*
X29150916Y60085567D01*
X28967758Y60228124D01*
X28763635Y60338590D01*
X28544113Y60413952D01*
X28315181Y60452154D01*
X28083083Y60452154D01*
X27854151Y60413952D01*
X27854149Y60413951D01*
X27854147Y60413951D01*
X27748619Y60377722D01*
X27634629Y60338590D01*
X27430506Y60228124D01*
X27430504Y60228122D01*
X27430503Y60228122D01*
X27430497Y60228118D01*
X27247354Y60085572D01*
X27247348Y60085567D01*
X27090153Y59914807D01*
X27090151Y59914805D01*
X27090148Y59914801D01*
X26963207Y59720502D01*
X26869974Y59507954D01*
X26812998Y59282962D01*
X26812996Y59282951D01*
X26793832Y59051660D01*
X26793832Y59051647D01*
X26812996Y58820356D01*
X26812998Y58820345D01*
X26869974Y58595353D01*
X26963207Y58382805D01*
X27090148Y58188506D01*
X27247351Y58017738D01*
X27247354Y58017735D01*
X27424950Y57879507D01*
X27465763Y57822797D01*
X27469438Y57753024D01*
X27434806Y57692341D01*
X27424950Y57683801D01*
X27268628Y57562130D01*
X27247348Y57545567D01*
X27090153Y57374807D01*
X27090151Y57374805D01*
X27090148Y57374801D01*
X26963207Y57180502D01*
X26869973Y56967950D01*
X26869973Y56967949D01*
X26833599Y56824315D01*
X26801075Y56767075D01*
X25069528Y55035528D01*
X25008205Y55002043D01*
X24959063Y55001320D01*
X24901108Y55012154D01*
X24697156Y55012154D01*
X24496676Y54974678D01*
X24371425Y54926155D01*
X24301803Y54920294D01*
X24240062Y54953004D01*
X24205807Y55013900D01*
X24202632Y55041783D01*
X24202632Y55517328D01*
X24222317Y55584367D01*
X24238951Y55605009D01*
X25465348Y56831406D01*
X25465359Y56831416D01*
X25510059Y56876116D01*
X25582053Y56948110D01*
X25582054Y56948112D01*
X25582057Y56948116D01*
X25661504Y57085723D01*
X25661506Y57085728D01*
X25676554Y57141891D01*
X25676558Y57141906D01*
X25702633Y57239215D01*
X25702633Y57398120D01*
X25702633Y57408109D01*
X25702632Y57408122D01*
X25702632Y62593104D01*
X26078632Y62593104D01*
X26078632Y62370203D01*
X26078633Y62370187D01*
X26107726Y62149201D01*
X26107729Y62149188D01*
X26165422Y61933873D01*
X26165425Y61933863D01*
X26250725Y61727931D01*
X26250727Y61727927D01*
X26362184Y61534880D01*
X26362190Y61534871D01*
X26497883Y61358031D01*
X26497889Y61358024D01*
X26655502Y61200411D01*
X26655509Y61200405D01*
X26832349Y61064712D01*
X26832358Y61064706D01*
X27025405Y60953249D01*
X27025409Y60953247D01*
X27231341Y60867947D01*
X27231351Y60867944D01*
X27446669Y60810250D01*
X27446672Y60810249D01*
X27446679Y60810248D01*
X27667665Y60781155D01*
X27667669Y60781154D01*
X27667675Y60781154D01*
X27667682Y60781154D01*
X27890582Y60781154D01*
X27890589Y60781154D01*
X27890595Y60781154D01*
X27890598Y60781155D01*
X28111584Y60810248D01*
X28111589Y60810249D01*
X28111595Y60810250D01*
X28326913Y60867944D01*
X28326915Y60867945D01*
X28326922Y60867947D01*
X28532854Y60953247D01*
X28532858Y60953249D01*
X28725906Y61064706D01*
X28725914Y61064712D01*
X28902754Y61200405D01*
X28902761Y61200411D01*
X29060374Y61358024D01*
X29060380Y61358031D01*
X29196073Y61534871D01*
X29196080Y61534880D01*
X29307537Y61727928D01*
X29392842Y61933873D01*
X29450536Y62149191D01*
X29479632Y62370197D01*
X29479632Y62593111D01*
X29450536Y62814117D01*
X29392842Y63029435D01*
X29307537Y63235380D01*
X29196080Y63428428D01*
X29060379Y63605278D01*
X28902756Y63762901D01*
X28725906Y63898602D01*
X28532858Y64010059D01*
X28326913Y64095364D01*
X28111595Y64153058D01*
X27890589Y64182154D01*
X27667675Y64182154D01*
X27446669Y64153058D01*
X27231351Y64095364D01*
X27025406Y64010059D01*
X26832358Y63898602D01*
X26832349Y63898595D01*
X26655509Y63762902D01*
X26655502Y63762896D01*
X26497889Y63605283D01*
X26497883Y63605276D01*
X26451158Y63544382D01*
X26362184Y63428428D01*
X26269512Y63267917D01*
X26250727Y63235380D01*
X26250725Y63235376D01*
X26165425Y63029444D01*
X26165423Y63029437D01*
X26165422Y63029435D01*
X26107728Y62814117D01*
X26107727Y62814111D01*
X26107726Y62814106D01*
X26078633Y62593120D01*
X26078632Y62593104D01*
X25702632Y62593104D01*
X25702632Y64724589D01*
X25702633Y64724607D01*
X25702633Y64891106D01*
X25702632Y64891109D01*
X25676558Y64988415D01*
X25661505Y65044596D01*
X25582053Y65182212D01*
X25469690Y65294575D01*
X25469688Y65294575D01*
X25459485Y65304779D01*
X25459480Y65304783D01*
X24392261Y66372002D01*
X24392257Y66372007D01*
X24382053Y66382210D01*
X24382053Y66382212D01*
X24269690Y66494575D01*
X24182445Y66544945D01*
X24132075Y66574027D01*
X23978585Y66615155D01*
X23819679Y66615155D01*
X23812083Y66615155D01*
X23812067Y66615154D01*
X15300472Y66615154D01*
X15233433Y66634839D01*
X15212791Y66651473D01*
X14838951Y67025313D01*
X14805466Y67086636D01*
X14802632Y67112994D01*
X14802632Y73088911D01*
X14822317Y73155950D01*
X14870336Y73199395D01*
X14937472Y73233603D01*
X14937474Y73233604D01*
X14937475Y73233605D01*
X14937479Y73233608D01*
X15027177Y73323306D01*
X15027178Y73323308D01*
X15027182Y73323312D01*
X15084778Y73436350D01*
X15084778Y73436351D01*
X15084779Y73436352D01*
X15099631Y73530129D01*
X15099632Y73530135D01*
X15099631Y73887656D01*
X15119315Y73954693D01*
X15172119Y74000448D01*
X15223631Y74011654D01*
X15424132Y74011654D01*
X15924132Y74011654D01*
X16246976Y74011654D01*
X16306504Y74018055D01*
X16306511Y74018057D01*
X16441218Y74068299D01*
X16441225Y74068303D01*
X16556319Y74154463D01*
X16556322Y74154466D01*
X16642482Y74269560D01*
X16642486Y74269567D01*
X16692728Y74404274D01*
X16692730Y74404281D01*
X16699131Y74463809D01*
X16699132Y74463826D01*
X16699132Y75361654D01*
X15924132Y75361654D01*
X15924132Y74011654D01*
X15424132Y74011654D01*
X15424132Y75861654D01*
X15924132Y75861654D01*
X16699132Y75861654D01*
X16699132Y76759481D01*
X16699131Y76759498D01*
X16692730Y76819026D01*
X16692728Y76819033D01*
X16642486Y76953740D01*
X16642482Y76953747D01*
X16556322Y77068841D01*
X16556319Y77068844D01*
X16441225Y77155004D01*
X16441218Y77155008D01*
X16306511Y77205250D01*
X16306504Y77205252D01*
X16246976Y77211653D01*
X16246960Y77211654D01*
X15924132Y77211654D01*
X15924132Y75861654D01*
X15424132Y75861654D01*
X15424132Y77211654D01*
X15101304Y77211654D01*
X15101287Y77211653D01*
X15041759Y77205252D01*
X15041752Y77205250D01*
X14907045Y77155008D01*
X14907038Y77155004D01*
X14791944Y77068844D01*
X14791941Y77068841D01*
X14705781Y76953747D01*
X14705777Y76953740D01*
X14655535Y76819033D01*
X14655533Y76819026D01*
X14649132Y76759498D01*
X14649132Y76735654D01*
X14629447Y76668615D01*
X14576643Y76622860D01*
X14525132Y76611654D01*
X13873132Y76611654D01*
X13806093Y76631339D01*
X13760338Y76684143D01*
X13749132Y76735654D01*
X13749132Y76759481D01*
X13749131Y76759498D01*
X13742730Y76819026D01*
X13742728Y76819033D01*
X13692486Y76953740D01*
X13692482Y76953747D01*
X13606322Y77068841D01*
X13606319Y77068844D01*
X13491225Y77155004D01*
X13491218Y77155008D01*
X13356511Y77205250D01*
X13356504Y77205252D01*
X13296976Y77211653D01*
X13296960Y77211654D01*
X12974132Y77211654D01*
X12974132Y74011654D01*
X13174632Y74011654D01*
X13241671Y73991969D01*
X13287426Y73939165D01*
X13298632Y73887654D01*
X13298632Y73530136D01*
X13306812Y73478489D01*
X13313486Y73436350D01*
X13334772Y73394575D01*
X13371083Y73323311D01*
X13371086Y73323306D01*
X13460784Y73233608D01*
X13460791Y73233603D01*
X13527928Y73199395D01*
X13578723Y73151421D01*
X13595632Y73088911D01*
X13595632Y66901109D01*
X13595631Y66901096D01*
X13595631Y66891107D01*
X13595631Y66732201D01*
X13626994Y66615155D01*
X13636760Y66578709D01*
X13656455Y66544597D01*
X13656455Y66544596D01*
X13716208Y66441099D01*
X13716212Y66441094D01*
X14628572Y65528734D01*
X14628580Y65528728D01*
X14675515Y65501631D01*
X14675516Y65501631D01*
X14766185Y65449282D01*
X14766184Y65449282D01*
X14811787Y65437062D01*
X14919679Y65408153D01*
X14919682Y65408153D01*
X15086181Y65408153D01*
X15086197Y65408154D01*
X23597792Y65408154D01*
X23664831Y65388469D01*
X23685473Y65371835D01*
X24363973Y64693335D01*
X24397458Y64632012D01*
X24392474Y64562320D01*
X24350602Y64506387D01*
X24285138Y64481970D01*
X24276292Y64481654D01*
X7243632Y64481654D01*
X7176593Y64501339D01*
X7130838Y64554143D01*
X7119632Y64605654D01*
X7119632Y65055189D01*
X7139317Y65122228D01*
X7155951Y65142870D01*
X11412010Y69398930D01*
X11412033Y69398951D01*
X11507512Y69494430D01*
X11507515Y69494434D01*
X11579144Y69601634D01*
X11579145Y69601636D01*
X11628479Y69720741D01*
X11628482Y69720750D01*
X11653631Y69847186D01*
X11653632Y69847190D01*
X11653632Y74047712D01*
X11673317Y74114751D01*
X11726121Y74160506D01*
X11795279Y74170450D01*
X11851943Y74146979D01*
X11957043Y74068300D01*
X11957045Y74068299D01*
X12091752Y74018057D01*
X12091759Y74018055D01*
X12151287Y74011654D01*
X12474132Y74011654D01*
X12474132Y77211654D01*
X12224096Y77211654D01*
X12157057Y77231339D01*
X12111302Y77284143D01*
X12101358Y77353301D01*
X12130383Y77416857D01*
X12136415Y77423335D01*
X12433915Y77720835D01*
X12495238Y77754320D01*
X12521596Y77757154D01*
X33376667Y77757154D01*
X33443706Y77737469D01*
G37*
G04 #@! TD.AperFunction*
G04 #@! TA.AperFunction,Conductor*
G36*
X54243706Y75537469D02*
G01*
X54264348Y75520835D01*
X55706002Y74079179D01*
X55739487Y74017856D01*
X55734503Y73948164D01*
X55725055Y73928380D01*
X55700970Y73887654D01*
X55684220Y73859332D01*
X55633150Y73811649D01*
X55564408Y73799146D01*
X55499819Y73825792D01*
X55477168Y73849571D01*
X55438166Y73903254D01*
X55315734Y74025686D01*
X55175656Y74127458D01*
X55021387Y74206062D01*
X54856716Y74259568D01*
X54856717Y74259568D01*
X54849132Y74260769D01*
X54849132Y73191984D01*
X54829387Y73211729D01*
X54743877Y73261098D01*
X54648502Y73286654D01*
X54549762Y73286654D01*
X54454387Y73261098D01*
X54368877Y73211729D01*
X54349132Y73191984D01*
X54349132Y74260768D01*
X54349131Y74260769D01*
X54341547Y74259568D01*
X54176876Y74206062D01*
X54022607Y74127458D01*
X53882529Y74025686D01*
X53760099Y73903256D01*
X53658327Y73763178D01*
X53650053Y73746939D01*
X53602077Y73696144D01*
X53534256Y73679350D01*
X53468122Y73701889D01*
X53436469Y73734342D01*
X53376271Y73824436D01*
X53236914Y73963793D01*
X53073046Y74073286D01*
X53065617Y74076363D01*
X53031787Y74090375D01*
X52890967Y74148705D01*
X52811018Y74164608D01*
X52697675Y74187154D01*
X52697673Y74187154D01*
X52500591Y74187154D01*
X52500589Y74187154D01*
X52336259Y74154466D01*
X52307297Y74148705D01*
X52307295Y74148704D01*
X52307292Y74148703D01*
X52125224Y74073289D01*
X52125211Y74073282D01*
X51961350Y73963793D01*
X51961346Y73963790D01*
X51821995Y73824439D01*
X51821992Y73824435D01*
X51712503Y73660574D01*
X51709630Y73655198D01*
X51707821Y73656164D01*
X51669860Y73609051D01*
X51603568Y73586980D01*
X51535867Y73604254D01*
X51488253Y73655388D01*
X51486609Y73658985D01*
X51485766Y73660561D01*
X51485764Y73660568D01*
X51376271Y73824436D01*
X51236914Y73963793D01*
X51073046Y74073286D01*
X50955728Y74121879D01*
X50915508Y74148754D01*
X49792261Y75272002D01*
X49792257Y75272007D01*
X49782053Y75282210D01*
X49782053Y75282212D01*
X49718792Y75345473D01*
X49685307Y75406796D01*
X49690291Y75476488D01*
X49732163Y75532421D01*
X49797627Y75556838D01*
X49806473Y75557154D01*
X54176667Y75557154D01*
X54243706Y75537469D01*
G37*
G04 #@! TD.AperFunction*
G04 #@! TD*
M02*
