G04 #@! TF.GenerationSoftware,KiCad,Pcbnew,8.0.4*
G04 #@! TF.CreationDate,2025-01-30T11:26:39-05:00*
G04 #@! TF.ProjectId,Cubesat_pcb,43756265-7361-4745-9f70-63622e6b6963,rev?*
G04 #@! TF.SameCoordinates,Original*
G04 #@! TF.FileFunction,AssemblyDrawing,Top*
%FSLAX46Y46*%
G04 Gerber Fmt 4.6, Leading zero omitted, Abs format (unit mm)*
G04 Created by KiCad (PCBNEW 8.0.4) date 2025-01-30 11:26:39*
%MOMM*%
%LPD*%
G01*
G04 APERTURE LIST*
%ADD10C,0.150000*%
%ADD11C,0.100000*%
%ADD12C,0.127000*%
%ADD13C,0.200000*%
G04 APERTURE END LIST*
D10*
X36678951Y15168320D02*
X37393236Y15168320D01*
X37393236Y15168320D02*
X37536093Y15120701D01*
X37536093Y15120701D02*
X37631332Y15025463D01*
X37631332Y15025463D02*
X37678951Y14882606D01*
X37678951Y14882606D02*
X37678951Y14787368D01*
X36678951Y15549273D02*
X36678951Y16215939D01*
X36678951Y16215939D02*
X37678951Y15787368D01*
X75737227Y4056834D02*
X75737227Y5056834D01*
X75737227Y4580644D02*
X76308655Y4580644D01*
X76308655Y4056834D02*
X76308655Y5056834D01*
X76689608Y5056834D02*
X77308655Y5056834D01*
X77308655Y5056834D02*
X76975322Y4675882D01*
X76975322Y4675882D02*
X77118179Y4675882D01*
X77118179Y4675882D02*
X77213417Y4628263D01*
X77213417Y4628263D02*
X77261036Y4580644D01*
X77261036Y4580644D02*
X77308655Y4485406D01*
X77308655Y4485406D02*
X77308655Y4247311D01*
X77308655Y4247311D02*
X77261036Y4152073D01*
X77261036Y4152073D02*
X77213417Y4104454D01*
X77213417Y4104454D02*
X77118179Y4056834D01*
X77118179Y4056834D02*
X76832465Y4056834D01*
X76832465Y4056834D02*
X76737227Y4104454D01*
X76737227Y4104454D02*
X76689608Y4152073D01*
X3737227Y76056834D02*
X3737227Y77056834D01*
X3737227Y76580644D02*
X4308655Y76580644D01*
X4308655Y76056834D02*
X4308655Y77056834D01*
X5308655Y76056834D02*
X4737227Y76056834D01*
X5022941Y76056834D02*
X5022941Y77056834D01*
X5022941Y77056834D02*
X4927703Y76913977D01*
X4927703Y76913977D02*
X4832465Y76818739D01*
X4832465Y76818739D02*
X4737227Y76771120D01*
X53265798Y78406834D02*
X53265798Y77692549D01*
X53265798Y77692549D02*
X53218179Y77549692D01*
X53218179Y77549692D02*
X53122941Y77454454D01*
X53122941Y77454454D02*
X52980084Y77406834D01*
X52980084Y77406834D02*
X52884846Y77406834D01*
X53884846Y77978263D02*
X53789608Y78025882D01*
X53789608Y78025882D02*
X53741989Y78073501D01*
X53741989Y78073501D02*
X53694370Y78168739D01*
X53694370Y78168739D02*
X53694370Y78216358D01*
X53694370Y78216358D02*
X53741989Y78311596D01*
X53741989Y78311596D02*
X53789608Y78359215D01*
X53789608Y78359215D02*
X53884846Y78406834D01*
X53884846Y78406834D02*
X54075322Y78406834D01*
X54075322Y78406834D02*
X54170560Y78359215D01*
X54170560Y78359215D02*
X54218179Y78311596D01*
X54218179Y78311596D02*
X54265798Y78216358D01*
X54265798Y78216358D02*
X54265798Y78168739D01*
X54265798Y78168739D02*
X54218179Y78073501D01*
X54218179Y78073501D02*
X54170560Y78025882D01*
X54170560Y78025882D02*
X54075322Y77978263D01*
X54075322Y77978263D02*
X53884846Y77978263D01*
X53884846Y77978263D02*
X53789608Y77930644D01*
X53789608Y77930644D02*
X53741989Y77883025D01*
X53741989Y77883025D02*
X53694370Y77787787D01*
X53694370Y77787787D02*
X53694370Y77597311D01*
X53694370Y77597311D02*
X53741989Y77502073D01*
X53741989Y77502073D02*
X53789608Y77454454D01*
X53789608Y77454454D02*
X53884846Y77406834D01*
X53884846Y77406834D02*
X54075322Y77406834D01*
X54075322Y77406834D02*
X54170560Y77454454D01*
X54170560Y77454454D02*
X54218179Y77502073D01*
X54218179Y77502073D02*
X54265798Y77597311D01*
X54265798Y77597311D02*
X54265798Y77787787D01*
X54265798Y77787787D02*
X54218179Y77883025D01*
X54218179Y77883025D02*
X54170560Y77930644D01*
X54170560Y77930644D02*
X54075322Y77978263D01*
X53265798Y75956834D02*
X53265798Y75242549D01*
X53265798Y75242549D02*
X53218179Y75099692D01*
X53218179Y75099692D02*
X53122941Y75004454D01*
X53122941Y75004454D02*
X52980084Y74956834D01*
X52980084Y74956834D02*
X52884846Y74956834D01*
X53884846Y75528263D02*
X53789608Y75575882D01*
X53789608Y75575882D02*
X53741989Y75623501D01*
X53741989Y75623501D02*
X53694370Y75718739D01*
X53694370Y75718739D02*
X53694370Y75766358D01*
X53694370Y75766358D02*
X53741989Y75861596D01*
X53741989Y75861596D02*
X53789608Y75909215D01*
X53789608Y75909215D02*
X53884846Y75956834D01*
X53884846Y75956834D02*
X54075322Y75956834D01*
X54075322Y75956834D02*
X54170560Y75909215D01*
X54170560Y75909215D02*
X54218179Y75861596D01*
X54218179Y75861596D02*
X54265798Y75766358D01*
X54265798Y75766358D02*
X54265798Y75718739D01*
X54265798Y75718739D02*
X54218179Y75623501D01*
X54218179Y75623501D02*
X54170560Y75575882D01*
X54170560Y75575882D02*
X54075322Y75528263D01*
X54075322Y75528263D02*
X53884846Y75528263D01*
X53884846Y75528263D02*
X53789608Y75480644D01*
X53789608Y75480644D02*
X53741989Y75433025D01*
X53741989Y75433025D02*
X53694370Y75337787D01*
X53694370Y75337787D02*
X53694370Y75147311D01*
X53694370Y75147311D02*
X53741989Y75052073D01*
X53741989Y75052073D02*
X53789608Y75004454D01*
X53789608Y75004454D02*
X53884846Y74956834D01*
X53884846Y74956834D02*
X54075322Y74956834D01*
X54075322Y74956834D02*
X54170560Y75004454D01*
X54170560Y75004454D02*
X54218179Y75052073D01*
X54218179Y75052073D02*
X54265798Y75147311D01*
X54265798Y75147311D02*
X54265798Y75337787D01*
X54265798Y75337787D02*
X54218179Y75433025D01*
X54218179Y75433025D02*
X54170560Y75480644D01*
X54170560Y75480644D02*
X54075322Y75528263D01*
X73999132Y23761834D02*
X73999132Y24761834D01*
X73999132Y24761834D02*
X74332465Y24047549D01*
X74332465Y24047549D02*
X74665798Y24761834D01*
X74665798Y24761834D02*
X74665798Y23761834D01*
X75475322Y24285644D02*
X75618179Y24238025D01*
X75618179Y24238025D02*
X75665798Y24190406D01*
X75665798Y24190406D02*
X75713417Y24095168D01*
X75713417Y24095168D02*
X75713417Y23952311D01*
X75713417Y23952311D02*
X75665798Y23857073D01*
X75665798Y23857073D02*
X75618179Y23809454D01*
X75618179Y23809454D02*
X75522941Y23761834D01*
X75522941Y23761834D02*
X75141989Y23761834D01*
X75141989Y23761834D02*
X75141989Y24761834D01*
X75141989Y24761834D02*
X75475322Y24761834D01*
X75475322Y24761834D02*
X75570560Y24714215D01*
X75570560Y24714215D02*
X75618179Y24666596D01*
X75618179Y24666596D02*
X75665798Y24571358D01*
X75665798Y24571358D02*
X75665798Y24476120D01*
X75665798Y24476120D02*
X75618179Y24380882D01*
X75618179Y24380882D02*
X75570560Y24333263D01*
X75570560Y24333263D02*
X75475322Y24285644D01*
X75475322Y24285644D02*
X75141989Y24285644D01*
X76284846Y23761834D02*
X76189608Y23809454D01*
X76189608Y23809454D02*
X76141989Y23857073D01*
X76141989Y23857073D02*
X76094370Y23952311D01*
X76094370Y23952311D02*
X76094370Y24238025D01*
X76094370Y24238025D02*
X76141989Y24333263D01*
X76141989Y24333263D02*
X76189608Y24380882D01*
X76189608Y24380882D02*
X76284846Y24428501D01*
X76284846Y24428501D02*
X76427703Y24428501D01*
X76427703Y24428501D02*
X76522941Y24380882D01*
X76522941Y24380882D02*
X76570560Y24333263D01*
X76570560Y24333263D02*
X76618179Y24238025D01*
X76618179Y24238025D02*
X76618179Y23952311D01*
X76618179Y23952311D02*
X76570560Y23857073D01*
X76570560Y23857073D02*
X76522941Y23809454D01*
X76522941Y23809454D02*
X76427703Y23761834D01*
X76427703Y23761834D02*
X76284846Y23761834D01*
X77475322Y23761834D02*
X77475322Y24285644D01*
X77475322Y24285644D02*
X77427703Y24380882D01*
X77427703Y24380882D02*
X77332465Y24428501D01*
X77332465Y24428501D02*
X77141989Y24428501D01*
X77141989Y24428501D02*
X77046751Y24380882D01*
X77475322Y23809454D02*
X77380084Y23761834D01*
X77380084Y23761834D02*
X77141989Y23761834D01*
X77141989Y23761834D02*
X77046751Y23809454D01*
X77046751Y23809454D02*
X76999132Y23904692D01*
X76999132Y23904692D02*
X76999132Y23999930D01*
X76999132Y23999930D02*
X77046751Y24095168D01*
X77046751Y24095168D02*
X77141989Y24142787D01*
X77141989Y24142787D02*
X77380084Y24142787D01*
X77380084Y24142787D02*
X77475322Y24190406D01*
X77951513Y23761834D02*
X77951513Y24428501D01*
X77951513Y24238025D02*
X77999132Y24333263D01*
X77999132Y24333263D02*
X78046751Y24380882D01*
X78046751Y24380882D02*
X78141989Y24428501D01*
X78141989Y24428501D02*
X78237227Y24428501D01*
X78999132Y23761834D02*
X78999132Y24761834D01*
X78999132Y23809454D02*
X78903894Y23761834D01*
X78903894Y23761834D02*
X78713418Y23761834D01*
X78713418Y23761834D02*
X78618180Y23809454D01*
X78618180Y23809454D02*
X78570561Y23857073D01*
X78570561Y23857073D02*
X78522942Y23952311D01*
X78522942Y23952311D02*
X78522942Y24238025D01*
X78522942Y24238025D02*
X78570561Y24333263D01*
X78570561Y24333263D02*
X78618180Y24380882D01*
X78618180Y24380882D02*
X78713418Y24428501D01*
X78713418Y24428501D02*
X78903894Y24428501D01*
X78903894Y24428501D02*
X78999132Y24380882D01*
X75953951Y40183320D02*
X76668236Y40183320D01*
X76668236Y40183320D02*
X76811093Y40135701D01*
X76811093Y40135701D02*
X76906332Y40040463D01*
X76906332Y40040463D02*
X76953951Y39897606D01*
X76953951Y39897606D02*
X76953951Y39802368D01*
X76953951Y41183320D02*
X76953951Y40611892D01*
X76953951Y40897606D02*
X75953951Y40897606D01*
X75953951Y40897606D02*
X76096808Y40802368D01*
X76096808Y40802368D02*
X76192046Y40707130D01*
X76192046Y40707130D02*
X76239665Y40611892D01*
X64665798Y78406834D02*
X64665798Y77692549D01*
X64665798Y77692549D02*
X64618179Y77549692D01*
X64618179Y77549692D02*
X64522941Y77454454D01*
X64522941Y77454454D02*
X64380084Y77406834D01*
X64380084Y77406834D02*
X64284846Y77406834D01*
X65570560Y78406834D02*
X65380084Y78406834D01*
X65380084Y78406834D02*
X65284846Y78359215D01*
X65284846Y78359215D02*
X65237227Y78311596D01*
X65237227Y78311596D02*
X65141989Y78168739D01*
X65141989Y78168739D02*
X65094370Y77978263D01*
X65094370Y77978263D02*
X65094370Y77597311D01*
X65094370Y77597311D02*
X65141989Y77502073D01*
X65141989Y77502073D02*
X65189608Y77454454D01*
X65189608Y77454454D02*
X65284846Y77406834D01*
X65284846Y77406834D02*
X65475322Y77406834D01*
X65475322Y77406834D02*
X65570560Y77454454D01*
X65570560Y77454454D02*
X65618179Y77502073D01*
X65618179Y77502073D02*
X65665798Y77597311D01*
X65665798Y77597311D02*
X65665798Y77835406D01*
X65665798Y77835406D02*
X65618179Y77930644D01*
X65618179Y77930644D02*
X65570560Y77978263D01*
X65570560Y77978263D02*
X65475322Y78025882D01*
X65475322Y78025882D02*
X65284846Y78025882D01*
X65284846Y78025882D02*
X65189608Y77978263D01*
X65189608Y77978263D02*
X65141989Y77930644D01*
X65141989Y77930644D02*
X65094370Y77835406D01*
X64665798Y75956834D02*
X64665798Y75242549D01*
X64665798Y75242549D02*
X64618179Y75099692D01*
X64618179Y75099692D02*
X64522941Y75004454D01*
X64522941Y75004454D02*
X64380084Y74956834D01*
X64380084Y74956834D02*
X64284846Y74956834D01*
X65570560Y75956834D02*
X65380084Y75956834D01*
X65380084Y75956834D02*
X65284846Y75909215D01*
X65284846Y75909215D02*
X65237227Y75861596D01*
X65237227Y75861596D02*
X65141989Y75718739D01*
X65141989Y75718739D02*
X65094370Y75528263D01*
X65094370Y75528263D02*
X65094370Y75147311D01*
X65094370Y75147311D02*
X65141989Y75052073D01*
X65141989Y75052073D02*
X65189608Y75004454D01*
X65189608Y75004454D02*
X65284846Y74956834D01*
X65284846Y74956834D02*
X65475322Y74956834D01*
X65475322Y74956834D02*
X65570560Y75004454D01*
X65570560Y75004454D02*
X65618179Y75052073D01*
X65618179Y75052073D02*
X65665798Y75147311D01*
X65665798Y75147311D02*
X65665798Y75385406D01*
X65665798Y75385406D02*
X65618179Y75480644D01*
X65618179Y75480644D02*
X65570560Y75528263D01*
X65570560Y75528263D02*
X65475322Y75575882D01*
X65475322Y75575882D02*
X65284846Y75575882D01*
X65284846Y75575882D02*
X65189608Y75528263D01*
X65189608Y75528263D02*
X65141989Y75480644D01*
X65141989Y75480644D02*
X65094370Y75385406D01*
X30465798Y78456834D02*
X30465798Y77742549D01*
X30465798Y77742549D02*
X30418179Y77599692D01*
X30418179Y77599692D02*
X30322941Y77504454D01*
X30322941Y77504454D02*
X30180084Y77456834D01*
X30180084Y77456834D02*
X30084846Y77456834D01*
X31370560Y78123501D02*
X31370560Y77456834D01*
X31132465Y78504454D02*
X30894370Y77790168D01*
X30894370Y77790168D02*
X31513417Y77790168D01*
X30465798Y75956834D02*
X30465798Y75242549D01*
X30465798Y75242549D02*
X30418179Y75099692D01*
X30418179Y75099692D02*
X30322941Y75004454D01*
X30322941Y75004454D02*
X30180084Y74956834D01*
X30180084Y74956834D02*
X30084846Y74956834D01*
X31370560Y75623501D02*
X31370560Y74956834D01*
X31132465Y76004454D02*
X30894370Y75290168D01*
X30894370Y75290168D02*
X31513417Y75290168D01*
X3737227Y4056834D02*
X3737227Y5056834D01*
X3737227Y4580644D02*
X4308655Y4580644D01*
X4308655Y4056834D02*
X4308655Y5056834D01*
X5213417Y4723501D02*
X5213417Y4056834D01*
X4975322Y5104454D02*
X4737227Y4390168D01*
X4737227Y4390168D02*
X5356274Y4390168D01*
X75737227Y76056834D02*
X75737227Y77056834D01*
X75737227Y76580644D02*
X76308655Y76580644D01*
X76308655Y76056834D02*
X76308655Y77056834D01*
X76737227Y76961596D02*
X76784846Y77009215D01*
X76784846Y77009215D02*
X76880084Y77056834D01*
X76880084Y77056834D02*
X77118179Y77056834D01*
X77118179Y77056834D02*
X77213417Y77009215D01*
X77213417Y77009215D02*
X77261036Y76961596D01*
X77261036Y76961596D02*
X77308655Y76866358D01*
X77308655Y76866358D02*
X77308655Y76771120D01*
X77308655Y76771120D02*
X77261036Y76628263D01*
X77261036Y76628263D02*
X76689608Y76056834D01*
X76689608Y76056834D02*
X77308655Y76056834D01*
X41865798Y78406834D02*
X41865798Y77692549D01*
X41865798Y77692549D02*
X41818179Y77549692D01*
X41818179Y77549692D02*
X41722941Y77454454D01*
X41722941Y77454454D02*
X41580084Y77406834D01*
X41580084Y77406834D02*
X41484846Y77406834D01*
X42818179Y78406834D02*
X42341989Y78406834D01*
X42341989Y78406834D02*
X42294370Y77930644D01*
X42294370Y77930644D02*
X42341989Y77978263D01*
X42341989Y77978263D02*
X42437227Y78025882D01*
X42437227Y78025882D02*
X42675322Y78025882D01*
X42675322Y78025882D02*
X42770560Y77978263D01*
X42770560Y77978263D02*
X42818179Y77930644D01*
X42818179Y77930644D02*
X42865798Y77835406D01*
X42865798Y77835406D02*
X42865798Y77597311D01*
X42865798Y77597311D02*
X42818179Y77502073D01*
X42818179Y77502073D02*
X42770560Y77454454D01*
X42770560Y77454454D02*
X42675322Y77406834D01*
X42675322Y77406834D02*
X42437227Y77406834D01*
X42437227Y77406834D02*
X42341989Y77454454D01*
X42341989Y77454454D02*
X42294370Y77502073D01*
X41865798Y75956834D02*
X41865798Y75242549D01*
X41865798Y75242549D02*
X41818179Y75099692D01*
X41818179Y75099692D02*
X41722941Y75004454D01*
X41722941Y75004454D02*
X41580084Y74956834D01*
X41580084Y74956834D02*
X41484846Y74956834D01*
X42818179Y75956834D02*
X42341989Y75956834D01*
X42341989Y75956834D02*
X42294370Y75480644D01*
X42294370Y75480644D02*
X42341989Y75528263D01*
X42341989Y75528263D02*
X42437227Y75575882D01*
X42437227Y75575882D02*
X42675322Y75575882D01*
X42675322Y75575882D02*
X42770560Y75528263D01*
X42770560Y75528263D02*
X42818179Y75480644D01*
X42818179Y75480644D02*
X42865798Y75385406D01*
X42865798Y75385406D02*
X42865798Y75147311D01*
X42865798Y75147311D02*
X42818179Y75052073D01*
X42818179Y75052073D02*
X42770560Y75004454D01*
X42770560Y75004454D02*
X42675322Y74956834D01*
X42675322Y74956834D02*
X42437227Y74956834D01*
X42437227Y74956834D02*
X42341989Y75004454D01*
X42341989Y75004454D02*
X42294370Y75052073D01*
X9273418Y66435644D02*
X9606751Y66435644D01*
X9749608Y65911834D02*
X9273418Y65911834D01*
X9273418Y65911834D02*
X9273418Y66911834D01*
X9273418Y66911834D02*
X9749608Y66911834D01*
X10130561Y65959454D02*
X10273418Y65911834D01*
X10273418Y65911834D02*
X10511513Y65911834D01*
X10511513Y65911834D02*
X10606751Y65959454D01*
X10606751Y65959454D02*
X10654370Y66007073D01*
X10654370Y66007073D02*
X10701989Y66102311D01*
X10701989Y66102311D02*
X10701989Y66197549D01*
X10701989Y66197549D02*
X10654370Y66292787D01*
X10654370Y66292787D02*
X10606751Y66340406D01*
X10606751Y66340406D02*
X10511513Y66388025D01*
X10511513Y66388025D02*
X10321037Y66435644D01*
X10321037Y66435644D02*
X10225799Y66483263D01*
X10225799Y66483263D02*
X10178180Y66530882D01*
X10178180Y66530882D02*
X10130561Y66626120D01*
X10130561Y66626120D02*
X10130561Y66721358D01*
X10130561Y66721358D02*
X10178180Y66816596D01*
X10178180Y66816596D02*
X10225799Y66864215D01*
X10225799Y66864215D02*
X10321037Y66911834D01*
X10321037Y66911834D02*
X10559132Y66911834D01*
X10559132Y66911834D02*
X10701989Y66864215D01*
X11130561Y65911834D02*
X11130561Y66911834D01*
X11130561Y66911834D02*
X11511513Y66911834D01*
X11511513Y66911834D02*
X11606751Y66864215D01*
X11606751Y66864215D02*
X11654370Y66816596D01*
X11654370Y66816596D02*
X11701989Y66721358D01*
X11701989Y66721358D02*
X11701989Y66578501D01*
X11701989Y66578501D02*
X11654370Y66483263D01*
X11654370Y66483263D02*
X11606751Y66435644D01*
X11606751Y66435644D02*
X11511513Y66388025D01*
X11511513Y66388025D02*
X11130561Y66388025D01*
X12035323Y66911834D02*
X12654370Y66911834D01*
X12654370Y66911834D02*
X12321037Y66530882D01*
X12321037Y66530882D02*
X12463894Y66530882D01*
X12463894Y66530882D02*
X12559132Y66483263D01*
X12559132Y66483263D02*
X12606751Y66435644D01*
X12606751Y66435644D02*
X12654370Y66340406D01*
X12654370Y66340406D02*
X12654370Y66102311D01*
X12654370Y66102311D02*
X12606751Y66007073D01*
X12606751Y66007073D02*
X12559132Y65959454D01*
X12559132Y65959454D02*
X12463894Y65911834D01*
X12463894Y65911834D02*
X12178180Y65911834D01*
X12178180Y65911834D02*
X12082942Y65959454D01*
X12082942Y65959454D02*
X12035323Y66007073D01*
X13035323Y66816596D02*
X13082942Y66864215D01*
X13082942Y66864215D02*
X13178180Y66911834D01*
X13178180Y66911834D02*
X13416275Y66911834D01*
X13416275Y66911834D02*
X13511513Y66864215D01*
X13511513Y66864215D02*
X13559132Y66816596D01*
X13559132Y66816596D02*
X13606751Y66721358D01*
X13606751Y66721358D02*
X13606751Y66626120D01*
X13606751Y66626120D02*
X13559132Y66483263D01*
X13559132Y66483263D02*
X12987704Y65911834D01*
X12987704Y65911834D02*
X13606751Y65911834D01*
X14035323Y66292787D02*
X14797228Y66292787D01*
X15273418Y65911834D02*
X15273418Y66911834D01*
X15273418Y66911834D02*
X15511513Y66911834D01*
X15511513Y66911834D02*
X15654370Y66864215D01*
X15654370Y66864215D02*
X15749608Y66768977D01*
X15749608Y66768977D02*
X15797227Y66673739D01*
X15797227Y66673739D02*
X15844846Y66483263D01*
X15844846Y66483263D02*
X15844846Y66340406D01*
X15844846Y66340406D02*
X15797227Y66149930D01*
X15797227Y66149930D02*
X15749608Y66054692D01*
X15749608Y66054692D02*
X15654370Y65959454D01*
X15654370Y65959454D02*
X15511513Y65911834D01*
X15511513Y65911834D02*
X15273418Y65911834D01*
X16273418Y66435644D02*
X16606751Y66435644D01*
X16749608Y65911834D02*
X16273418Y65911834D01*
X16273418Y65911834D02*
X16273418Y66911834D01*
X16273418Y66911834D02*
X16749608Y66911834D01*
X17035323Y66911834D02*
X17368656Y65911834D01*
X17368656Y65911834D02*
X17701989Y66911834D01*
X18035323Y65911834D02*
X18035323Y66911834D01*
X18606751Y65911834D02*
X18178180Y66483263D01*
X18606751Y66911834D02*
X18035323Y66340406D01*
X19035323Y65911834D02*
X19035323Y66911834D01*
X19368656Y66911834D02*
X19940084Y66911834D01*
X19654370Y65911834D02*
X19654370Y66911834D01*
X20273418Y66292787D02*
X21035323Y66292787D01*
X21368656Y66911834D02*
X21701989Y65911834D01*
X21701989Y65911834D02*
X22035322Y66911834D01*
X22892465Y65911834D02*
X22321037Y65911834D01*
X22606751Y65911834D02*
X22606751Y66911834D01*
X22606751Y66911834D02*
X22511513Y66768977D01*
X22511513Y66768977D02*
X22416275Y66673739D01*
X22416275Y66673739D02*
X22321037Y66626120D01*
D11*
G04 #@! TO.C,J7*
X35954132Y20581654D02*
X37859132Y20581654D01*
X35954132Y10421654D02*
X35954132Y20581654D01*
X37859132Y20581654D02*
X38494132Y19946654D01*
X38494132Y19946654D02*
X38494132Y10421654D01*
X38494132Y10421654D02*
X35954132Y10421654D01*
G04 #@! TO.C,R1*
X22259132Y53911654D02*
X24799132Y53911654D01*
X23059132Y53911654D02*
G75*
G02*
X21459132Y53911654I-800000J0D01*
G01*
X21459132Y53911654D02*
G75*
G02*
X23059132Y53911654I800000J0D01*
G01*
G04 #@! TO.C,J8*
X48649132Y79161654D02*
X48649132Y71561654D01*
X48649132Y71561654D02*
X49349132Y71561654D01*
X49349132Y73161654D02*
X57849132Y73161654D01*
X49349132Y71561654D02*
X49349132Y73161654D01*
X56099132Y74286654D02*
X56599132Y73786654D01*
X56599132Y73786654D02*
X57099132Y74286654D01*
X57099132Y74286654D02*
X56099132Y74286654D01*
X57849132Y73161654D02*
X57849132Y71561654D01*
X57849132Y71561654D02*
X58549132Y71561654D01*
X58549132Y79161654D02*
X48649132Y79161654D01*
X58549132Y71561654D02*
X58549132Y79161654D01*
G04 #@! TO.C,J1*
X75229132Y55121654D02*
X75864132Y55756654D01*
X75229132Y25276654D02*
X75229132Y55121654D01*
X75864132Y55756654D02*
X77769132Y55756654D01*
X77769132Y55756654D02*
X77769132Y25276654D01*
X77769132Y25276654D02*
X75229132Y25276654D01*
G04 #@! TO.C,J6*
X60049132Y79161654D02*
X60049132Y71561654D01*
X60049132Y71561654D02*
X60749132Y71561654D01*
X60749132Y73161654D02*
X69249132Y73161654D01*
X60749132Y71561654D02*
X60749132Y73161654D01*
X67499132Y74286654D02*
X67999132Y73786654D01*
X67999132Y73786654D02*
X68499132Y74286654D01*
X68499132Y74286654D02*
X67499132Y74286654D01*
X69249132Y73161654D02*
X69249132Y71561654D01*
X69249132Y71561654D02*
X69949132Y71561654D01*
X69949132Y79161654D02*
X60049132Y79161654D01*
X69949132Y71561654D02*
X69949132Y79161654D01*
G04 #@! TO.C,J4*
X25849132Y79161654D02*
X25849132Y71561654D01*
X25849132Y71561654D02*
X26549132Y71561654D01*
X26549132Y73161654D02*
X35049132Y73161654D01*
X26549132Y71561654D02*
X26549132Y73161654D01*
X33299132Y74286654D02*
X33799132Y73786654D01*
X33799132Y73786654D02*
X34299132Y74286654D01*
X34299132Y74286654D02*
X33299132Y74286654D01*
X35049132Y73161654D02*
X35049132Y71561654D01*
X35049132Y71561654D02*
X35749132Y71561654D01*
X35749132Y79161654D02*
X25849132Y79161654D01*
X35749132Y71561654D02*
X35749132Y79161654D01*
G04 #@! TO.C,R2*
X22259132Y50811654D02*
X24799132Y50811654D01*
X23059132Y50811654D02*
G75*
G02*
X21459132Y50811654I-800000J0D01*
G01*
X21459132Y50811654D02*
G75*
G02*
X23059132Y50811654I800000J0D01*
G01*
G04 #@! TO.C,J5*
X37249132Y79161654D02*
X37249132Y71561654D01*
X37249132Y71561654D02*
X37949132Y71561654D01*
X37949132Y73161654D02*
X46449132Y73161654D01*
X37949132Y71561654D02*
X37949132Y73161654D01*
X44699132Y74286654D02*
X45199132Y73786654D01*
X45199132Y73786654D02*
X45699132Y74286654D01*
X45699132Y74286654D02*
X44699132Y74286654D01*
X46449132Y73161654D02*
X46449132Y71561654D01*
X46449132Y71561654D02*
X47149132Y71561654D01*
X47149132Y79161654D02*
X37249132Y79161654D01*
X47149132Y71561654D02*
X47149132Y79161654D01*
D12*
G04 #@! TO.C,U2*
X1269132Y13531654D02*
X1269132Y64481654D01*
X6719132Y64481654D02*
X1269132Y64481654D01*
X6719132Y57991654D02*
X6719132Y64481654D01*
X6719132Y45361654D02*
X6719132Y57991654D01*
X11999132Y17421654D02*
X18710132Y17421654D01*
X11999132Y13531654D02*
X1269132Y13531654D01*
X11999132Y13531654D02*
X11999132Y17421654D01*
X18710132Y17421654D02*
X18710132Y13531654D01*
X18710132Y13531654D02*
X11999132Y13531654D01*
X24409132Y64481654D02*
X6719132Y64481654D01*
X24409132Y64481654D02*
X24409132Y57991654D01*
X24409132Y57991654D02*
X6719132Y57991654D01*
X24409132Y57991654D02*
X24409132Y45361654D01*
X24409132Y45361654D02*
X6719132Y45361654D01*
X29779132Y64481654D02*
X24409132Y64481654D01*
X29779132Y64481654D02*
X29779132Y13531654D01*
X29779132Y13531654D02*
X18710132Y13531654D01*
D13*
X30449132Y23491654D02*
G75*
G02*
X30249132Y23491654I-100000J0D01*
G01*
X30249132Y23491654D02*
G75*
G02*
X30449132Y23491654I100000J0D01*
G01*
G04 #@! TD*
M02*
