G04 #@! TF.GenerationSoftware,KiCad,Pcbnew,8.0.4*
G04 #@! TF.CreationDate,2025-01-30T11:26:39-05:00*
G04 #@! TF.ProjectId,Cubesat_pcb,43756265-7361-4745-9f70-63622e6b6963,rev?*
G04 #@! TF.SameCoordinates,Original*
G04 #@! TF.FileFunction,Legend,Bot*
G04 #@! TF.FilePolarity,Positive*
%FSLAX46Y46*%
G04 Gerber Fmt 4.6, Leading zero omitted, Abs format (unit mm)*
G04 Created by KiCad (PCBNEW 8.0.4) date 2025-01-30 11:26:39*
%MOMM*%
%LPD*%
G01*
G04 APERTURE LIST*
G04 Aperture macros list*
%AMRoundRect*
0 Rectangle with rounded corners*
0 $1 Rounding radius*
0 $2 $3 $4 $5 $6 $7 $8 $9 X,Y pos of 4 corners*
0 Add a 4 corners polygon primitive as box body*
4,1,4,$2,$3,$4,$5,$6,$7,$8,$9,$2,$3,0*
0 Add four circle primitives for the rounded corners*
1,1,$1+$1,$2,$3*
1,1,$1+$1,$4,$5*
1,1,$1+$1,$6,$7*
1,1,$1+$1,$8,$9*
0 Add four rect primitives between the rounded corners*
20,1,$1+$1,$2,$3,$4,$5,0*
20,1,$1+$1,$4,$5,$6,$7,0*
20,1,$1+$1,$6,$7,$8,$9,0*
20,1,$1+$1,$8,$9,$2,$3,0*%
G04 Aperture macros list end*
%ADD10C,0.150000*%
%ADD11C,0.127000*%
%ADD12C,0.200000*%
%ADD13R,1.700000X1.700000*%
%ADD14O,1.700000X1.700000*%
%ADD15C,3.200000*%
%ADD16C,1.400000*%
%ADD17O,1.400000X1.400000*%
%ADD18RoundRect,0.250000X0.350000X0.625000X-0.350000X0.625000X-0.350000X-0.625000X0.350000X-0.625000X0*%
%ADD19O,1.200000X1.750000*%
%ADD20C,3.000000*%
%ADD21RoundRect,0.102000X1.000000X1.000000X-1.000000X1.000000X-1.000000X-1.000000X1.000000X-1.000000X0*%
%ADD22C,2.204000*%
%ADD23RoundRect,0.102000X-1.000000X-0.400000X1.000000X-0.400000X1.000000X0.400000X-1.000000X0.400000X0*%
%ADD24RoundRect,0.102000X0.500000X0.525000X-0.500000X0.525000X-0.500000X-0.525000X0.500000X-0.525000X0*%
%ADD25RoundRect,0.102000X0.525000X1.100000X-0.525000X1.100000X-0.525000X-1.100000X0.525000X-1.100000X0*%
G04 APERTURE END LIST*
D10*
X11436036Y23021834D02*
X11436036Y22212311D01*
X11436036Y22212311D02*
X11388417Y22117073D01*
X11388417Y22117073D02*
X11340798Y22069454D01*
X11340798Y22069454D02*
X11245560Y22021834D01*
X11245560Y22021834D02*
X11055084Y22021834D01*
X11055084Y22021834D02*
X10959846Y22069454D01*
X10959846Y22069454D02*
X10912227Y22117073D01*
X10912227Y22117073D02*
X10864608Y22212311D01*
X10864608Y22212311D02*
X10864608Y23021834D01*
X9864608Y22021834D02*
X10436036Y22021834D01*
X10150322Y22021834D02*
X10150322Y23021834D01*
X10150322Y23021834D02*
X10245560Y22878977D01*
X10245560Y22878977D02*
X10340798Y22783739D01*
X10340798Y22783739D02*
X10436036Y22736120D01*
X14278674Y78380515D02*
X14278674Y77922922D01*
X14278674Y77922922D02*
X14309181Y77831404D01*
X14309181Y77831404D02*
X14370193Y77770392D01*
X14370193Y77770392D02*
X14461712Y77739885D01*
X14461712Y77739885D02*
X14522724Y77739885D01*
X14004119Y78319503D02*
X13973613Y78350009D01*
X13973613Y78350009D02*
X13912600Y78380515D01*
X13912600Y78380515D02*
X13760069Y78380515D01*
X13760069Y78380515D02*
X13699057Y78350009D01*
X13699057Y78350009D02*
X13668551Y78319503D01*
X13668551Y78319503D02*
X13638044Y78258491D01*
X13638044Y78258491D02*
X13638044Y78197478D01*
X13638044Y78197478D02*
X13668551Y78105960D01*
X13668551Y78105960D02*
X14034625Y77739885D01*
X14034625Y77739885D02*
X13638044Y77739885D01*
D11*
G04 #@! TO.C,U1*
X7499132Y39611654D02*
X23499132Y39611654D01*
X7499132Y39331654D02*
X7499132Y39611654D01*
X7499132Y23891654D02*
X7499132Y23611654D01*
X7499132Y23611654D02*
X23499132Y23611654D01*
X23499132Y39611654D02*
X23499132Y39331654D01*
X23499132Y23611654D02*
X23499132Y23891654D01*
D12*
X5799132Y24611654D02*
G75*
G02*
X5599132Y24611654I-100000J0D01*
G01*
X5599132Y24611654D02*
G75*
G02*
X5799132Y24611654I100000J0D01*
G01*
D11*
G04 #@! TO.C,J2*
X13899132Y77161654D02*
X13899132Y76911654D01*
X13899132Y76911654D02*
X13499132Y76911654D01*
X14499132Y77161654D02*
X13899132Y77161654D01*
X14499132Y76911654D02*
X14499132Y77161654D01*
X14899132Y76911654D02*
X14499132Y76911654D01*
D12*
X14319132Y73001654D02*
G75*
G02*
X14119132Y73001654I-100000J0D01*
G01*
X14119132Y73001654D02*
G75*
G02*
X14319132Y73001654I100000J0D01*
G01*
G04 #@! TD*
%LPC*%
D13*
G04 #@! TO.C,J7*
X37224132Y19311654D03*
D14*
X37224132Y16771654D03*
X37224132Y14231654D03*
X37224132Y11691654D03*
G04 #@! TD*
D15*
G04 #@! TO.C,H3*
X76499132Y4511654D03*
G04 #@! TD*
D16*
G04 #@! TO.C,R1*
X22259132Y53911654D03*
D17*
X24799132Y53911654D03*
G04 #@! TD*
D15*
G04 #@! TO.C,H1*
X4499132Y76511654D03*
G04 #@! TD*
D18*
G04 #@! TO.C,J8*
X56599132Y72911654D03*
D19*
X54599132Y72911654D03*
X52599132Y72911654D03*
X50599132Y72911654D03*
G04 #@! TD*
D13*
G04 #@! TO.C,J1*
X76499132Y54486654D03*
D14*
X76499132Y51946654D03*
X76499132Y49406654D03*
X76499132Y46866654D03*
X76499132Y44326654D03*
X76499132Y41786654D03*
X76499132Y39246654D03*
X76499132Y36706654D03*
X76499132Y34166654D03*
X76499132Y31626654D03*
X76499132Y29086654D03*
X76499132Y26546654D03*
G04 #@! TD*
D18*
G04 #@! TO.C,J6*
X67999132Y72911654D03*
D19*
X65999132Y72911654D03*
X63999132Y72911654D03*
X61999132Y72911654D03*
G04 #@! TD*
D18*
G04 #@! TO.C,J4*
X33799132Y72911654D03*
D19*
X31799132Y72911654D03*
X29799132Y72911654D03*
X27799132Y72911654D03*
G04 #@! TD*
D16*
G04 #@! TO.C,R2*
X22259132Y50811654D03*
D17*
X24799132Y50811654D03*
G04 #@! TD*
D15*
G04 #@! TO.C,H4*
X4499132Y4511654D03*
G04 #@! TD*
G04 #@! TO.C,H2*
X76499132Y76511654D03*
G04 #@! TD*
D18*
G04 #@! TO.C,J5*
X45199132Y72911654D03*
D19*
X43199132Y72911654D03*
X41199132Y72911654D03*
X39199132Y72911654D03*
G04 #@! TD*
D20*
G04 #@! TO.C,U2*
X27779132Y15531654D03*
X27779132Y62481654D03*
X3269132Y15531654D03*
X3269132Y62481654D03*
D21*
X28199132Y23491654D03*
D22*
X28199132Y26031654D03*
X28199132Y28571654D03*
X28199132Y31111654D03*
X28199132Y33651654D03*
X28199132Y36191654D03*
X28199132Y38731654D03*
X28199132Y41271654D03*
X28199132Y43811654D03*
X28199132Y46351654D03*
X28199132Y48891654D03*
X28199132Y51431654D03*
X28199132Y53971654D03*
X28199132Y56511654D03*
X28199132Y59051654D03*
X2799132Y59051654D03*
X2799132Y56511654D03*
X2799132Y53971654D03*
X2799132Y51431654D03*
X2799132Y48891654D03*
X2799132Y46351654D03*
X2799132Y43811654D03*
X2799132Y41271654D03*
X2799132Y38731654D03*
X2799132Y36191654D03*
X2799132Y33651654D03*
X2799132Y31111654D03*
X2799132Y28571654D03*
X2799132Y26031654D03*
X2799132Y23491654D03*
G04 #@! TD*
D23*
G04 #@! TO.C,U1*
X7399132Y24611654D03*
X7399132Y26611654D03*
X7399132Y28611654D03*
X7399132Y30611654D03*
X7399132Y32611654D03*
X7399132Y34611654D03*
X7399132Y36611654D03*
X7399132Y38611654D03*
X23599132Y38611654D03*
X23599132Y36611654D03*
X23599132Y34611654D03*
X23599132Y32611654D03*
X23599132Y30611654D03*
X23599132Y28611654D03*
X23599132Y26611654D03*
X23599132Y24611654D03*
G04 #@! TD*
D24*
G04 #@! TO.C,J2*
X14199132Y74086654D03*
D25*
X12724132Y75611654D03*
X15674132Y75611654D03*
G04 #@! TD*
%LPD*%
M02*
