G04 #@! TF.GenerationSoftware,KiCad,Pcbnew,8.0.4*
G04 #@! TF.CreationDate,2025-01-30T11:26:39-05:00*
G04 #@! TF.ProjectId,Cubesat_pcb,43756265-7361-4745-9f70-63622e6b6963,rev?*
G04 #@! TF.SameCoordinates,Original*
G04 #@! TF.FileFunction,Other,User*
%FSLAX46Y46*%
G04 Gerber Fmt 4.6, Leading zero omitted, Abs format (unit mm)*
G04 Created by KiCad (PCBNEW 8.0.4) date 2025-01-30 11:26:39*
%MOMM*%
%LPD*%
G01*
G04 APERTURE LIST*
%ADD10C,0.050000*%
G04 APERTURE END LIST*
D10*
G04 #@! TO.C,U1*
X6149132Y39861654D02*
X24849132Y39861654D01*
X6149132Y23361654D02*
X6149132Y39861654D01*
X24849132Y39861654D02*
X24849132Y23361654D01*
X24849132Y23361654D02*
X6149132Y23361654D01*
G04 #@! TO.C,J2*
X11949132Y76961654D02*
X11949132Y74261654D01*
X11949132Y76961654D02*
X12649132Y76961654D01*
X12649132Y77161654D02*
X12649132Y76961654D01*
X12649132Y74261654D02*
X11949132Y74261654D01*
X12649132Y74061654D02*
X12649132Y74261654D01*
X13449132Y74061654D02*
X12649132Y74061654D01*
X13449132Y74061654D02*
X13449132Y73311654D01*
X13449132Y73311654D02*
X14949132Y73311654D01*
X13649132Y77411654D02*
X13649132Y77161654D01*
X13649132Y77161654D02*
X12649132Y77161654D01*
X14749132Y77411654D02*
X13649132Y77411654D01*
X14749132Y77161654D02*
X14749132Y77411654D01*
X14749132Y77161654D02*
X15749132Y77161654D01*
X14949132Y74061654D02*
X15749132Y74061654D01*
X14949132Y73311654D02*
X14949132Y74061654D01*
X15749132Y77161654D02*
X15749132Y76961654D01*
X15749132Y76961654D02*
X16449132Y76961654D01*
X15749132Y74061654D02*
X15749132Y74261654D01*
X16449132Y76961654D02*
X16449132Y74261654D01*
X16449132Y74261654D02*
X15749132Y74261654D01*
G04 #@! TD*
M02*
