M48
; DRILL file {KiCad 8.0.4} date 2025-01-30T11:26:39-0500
; FORMAT={-:-/ absolute / metric / decimal}
; #@! TF.CreationDate,2025-01-30T11:26:39-05:00
; #@! TF.GenerationSoftware,Kicad,Pcbnew,8.0.4
; #@! TF.FileFunction,Plated,1,2,PTH
FMAT,2
METRIC
; #@! TA.AperFunction,Plated,PTH,ViaDrill
T1C0.500
; #@! TA.AperFunction,Plated,PTH,ComponentDrill
T2C0.700
; #@! TA.AperFunction,Plated,PTH,ComponentDrill
T3C0.750
; #@! TA.AperFunction,Plated,PTH,ComponentDrill
T4C1.000
; #@! TA.AperFunction,Plated,PTH,ComponentDrill
T5C1.020
%
G90
G05
T1
X5.199Y38.212
X5.199Y26.612
X5.199Y22.612
X5.199Y19.612
X18.299Y41.212
X18.299Y21.112
X20.799Y40.512
X20.799Y21.712
X29.799Y68.712
X30.599Y66.312
X31.299Y23.512
X32.299Y31.012
X32.299Y28.812
X34.799Y66.312
X35.699Y31.012
X35.699Y28.812
X37.199Y23.512
X41.199Y67.512
X42.299Y63.112
X42.299Y57.912
X46.799Y67.512
X54.599Y66.712
X58.099Y68.712
X59.999Y66.712
T2
X22.259Y53.912
X22.259Y50.812
X24.799Y53.912
X24.799Y50.812
T3
X27.799Y72.912
X29.799Y72.912
X31.799Y72.912
X33.799Y72.912
X39.199Y72.912
X41.199Y72.912
X43.199Y72.912
X45.199Y72.912
X50.599Y72.912
X52.599Y72.912
X54.599Y72.912
X56.599Y72.912
X61.999Y72.912
X63.999Y72.912
X65.999Y72.912
X67.999Y72.912
T4
X37.224Y19.312
X37.224Y16.772
X37.224Y14.232
X37.224Y11.692
X76.499Y54.487
X76.499Y51.947
X76.499Y49.407
X76.499Y46.867
X76.499Y44.327
X76.499Y41.787
X76.499Y39.247
X76.499Y36.707
X76.499Y34.167
X76.499Y31.627
X76.499Y29.087
X76.499Y26.547
T5
X2.799Y59.052
X2.799Y56.512
X2.799Y53.972
X2.799Y51.432
X2.799Y48.892
X2.799Y46.352
X2.799Y43.812
X2.799Y41.272
X2.799Y38.732
X2.799Y36.192
X2.799Y33.652
X2.799Y31.112
X2.799Y28.572
X2.799Y26.032
X2.799Y23.492
X28.199Y59.052
X28.199Y56.512
X28.199Y53.972
X28.199Y51.432
X28.199Y48.892
X28.199Y46.352
X28.199Y43.812
X28.199Y41.272
X28.199Y38.732
X28.199Y36.192
X28.199Y33.652
X28.199Y31.112
X28.199Y28.572
X28.199Y26.032
X28.199Y23.492
M30
