G04 #@! TF.GenerationSoftware,KiCad,Pcbnew,8.0.4*
G04 #@! TF.CreationDate,2025-01-30T11:26:39-05:00*
G04 #@! TF.ProjectId,Cubesat_pcb,43756265-7361-4745-9f70-63622e6b6963,rev?*
G04 #@! TF.SameCoordinates,Original*
G04 #@! TF.FileFunction,Soldermask,Bot*
G04 #@! TF.FilePolarity,Negative*
%FSLAX46Y46*%
G04 Gerber Fmt 4.6, Leading zero omitted, Abs format (unit mm)*
G04 Created by KiCad (PCBNEW 8.0.4) date 2025-01-30 11:26:39*
%MOMM*%
%LPD*%
G01*
G04 APERTURE LIST*
G04 Aperture macros list*
%AMRoundRect*
0 Rectangle with rounded corners*
0 $1 Rounding radius*
0 $2 $3 $4 $5 $6 $7 $8 $9 X,Y pos of 4 corners*
0 Add a 4 corners polygon primitive as box body*
4,1,4,$2,$3,$4,$5,$6,$7,$8,$9,$2,$3,0*
0 Add four circle primitives for the rounded corners*
1,1,$1+$1,$2,$3*
1,1,$1+$1,$4,$5*
1,1,$1+$1,$6,$7*
1,1,$1+$1,$8,$9*
0 Add four rect primitives between the rounded corners*
20,1,$1+$1,$2,$3,$4,$5,0*
20,1,$1+$1,$4,$5,$6,$7,0*
20,1,$1+$1,$6,$7,$8,$9,0*
20,1,$1+$1,$8,$9,$2,$3,0*%
G04 Aperture macros list end*
%ADD10R,1.700000X1.700000*%
%ADD11O,1.700000X1.700000*%
%ADD12C,3.200000*%
%ADD13C,1.400000*%
%ADD14O,1.400000X1.400000*%
%ADD15RoundRect,0.250000X0.350000X0.625000X-0.350000X0.625000X-0.350000X-0.625000X0.350000X-0.625000X0*%
%ADD16O,1.200000X1.750000*%
%ADD17C,3.000000*%
%ADD18RoundRect,0.102000X1.000000X1.000000X-1.000000X1.000000X-1.000000X-1.000000X1.000000X-1.000000X0*%
%ADD19C,2.204000*%
%ADD20RoundRect,0.102000X-1.000000X-0.400000X1.000000X-0.400000X1.000000X0.400000X-1.000000X0.400000X0*%
%ADD21RoundRect,0.102000X0.500000X0.525000X-0.500000X0.525000X-0.500000X-0.525000X0.500000X-0.525000X0*%
%ADD22RoundRect,0.102000X0.525000X1.100000X-0.525000X1.100000X-0.525000X-1.100000X0.525000X-1.100000X0*%
G04 APERTURE END LIST*
D10*
G04 #@! TO.C,J7*
X37224132Y19311654D03*
D11*
X37224132Y16771654D03*
X37224132Y14231654D03*
X37224132Y11691654D03*
G04 #@! TD*
D12*
G04 #@! TO.C,H3*
X76499132Y4511654D03*
G04 #@! TD*
D13*
G04 #@! TO.C,R1*
X22259132Y53911654D03*
D14*
X24799132Y53911654D03*
G04 #@! TD*
D12*
G04 #@! TO.C,H1*
X4499132Y76511654D03*
G04 #@! TD*
D15*
G04 #@! TO.C,J8*
X56599132Y72911654D03*
D16*
X54599132Y72911654D03*
X52599132Y72911654D03*
X50599132Y72911654D03*
G04 #@! TD*
D10*
G04 #@! TO.C,J1*
X76499132Y54486654D03*
D11*
X76499132Y51946654D03*
X76499132Y49406654D03*
X76499132Y46866654D03*
X76499132Y44326654D03*
X76499132Y41786654D03*
X76499132Y39246654D03*
X76499132Y36706654D03*
X76499132Y34166654D03*
X76499132Y31626654D03*
X76499132Y29086654D03*
X76499132Y26546654D03*
G04 #@! TD*
D15*
G04 #@! TO.C,J6*
X67999132Y72911654D03*
D16*
X65999132Y72911654D03*
X63999132Y72911654D03*
X61999132Y72911654D03*
G04 #@! TD*
D15*
G04 #@! TO.C,J4*
X33799132Y72911654D03*
D16*
X31799132Y72911654D03*
X29799132Y72911654D03*
X27799132Y72911654D03*
G04 #@! TD*
D13*
G04 #@! TO.C,R2*
X22259132Y50811654D03*
D14*
X24799132Y50811654D03*
G04 #@! TD*
D12*
G04 #@! TO.C,H4*
X4499132Y4511654D03*
G04 #@! TD*
G04 #@! TO.C,H2*
X76499132Y76511654D03*
G04 #@! TD*
D15*
G04 #@! TO.C,J5*
X45199132Y72911654D03*
D16*
X43199132Y72911654D03*
X41199132Y72911654D03*
X39199132Y72911654D03*
G04 #@! TD*
D17*
G04 #@! TO.C,U2*
X27779132Y15531654D03*
X27779132Y62481654D03*
X3269132Y15531654D03*
X3269132Y62481654D03*
D18*
X28199132Y23491654D03*
D19*
X28199132Y26031654D03*
X28199132Y28571654D03*
X28199132Y31111654D03*
X28199132Y33651654D03*
X28199132Y36191654D03*
X28199132Y38731654D03*
X28199132Y41271654D03*
X28199132Y43811654D03*
X28199132Y46351654D03*
X28199132Y48891654D03*
X28199132Y51431654D03*
X28199132Y53971654D03*
X28199132Y56511654D03*
X28199132Y59051654D03*
X2799132Y59051654D03*
X2799132Y56511654D03*
X2799132Y53971654D03*
X2799132Y51431654D03*
X2799132Y48891654D03*
X2799132Y46351654D03*
X2799132Y43811654D03*
X2799132Y41271654D03*
X2799132Y38731654D03*
X2799132Y36191654D03*
X2799132Y33651654D03*
X2799132Y31111654D03*
X2799132Y28571654D03*
X2799132Y26031654D03*
X2799132Y23491654D03*
G04 #@! TD*
D20*
G04 #@! TO.C,U1*
X7399132Y24611654D03*
X7399132Y26611654D03*
X7399132Y28611654D03*
X7399132Y30611654D03*
X7399132Y32611654D03*
X7399132Y34611654D03*
X7399132Y36611654D03*
X7399132Y38611654D03*
X23599132Y38611654D03*
X23599132Y36611654D03*
X23599132Y34611654D03*
X23599132Y32611654D03*
X23599132Y30611654D03*
X23599132Y28611654D03*
X23599132Y26611654D03*
X23599132Y24611654D03*
G04 #@! TD*
D21*
G04 #@! TO.C,J2*
X14199132Y74086654D03*
D22*
X12724132Y75611654D03*
X15674132Y75611654D03*
G04 #@! TD*
M02*
